<svg width="1440" height="539" viewBox="0 0 1440 539" fill="none" xmlns="http://www.w3.org/2000/svg">
<g clip-path="url(#clip0_1340_906)" filter="url(#filter0_d_1340_906)">
<g filter="url(#filter1_d_1340_906)">
<rect width="1440" height="500" transform="translate(-0.287109 17.9512)" fill="white"/>
<path d="M1439.71 507.951C1439.71 513.474 1435.24 517.951 1429.71 517.951H719.713H9.71289C4.19006 517.951 -0.287109 513.474 -0.287109 507.951V28.4531C-0.287109 22.9303 4.19006 18.4531 9.71289 18.4531H719.713H1429.71C1435.24 18.4531 1439.71 22.9303 1439.71 28.4531V507.951Z" fill="white"/>
<g opacity="0.3" filter="url(#filter2_f_1340_906)">
<ellipse cx="1042.42" cy="211.468" rx="562.826" ry="435.331" transform="rotate(3.25979 1042.42 211.468)" fill="url(#paint0_linear_1340_906)"/>
</g>
<path d="M201.6 388.902C201.6 383.379 206.077 378.902 211.6 378.902H371.6C377.122 378.902 381.6 383.379 381.6 388.902V409.902C381.6 415.425 377.122 419.902 371.6 419.902H211.6C206.077 419.902 201.6 415.425 201.6 409.902V388.902Z" fill="#00C65E"/>
<path d="M239.979 400.001C239.979 398.989 240.327 398.128 241.031 397.424C241.735 396.72 242.597 396.364 243.615 396.364C244.634 396.364 245.495 396.72 246.199 397.424C246.903 398.128 247.259 398.989 247.259 400.001C247.259 401.02 246.903 401.881 246.199 402.585C245.495 403.296 244.634 403.645 243.615 403.645C242.597 403.645 241.735 403.296 241.031 402.585C240.327 401.881 239.979 401.02 239.979 400.001ZM238.44 400.001C238.44 401.409 238.933 402.605 239.931 403.576C240.922 404.554 242.152 405.039 243.615 405.039C245.078 405.039 246.309 404.554 247.3 403.576C248.298 402.605 248.79 401.409 248.79 400.001C248.79 398.593 248.298 397.403 247.3 396.426C246.309 395.455 245.078 394.963 243.615 394.963C242.152 394.963 240.922 395.455 239.931 396.426C238.933 397.403 238.44 398.593 238.44 400.001ZM250.137 401.546C250.137 402.489 250.479 403.303 251.176 404C251.873 404.697 252.693 405.046 253.637 405.046C253.958 405.046 254.279 404.991 254.601 404.889C254.915 404.786 255.175 404.677 255.38 404.554C255.578 404.431 255.77 404.294 255.954 404.137C256.132 403.979 256.255 403.87 256.31 403.802C256.364 403.733 256.405 403.686 256.433 403.651L255.523 402.742L255.312 403.002C255.175 403.166 254.949 403.344 254.635 403.521C254.32 403.699 253.992 403.788 253.637 403.788C253.062 403.788 252.57 403.569 252.153 403.139C251.736 402.701 251.531 402.175 251.531 401.546C251.531 400.917 251.736 400.391 252.153 399.96C252.57 399.522 253.062 399.311 253.637 399.311C253.992 399.311 254.32 399.399 254.635 399.584C254.949 399.762 255.147 399.905 255.243 400.015C255.339 400.124 255.407 400.213 255.455 400.288L256.364 399.379L256.07 399.058C255.872 398.832 255.551 398.606 255.1 398.381C254.648 398.155 254.156 398.046 253.637 398.046C252.693 398.046 251.873 398.395 251.176 399.092C250.479 399.789 250.137 400.603 250.137 401.546ZM257.13 399.44H259.44V404.902H260.835V399.44H263.146V398.183H257.13V399.44ZM269.797 404.902V400.562C269.797 399.851 269.53 399.256 269.011 398.771C268.484 398.285 267.814 398.039 266.994 398.039C266.666 398.039 266.345 398.087 266.037 398.176C265.729 398.265 265.483 398.367 265.299 398.477C265.107 398.593 264.93 398.723 264.766 398.866C264.602 399.01 264.492 399.112 264.444 399.167C264.396 399.222 264.362 399.27 264.335 399.304L265.244 400.213L265.429 399.974C265.538 399.823 265.736 399.68 266.023 399.529C266.311 399.379 266.639 399.304 266.994 399.304C267.404 399.304 267.739 399.427 267.999 399.666C268.259 399.912 268.396 400.206 268.396 400.562L265.941 400.985C265.333 401.088 264.854 401.327 264.506 401.696C264.157 402.072 263.986 402.537 263.986 403.091C263.986 403.597 264.212 404.055 264.663 404.451C265.114 404.848 265.682 405.046 266.365 405.046C266.598 405.046 266.823 405.012 267.056 404.957C267.281 404.896 267.473 404.827 267.623 404.752C267.773 404.677 267.91 404.595 268.04 404.499C268.17 404.403 268.259 404.342 268.3 404.301C268.341 404.26 268.375 404.226 268.396 404.212V404.909L269.797 404.902ZM266.577 403.788C266.208 403.788 265.921 403.699 265.702 403.535C265.483 403.364 265.381 403.166 265.381 402.94C265.381 402.701 265.456 402.503 265.613 402.346C265.764 402.182 265.969 402.079 266.222 402.038L268.396 401.689V401.826C268.396 402.455 268.231 402.934 267.91 403.275C267.589 403.617 267.145 403.788 266.577 403.788ZM271.759 398.183V404.902H275.122C275.833 404.902 276.4 404.725 276.811 404.355C277.221 403.993 277.433 403.521 277.433 402.94C277.433 402.722 277.392 402.51 277.31 402.318C277.228 402.127 277.139 401.977 277.043 401.867C276.947 401.758 276.831 401.655 276.701 401.56C276.564 401.464 276.476 401.409 276.428 401.382C276.373 401.361 276.339 401.348 276.312 401.341L276.503 401.211C276.633 401.115 276.763 400.951 276.886 400.719C277.009 400.486 277.077 400.227 277.077 399.939C277.077 399.434 276.886 399.01 276.51 398.682C276.127 398.354 275.621 398.189 274.979 398.189L271.759 398.183ZM275.122 401.901C275.389 401.901 275.607 401.99 275.778 402.168C275.942 402.346 276.031 402.558 276.031 402.811C276.031 403.084 275.949 403.31 275.785 403.474C275.621 403.638 275.396 403.72 275.122 403.72H273.16V401.901H275.122ZM275.683 400.076C275.683 400.295 275.614 400.466 275.491 400.589C275.361 400.712 275.19 400.78 274.979 400.78H273.16V399.379H274.979C275.19 399.379 275.361 399.44 275.491 399.563C275.614 399.687 275.683 399.857 275.683 400.076ZM283.865 398.183L280.365 402.592V398.183H278.964V404.902H280.222L283.722 400.493V404.902H285.123V398.183H283.865ZM286.388 399.44H288.698V404.902H290.093V399.44H292.403V398.183H286.388V399.44ZM295.062 403.713V401.471H296.601C296.915 401.471 297.182 401.58 297.4 401.792C297.612 402.011 297.722 402.277 297.722 402.592C297.722 402.913 297.612 403.18 297.4 403.392C297.182 403.61 296.915 403.713 296.601 403.713H295.062ZM299.123 402.599C299.123 401.929 298.891 401.375 298.426 400.938C297.961 400.5 297.353 400.281 296.594 400.281H295.056V398.183H293.654V404.902H296.594C297.353 404.902 297.961 404.69 298.426 404.253C298.891 403.822 299.123 403.269 299.123 402.599ZM307.941 399.933C307.941 399.42 307.716 398.976 307.265 398.6C306.813 398.23 306.198 398.039 305.426 398.039C304.947 398.039 304.496 398.135 304.072 398.312C303.648 398.497 303.375 398.641 303.252 398.75C303.129 398.859 303.033 398.955 302.972 399.023L303.888 399.933L304.065 399.775C304.188 399.666 304.373 399.563 304.633 399.461C304.893 399.358 305.152 399.304 305.426 399.304C305.788 399.304 306.068 399.379 306.26 399.522C306.451 399.666 306.547 399.851 306.547 400.076C306.547 400.302 306.451 400.486 306.26 400.63C306.068 400.773 305.788 400.842 305.426 400.842H304.653V401.963H305.426C305.891 401.963 306.239 402.052 306.472 402.223C306.704 402.4 306.827 402.612 306.827 402.872C306.827 403.132 306.704 403.351 306.472 403.521C306.239 403.699 305.891 403.781 305.426 403.781C305.111 403.781 304.804 403.706 304.496 403.556C304.188 403.405 303.99 403.275 303.895 403.18C303.799 403.084 303.73 403.009 303.676 402.94L302.767 403.85L302.862 403.979C302.931 404.062 303.047 404.164 303.197 404.28C303.348 404.396 303.519 404.513 303.724 404.622C303.922 404.738 304.175 404.834 304.476 404.916C304.776 404.998 305.091 405.039 305.419 405.039C306.287 405.039 306.971 404.848 307.47 404.451C307.969 404.055 308.215 403.576 308.215 403.016C308.215 402.763 308.167 402.53 308.071 402.325C307.976 402.12 307.866 401.963 307.75 401.847C307.634 401.73 307.504 401.628 307.354 401.546C307.203 401.464 307.101 401.409 307.039 401.389C306.978 401.361 306.93 401.348 306.889 401.341L307.155 401.211C307.333 401.136 307.511 400.985 307.682 400.753C307.853 400.521 307.941 400.247 307.941 399.933ZM315.16 404.902V400.562C315.16 399.851 314.894 399.256 314.374 398.771C313.848 398.285 313.178 398.039 312.357 398.039C312.029 398.039 311.708 398.087 311.4 398.176C311.093 398.265 310.847 398.367 310.662 398.477C310.471 398.593 310.293 398.723 310.129 398.866C309.965 399.01 309.855 399.112 309.808 399.167C309.76 399.222 309.726 399.27 309.698 399.304L310.607 400.213L310.792 399.974C310.901 399.823 311.1 399.68 311.387 399.529C311.674 399.379 312.002 399.304 312.357 399.304C312.768 399.304 313.103 399.427 313.362 399.666C313.622 399.912 313.759 400.206 313.759 400.562L311.305 400.985C310.696 401.088 310.218 401.327 309.869 401.696C309.521 402.072 309.35 402.537 309.35 403.091C309.35 403.597 309.575 404.055 310.026 404.451C310.478 404.848 311.045 405.046 311.729 405.046C311.961 405.046 312.187 405.012 312.419 404.957C312.645 404.896 312.836 404.827 312.986 404.752C313.137 404.677 313.273 404.595 313.403 404.499C313.533 404.403 313.622 404.342 313.663 404.301C313.704 404.26 313.738 404.226 313.759 404.212V404.909L315.16 404.902ZM311.94 403.788C311.571 403.788 311.284 403.699 311.065 403.535C310.847 403.364 310.744 403.166 310.744 402.94C310.744 402.701 310.819 402.503 310.977 402.346C311.127 402.182 311.332 402.079 311.585 402.038L313.759 401.689V401.826C313.759 402.455 313.595 402.934 313.273 403.275C312.952 403.617 312.508 403.788 311.94 403.788ZM319.364 398.183C318.605 398.183 317.997 398.401 317.532 398.839C317.067 399.276 316.835 399.823 316.835 400.493C316.835 400.794 316.89 401.067 316.985 401.327C317.081 401.587 317.19 401.785 317.307 401.929C317.423 402.079 317.553 402.209 317.703 402.318C317.854 402.428 317.963 402.503 318.024 402.53C318.086 402.564 318.134 402.585 318.168 402.592L316.698 404.902H318.236L319.569 402.804H321.039V404.902H322.434V398.183H319.364ZM321.039 399.372V401.614H319.357C319.043 401.614 318.776 401.512 318.558 401.293C318.346 401.081 318.236 400.814 318.236 400.493C318.236 400.179 318.346 399.912 318.558 399.693C318.776 399.481 319.043 399.372 319.357 399.372H321.039ZM324.396 398.183V404.902H327.759C328.47 404.902 329.037 404.725 329.447 404.355C329.857 403.993 330.069 403.521 330.069 402.94C330.069 402.722 330.028 402.51 329.946 402.318C329.864 402.127 329.775 401.977 329.68 401.867C329.584 401.758 329.468 401.655 329.338 401.56C329.201 401.464 329.112 401.409 329.064 401.382C329.01 401.361 328.976 401.348 328.948 401.341L329.14 401.211C329.27 401.115 329.399 400.951 329.522 400.719C329.646 400.486 329.714 400.227 329.714 399.939C329.714 399.434 329.522 399.01 329.146 398.682C328.764 398.354 328.258 398.189 327.615 398.189L324.396 398.183ZM327.759 401.901C328.025 401.901 328.244 401.99 328.415 402.168C328.579 402.346 328.668 402.558 328.668 402.811C328.668 403.084 328.586 403.31 328.422 403.474C328.258 403.638 328.032 403.72 327.759 403.72H325.797V401.901H327.759ZM328.319 400.076C328.319 400.295 328.251 400.466 328.128 400.589C327.998 400.712 327.827 400.78 327.615 400.78H325.797V399.379H327.615C327.827 399.379 327.998 399.44 328.128 399.563C328.251 399.687 328.319 399.857 328.319 400.076ZM337.555 398.183H335.873L333.002 401.19V398.183H331.601V404.902H333.002V403.016L334.055 401.895L336.222 404.902H337.76L334.964 400.985L337.555 398.183ZM340.487 405.6C340.228 406.256 339.831 406.584 339.298 406.584C339.059 406.584 338.826 406.536 338.594 406.44V407.705L338.689 407.732C338.765 407.76 338.888 407.787 339.052 407.808C339.216 407.835 339.387 407.842 339.578 407.842C340.084 407.842 340.508 407.678 340.85 407.343C341.191 407.015 341.533 406.434 341.882 405.6L344.896 398.183H343.427L341.465 403.084L339.503 398.183H338.033L340.768 404.902L340.487 405.6Z" fill="white"/>
<path d="M217.322 72.2168C213.473 72.2168 210.221 73.5 207.584 76.0664C204.947 78.6328 203.629 81.7266 203.629 85.3477C203.629 88.9688 204.947 92.0801 207.584 94.6465C210.221 97.2129 213.473 98.4961 217.322 98.4961C218.623 98.4961 219.889 98.3203 221.119 97.9512C222.35 97.5996 223.334 97.1953 224.09 96.7559C224.846 96.3164 225.549 95.8066 226.217 95.2266C226.885 94.6465 227.307 94.2422 227.5 94.0137C227.693 93.7852 227.834 93.5918 227.939 93.4512L224.688 90.0234L224.406 90.3926C224.213 90.6562 223.914 90.9551 223.492 91.3066C223.07 91.6582 222.578 92.0098 222.033 92.3613C221.471 92.7129 220.785 93.0117 219.941 93.2578C219.098 93.5039 218.236 93.627 217.322 93.627C214.967 93.627 212.998 92.8359 211.416 91.2539C209.834 89.6719 209.043 87.7031 209.043 85.3477C209.043 82.9922 209.834 81.0234 211.416 79.4414C212.998 77.8594 214.967 77.0684 217.322 77.0684C218.166 77.0684 219.01 77.209 219.836 77.4727C220.645 77.7363 221.312 78.0176 221.822 78.334C222.314 78.6504 222.789 79.002 223.211 79.4062C223.633 79.8281 223.914 80.1094 224.037 80.2852C224.16 80.4609 224.266 80.584 224.336 80.6719L227.764 77.2441L227.359 76.7168C227.096 76.3828 226.674 75.9609 226.076 75.4688C225.479 74.9766 224.811 74.4844 224.037 73.9922C223.264 73.5 222.297 73.0957 221.102 72.7441C219.906 72.3926 218.641 72.2168 217.322 72.2168ZM248.408 90.7441L248.584 88.7754C248.584 86.2617 247.74 84.1699 246.07 82.4824C244.383 80.7949 242.291 79.9512 239.777 79.9512C237.246 79.9512 235.084 80.8652 233.291 82.6582C231.48 84.4512 230.584 86.6133 230.584 89.127C230.584 91.6582 231.498 93.8203 233.326 95.6133C235.154 97.4062 237.352 98.3027 239.953 98.3027C240.867 98.3027 241.746 98.1973 242.607 97.9863C243.469 97.7754 244.172 97.5469 244.717 97.2656C245.244 96.9844 245.754 96.668 246.246 96.3164C246.721 95.9648 247.037 95.7188 247.178 95.5781L247.512 95.2441L244.998 92.0098L244.488 92.5547C244.172 92.9238 243.609 93.293 242.836 93.6445C242.062 93.9961 241.219 94.1719 240.305 94.1719C239.039 94.1719 237.984 93.8555 237.158 93.1875C236.314 92.5195 235.805 91.7109 235.629 90.7441H248.408ZM239.777 84.0996C240.797 84.0996 241.676 84.416 242.379 85.0137C243.082 85.6289 243.539 86.4023 243.732 87.334H235.629C235.91 86.3848 236.42 85.5938 237.141 84.9961C237.861 84.3984 238.74 84.0996 239.777 84.0996ZM262.777 98.3027C265.062 98.3027 267.031 97.4238 268.719 95.6484C270.406 93.873 271.25 91.6934 271.25 89.127C271.25 86.5605 270.406 84.3984 268.719 82.623C267.031 80.8477 265.062 79.9512 262.777 79.9512C262.127 79.9512 261.512 80.0566 260.914 80.2324C260.316 80.4082 259.824 80.6191 259.455 80.8477C259.068 81.0762 258.717 81.3398 258.4 81.6211C258.084 81.9023 257.873 82.0957 257.768 82.2012C257.662 82.3066 257.592 82.3945 257.557 82.4648V80.3027H252.705V105.51H257.557V95.7891L258.102 96.4395C258.453 96.8613 259.068 97.2656 259.947 97.6875C260.826 98.1094 261.758 98.3027 262.777 98.3027ZM261.881 84.2754C263.076 84.2754 264.096 84.7324 264.939 85.6465C265.783 86.5605 266.205 87.7207 266.205 89.1445C266.205 90.5508 265.783 91.7285 264.939 92.6426C264.096 93.5566 263.076 94.0137 261.881 94.0137C260.686 94.0137 259.666 93.5566 258.822 92.6426C257.979 91.7285 257.557 90.5508 257.557 89.1445C257.557 87.7207 257.979 86.5605 258.822 85.6465C259.666 84.7324 260.686 84.2754 261.881 84.2754ZM275.354 80.3027V97.9512H284.529C286.445 97.9512 287.975 97.459 289.117 96.457C290.26 95.4727 290.84 94.2246 290.84 92.7305C290.84 92.168 290.734 91.6406 290.523 91.1484C290.312 90.6738 290.084 90.3047 289.838 90.0234C289.592 89.7422 289.293 89.4961 288.959 89.2852C288.607 89.0742 288.379 88.9336 288.256 88.8809C288.115 88.8457 288.027 88.8105 287.957 88.7754L288.484 88.4414C288.836 88.2656 289.205 87.8613 289.574 87.2637C289.926 86.666 290.119 85.9805 290.119 85.1719C290.119 83.8535 289.557 82.7109 288.467 81.7441C287.359 80.7949 285.936 80.3027 284.178 80.3027H275.354ZM284.178 90.3926C284.723 90.3926 285.162 90.5684 285.479 90.9023C285.795 91.2363 285.971 91.6582 285.971 92.1855C285.971 92.7129 285.795 93.1523 285.479 93.4863C285.162 93.8379 284.723 93.9961 284.178 93.9961H280.205V90.3926H284.178ZM285.25 85.7168C285.25 86.6836 284.758 87.1582 283.809 87.1582H280.205V84.2754H283.809C284.758 84.2754 285.25 84.7676 285.25 85.7168ZM307.441 80.3027L299.795 90.2168V80.3027H294.943V97.9512H299.145L306.826 88.0547V97.9512H311.678V80.3027H307.441ZM315.764 89.127C315.764 91.5879 316.695 93.7324 318.594 95.5605C320.475 97.3887 322.707 98.3027 325.291 98.3027C326.205 98.3027 327.084 98.1797 327.91 97.916C328.736 97.6523 329.404 97.3711 329.914 97.0547C330.441 96.7383 330.916 96.3867 331.355 95.9824C331.812 95.5781 332.094 95.2969 332.217 95.1211C332.34 94.9453 332.428 94.8223 332.498 94.7168L329.615 91.6582L329.141 92.2559C328.824 92.6426 328.297 93.0293 327.576 93.416C326.855 93.8027 326.1 93.9961 325.291 93.9961C324.025 93.9961 322.936 93.5215 322.004 92.5723C321.09 91.623 320.615 90.4805 320.615 89.1445C320.615 87.8086 321.09 86.6484 322.004 85.6992C322.918 84.75 324.025 84.2754 325.291 84.2754C326.1 84.2754 326.855 84.5039 327.576 84.9258C328.297 85.3477 328.771 85.6992 328.982 85.9629C329.193 86.2441 329.352 86.4551 329.439 86.6133L332.498 83.5547L332.234 83.1855C332.059 82.9395 331.76 82.623 331.338 82.2715C330.934 81.9199 330.459 81.5859 329.932 81.2344C329.404 80.8828 328.736 80.584 327.91 80.3379C327.084 80.0918 326.205 79.9512 325.291 79.9512C322.707 79.9512 320.475 80.8828 318.576 82.7109C316.695 84.5391 315.764 86.6836 315.764 89.127ZM341.119 91.2891H347.957V97.9512H352.826V80.3027H347.957V86.9648H341.119V80.3027H336.268V97.9512H341.119V91.2891ZM379.781 80.3027H374.912V97.9512H379.781V80.3027ZM362.854 93.9961V89.6719H365.736C366.352 89.6719 366.861 89.8828 367.266 90.2871C367.688 90.709 367.881 91.2188 367.881 91.834C367.881 92.4668 367.688 92.9766 367.266 93.3809C366.861 93.8027 366.352 93.9961 365.736 93.9961H362.854ZM372.768 91.834C372.768 90.0059 372.152 88.5293 370.939 87.4043C369.709 86.2793 368.039 85.7168 365.912 85.7168H362.854V80.3027H358.002V97.9512H365.912C368.057 97.9512 369.727 97.3887 370.939 96.2637C372.152 95.1387 372.768 93.6621 372.768 91.834ZM393.254 74.7305C392.621 74.7305 392.111 74.5371 391.707 74.1152C391.285 73.7109 391.092 73.2012 391.092 72.5859H387.488C387.488 74.1152 388.016 75.3984 389.105 76.4355C390.195 77.4551 391.566 77.9824 393.254 77.9824C394.924 77.9824 396.295 77.4551 397.385 76.4355C398.475 75.3984 399.02 74.1152 399.02 72.5859H395.416C395.416 73.2012 395.205 73.7109 394.801 74.1152C394.379 74.5371 393.869 74.7305 393.254 74.7305ZM397.473 80.3027L389.826 90.2168V80.3027H384.975V97.9512H389.176L396.857 88.0547V97.9512H401.709V80.3027H397.473ZM414.768 97.9512H428.268V102.1H433.119V93.627H430.781V80.3027H425.93V93.627H419.619V80.3027H414.768V97.9512ZM453.588 90.7441L453.764 88.7754C453.764 86.2617 452.92 84.1699 451.25 82.4824C449.562 80.7949 447.471 79.9512 444.957 79.9512C442.426 79.9512 440.264 80.8652 438.471 82.6582C436.66 84.4512 435.764 86.6133 435.764 89.127C435.764 91.6582 436.678 93.8203 438.506 95.6133C440.334 97.4062 442.531 98.3027 445.133 98.3027C446.047 98.3027 446.926 98.1973 447.787 97.9863C448.648 97.7754 449.352 97.5469 449.896 97.2656C450.424 96.9844 450.934 96.668 451.426 96.3164C451.9 95.9648 452.217 95.7188 452.357 95.5781L452.691 95.2441L450.178 92.0098L449.668 92.5547C449.352 92.9238 448.789 93.293 448.016 93.6445C447.242 93.9961 446.398 94.1719 445.484 94.1719C444.219 94.1719 443.164 93.8555 442.338 93.1875C441.494 92.5195 440.984 91.7109 440.809 90.7441H453.588ZM444.957 84.0996C445.977 84.0996 446.855 84.416 447.559 85.0137C448.262 85.6289 448.719 86.4023 448.912 87.334H440.809C441.09 86.3848 441.6 85.5938 442.32 84.9961C443.041 84.3984 443.92 84.0996 444.957 84.0996ZM462.736 91.2891H469.574V97.9512H474.443V80.3027H469.574V86.9648H462.736V80.3027H457.885V97.9512H462.736V91.2891ZM477.809 84.9961H483.398V97.9512H488.25V84.9961H493.84V80.3027H477.809V84.9961ZM507.277 98.3027C509.562 98.3027 511.531 97.4238 513.219 95.6484C514.906 93.873 515.75 91.6934 515.75 89.127C515.75 86.5605 514.906 84.3984 513.219 82.623C511.531 80.8477 509.562 79.9512 507.277 79.9512C506.627 79.9512 506.012 80.0566 505.414 80.2324C504.816 80.4082 504.324 80.6191 503.955 80.8477C503.568 81.0762 503.217 81.3398 502.9 81.6211C502.584 81.9023 502.373 82.0957 502.268 82.2012C502.162 82.3066 502.092 82.3945 502.057 82.4648V80.3027H497.205V105.51H502.057V95.7891L502.602 96.4395C502.953 96.8613 503.568 97.2656 504.447 97.6875C505.326 98.1094 506.258 98.3027 507.277 98.3027ZM506.381 84.2754C507.576 84.2754 508.596 84.7324 509.439 85.6465C510.283 86.5605 510.705 87.7207 510.705 89.1445C510.705 90.5508 510.283 91.7285 509.439 92.6426C508.596 93.5566 507.576 94.0137 506.381 94.0137C505.186 94.0137 504.166 93.5566 503.322 92.6426C502.479 91.7285 502.057 90.5508 502.057 89.1445C502.057 87.7207 502.479 86.5605 503.322 85.6465C504.166 84.7324 505.186 84.2754 506.381 84.2754ZM531.867 99.0234C531.287 100.359 530.268 101.01 528.809 101.01C528.088 101.01 527.49 100.904 527.016 100.658V104.965L527.367 105.088C527.613 105.193 527.982 105.281 528.51 105.369C529.02 105.475 529.547 105.51 530.074 105.51C533.027 105.51 535.295 103.348 536.912 99.0234L543.926 80.3027H538.898L534.75 92.0098L530.619 80.3027H525.574L532.412 97.7754L531.867 99.0234ZM564.367 93.627L569.043 87.5098V97.9512H573.895V80.3027H569.764L564.367 87.334L558.953 80.3027H554.822V97.9512H559.674V87.5098L564.367 93.627ZM595.822 90.7441L595.998 88.7754C595.998 86.2617 595.154 84.1699 593.484 82.4824C591.797 80.7949 589.705 79.9512 587.191 79.9512C584.66 79.9512 582.498 80.8652 580.705 82.6582C578.895 84.4512 577.998 86.6133 577.998 89.127C577.998 91.6582 578.912 93.8203 580.74 95.6133C582.568 97.4062 584.766 98.3027 587.367 98.3027C588.281 98.3027 589.16 98.1973 590.021 97.9863C590.883 97.7754 591.586 97.5469 592.131 97.2656C592.658 96.9844 593.168 96.668 593.66 96.3164C594.135 95.9648 594.451 95.7188 594.592 95.5781L594.926 95.2441L592.412 92.0098L591.902 92.5547C591.586 92.9238 591.023 93.293 590.25 93.6445C589.477 93.9961 588.633 94.1719 587.719 94.1719C586.453 94.1719 585.398 93.8555 584.572 93.1875C583.729 92.5195 583.219 91.7109 583.043 90.7441H595.822ZM587.191 84.0996C588.211 84.0996 589.09 84.416 589.793 85.0137C590.496 85.6289 590.953 86.4023 591.146 87.334H583.043C583.324 86.3848 583.834 85.5938 584.555 84.9961C585.275 84.3984 586.154 84.0996 587.191 84.0996ZM598.309 84.9961H603.898V97.9512H608.75V84.9961H614.34V80.3027H598.309V84.9961ZM627.777 98.3027C630.062 98.3027 632.031 97.4238 633.719 95.6484C635.406 93.873 636.25 91.6934 636.25 89.127C636.25 86.5605 635.406 84.3984 633.719 82.623C632.031 80.8477 630.062 79.9512 627.777 79.9512C627.127 79.9512 626.512 80.0566 625.914 80.2324C625.316 80.4082 624.824 80.6191 624.455 80.8477C624.068 81.0762 623.717 81.3398 623.4 81.6211C623.084 81.9023 622.873 82.0957 622.768 82.2012C622.662 82.3066 622.592 82.3945 622.557 82.4648V80.3027H617.705V105.51H622.557V95.7891L623.102 96.4395C623.453 96.8613 624.068 97.2656 624.947 97.6875C625.826 98.1094 626.758 98.3027 627.777 98.3027ZM626.881 84.2754C628.076 84.2754 629.096 84.7324 629.939 85.6465C630.783 86.5605 631.205 87.7207 631.205 89.1445C631.205 90.5508 630.783 91.7285 629.939 92.6426C629.096 93.5566 628.076 94.0137 626.881 94.0137C625.686 94.0137 624.666 93.5566 623.822 92.6426C622.979 91.7285 622.557 90.5508 622.557 89.1445C622.557 87.7207 622.979 86.5605 623.822 85.6465C624.666 84.7324 625.686 84.2754 626.881 84.2754ZM644.309 89.1445C644.309 87.8262 644.73 86.7188 645.592 85.8047C646.436 84.9082 647.455 84.4512 648.633 84.4512C649.793 84.4512 650.812 84.9082 651.674 85.8047C652.518 86.7188 652.957 87.8262 652.957 89.1445C652.957 90.4629 652.518 91.5703 651.674 92.4668C650.812 93.3633 649.793 93.8027 648.633 93.8027C647.455 93.8027 646.436 93.3633 645.592 92.4668C644.73 91.5703 644.309 90.4629 644.309 89.1445ZM657.984 89.127C657.984 86.6836 657.053 84.5391 655.189 82.7109C653.326 80.8828 651.146 79.9688 648.633 79.9688C646.102 79.9688 643.922 80.8828 642.059 82.7109C640.195 84.5391 639.264 86.6836 639.264 89.127C639.264 91.5879 640.195 93.7324 642.059 95.5605C643.922 97.3887 646.102 98.3027 648.633 98.3027C651.146 98.3027 653.326 97.3887 655.189 95.5605C657.053 93.7324 657.984 91.5879 657.984 89.127ZM684.016 87.334H677.881L680.957 79.0547L684.016 87.334ZM685.809 92.0098L687.971 97.9512H693.736L683.822 72.7441H678.074L668.16 97.9512H673.926L676.088 92.0098H685.809ZM711.885 89.127C711.885 86.6836 710.936 84.5391 709.055 82.7109C707.156 80.8828 704.924 79.9688 702.34 79.9688C701.461 79.9688 700.6 80.0918 699.756 80.3555C698.912 80.6191 698.227 80.9004 697.734 81.2168C697.225 81.5332 696.75 81.8848 696.293 82.3066C695.836 82.7109 695.537 82.9922 695.432 83.168C695.309 83.3438 695.221 83.4668 695.15 83.5723L697.84 86.2617L698.279 85.6641C698.596 85.2773 699.123 84.8906 699.861 84.5039C700.6 84.1172 701.426 83.9238 702.34 83.9238C703.008 83.9238 703.641 84.0469 704.203 84.293C704.766 84.5391 705.188 84.8203 705.486 85.1191C705.785 85.418 706.049 85.7695 706.277 86.1562C706.506 86.543 706.646 86.8066 706.717 86.9648C706.77 87.123 706.805 87.2461 706.84 87.3516H699.65V90.9551H706.84L706.523 91.7812C706.295 92.3438 705.803 92.9238 705.047 93.5039C704.291 94.0664 703.395 94.3652 702.34 94.3652C701.777 94.3652 701.232 94.2773 700.705 94.1191C700.16 93.9434 699.721 93.7676 699.387 93.5566C699.053 93.3457 698.736 93.1172 698.438 92.8359C698.139 92.5547 697.945 92.3789 697.857 92.2734C697.77 92.168 697.699 92.0801 697.664 92.0098L695.15 94.7168L695.432 95.0684C695.607 95.3496 695.924 95.6484 696.346 96C696.768 96.3516 697.242 96.6855 697.787 97.0371C698.314 97.3887 699 97.6875 699.809 97.9336C700.617 98.1797 701.461 98.3203 702.322 98.3203C704.924 98.3203 707.174 97.3887 709.055 95.5605C710.936 93.7324 711.885 91.5879 711.885 89.127ZM726.043 98.3027C728.328 98.3027 730.297 97.4238 731.984 95.6484C733.672 93.873 734.516 91.6934 734.516 89.127C734.516 86.5605 733.672 84.3984 731.984 82.623C730.297 80.8477 728.328 79.9512 726.043 79.9512C725.393 79.9512 724.777 80.0566 724.18 80.2324C723.582 80.4082 723.09 80.6191 722.721 80.8477C722.334 81.0762 721.982 81.3398 721.666 81.6211C721.35 81.9023 721.139 82.0957 721.033 82.2012C720.928 82.3066 720.857 82.3945 720.822 82.4648V80.3027H715.971V105.51H720.822V95.7891L721.367 96.4395C721.719 96.8613 722.334 97.2656 723.213 97.6875C724.092 98.1094 725.023 98.3027 726.043 98.3027ZM725.146 84.2754C726.342 84.2754 727.361 84.7324 728.205 85.6465C729.049 86.5605 729.471 87.7207 729.471 89.1445C729.471 90.5508 729.049 91.7285 728.205 92.6426C727.361 93.5566 726.342 94.0137 725.146 94.0137C723.951 94.0137 722.932 93.5566 722.088 92.6426C721.244 91.7285 720.822 90.5508 720.822 89.1445C720.822 87.7207 721.244 86.5605 722.088 85.6465C722.932 84.7324 723.951 84.2754 725.146 84.2754ZM742.574 89.1445C742.574 87.8262 742.996 86.7188 743.857 85.8047C744.701 84.9082 745.721 84.4512 746.898 84.4512C748.059 84.4512 749.078 84.9082 749.939 85.8047C750.783 86.7188 751.223 87.8262 751.223 89.1445C751.223 90.4629 750.783 91.5703 749.939 92.4668C749.078 93.3633 748.059 93.8027 746.898 93.8027C745.721 93.8027 744.701 93.3633 743.857 92.4668C742.996 91.5703 742.574 90.4629 742.574 89.1445ZM756.25 89.127C756.25 86.6836 755.318 84.5391 753.455 82.7109C751.592 80.8828 749.412 79.9688 746.898 79.9688C744.367 79.9688 742.188 80.8828 740.324 82.7109C738.461 84.5391 737.529 86.6836 737.529 89.127C737.529 91.5879 738.461 93.7324 740.324 95.5605C742.188 97.3887 744.367 98.3027 746.898 98.3027C749.412 98.3027 751.592 97.3887 753.455 95.5605C755.318 93.7324 756.25 91.5879 756.25 89.127ZM765.205 84.627H772.043V97.9512H776.912V80.3027H760.354V97.9512H765.205V84.627ZM786.043 89.1445C786.043 87.8262 786.465 86.7188 787.326 85.8047C788.17 84.9082 789.189 84.4512 790.367 84.4512C791.527 84.4512 792.547 84.9082 793.408 85.8047C794.252 86.7188 794.691 87.8262 794.691 89.1445C794.691 90.4629 794.252 91.5703 793.408 92.4668C792.547 93.3633 791.527 93.8027 790.367 93.8027C789.189 93.8027 788.17 93.3633 787.326 92.4668C786.465 91.5703 786.043 90.4629 786.043 89.1445ZM799.719 89.127C799.719 86.6836 798.787 84.5391 796.924 82.7109C795.061 80.8828 792.881 79.9688 790.367 79.9688C787.836 79.9688 785.656 80.8828 783.793 82.7109C781.93 84.5391 780.998 86.6836 780.998 89.127C780.998 91.5879 781.93 93.7324 783.793 95.5605C785.656 97.3887 787.836 98.3027 790.367 98.3027C792.881 98.3027 795.061 97.3887 796.924 95.5605C798.787 93.7324 799.719 91.5879 799.719 89.127ZM813.895 98.3027C816.18 98.3027 818.148 97.4238 819.836 95.6484C821.523 93.873 822.367 91.6934 822.367 89.127C822.367 86.5605 821.523 84.3984 819.836 82.623C818.148 80.8477 816.18 79.9512 813.895 79.9512C813.244 79.9512 812.629 80.0566 812.031 80.2324C811.434 80.4082 810.941 80.6191 810.572 80.8477C810.186 81.0762 809.834 81.3398 809.518 81.6211C809.201 81.9023 808.99 82.0957 808.885 82.2012C808.779 82.3066 808.709 82.3945 808.674 82.4648V80.3027H803.822V105.51H808.674V95.7891L809.219 96.4395C809.57 96.8613 810.186 97.2656 811.064 97.6875C811.943 98.1094 812.875 98.3027 813.895 98.3027ZM812.998 84.2754C814.193 84.2754 815.213 84.7324 816.057 85.6465C816.9 86.5605 817.322 87.7207 817.322 89.1445C817.322 90.5508 816.9 91.7285 816.057 92.6426C815.213 93.5566 814.193 94.0137 812.998 94.0137C811.803 94.0137 810.783 93.5566 809.939 92.6426C809.096 91.7285 808.674 90.5508 808.674 89.1445C808.674 87.7207 809.096 86.5605 809.939 85.6465C810.783 84.7324 811.803 84.2754 812.998 84.2754ZM824.66 84.9961H830.25V97.9512H835.102V84.9961H840.691V80.3027H824.66V84.9961Z" fill="#363A45"/>
<path d="M212.512 179.951H215.16V173.834L216.836 172.029L222.355 179.951H225.602L218.641 170.107L225.121 163.146H221.758L215.16 170.236V163.146H212.512V170.236L205.914 163.146H202.551L209.031 170.107L202.07 179.951H205.316L210.836 172.029L212.512 173.834V179.951ZM236.297 168.432L230.297 175.99V168.432H227.895V179.951H230.051L236.051 172.393V179.951H238.453V168.432H236.297ZM242.316 168.432V179.951H248.082C249.301 179.951 250.273 179.646 250.977 179.014C251.68 178.393 252.043 177.584 252.043 176.588C252.043 176.213 251.973 175.85 251.832 175.521C251.691 175.193 251.539 174.936 251.375 174.748C251.211 174.561 251.012 174.385 250.789 174.221C250.555 174.057 250.402 173.963 250.32 173.916C250.227 173.881 250.168 173.857 250.121 173.846L250.449 173.623C250.672 173.459 250.895 173.178 251.105 172.779C251.316 172.381 251.434 171.936 251.434 171.443C251.434 170.576 251.105 169.85 250.461 169.287C249.805 168.725 248.938 168.443 247.836 168.443L242.316 168.432ZM248.082 174.807C248.539 174.807 248.914 174.959 249.207 175.264C249.488 175.568 249.641 175.932 249.641 176.365C249.641 176.834 249.5 177.221 249.219 177.502C248.938 177.783 248.551 177.924 248.082 177.924H244.719V174.807H248.082ZM249.043 171.678C249.043 172.053 248.926 172.346 248.715 172.557C248.492 172.768 248.199 172.885 247.836 172.885H244.719V170.482H247.836C248.199 170.482 248.492 170.588 248.715 170.799C248.926 171.01 249.043 171.303 249.043 171.678ZM265.844 175.029L265.973 173.834C265.973 172.217 265.434 170.881 264.355 169.803C263.277 168.725 261.941 168.186 260.324 168.186C258.707 168.186 257.324 168.771 256.176 169.92C255.027 171.068 254.441 172.451 254.441 174.068C254.441 175.756 255.039 177.197 256.223 178.393C257.406 179.588 258.812 180.186 260.441 180.186C261.051 180.186 261.648 180.104 262.223 179.928C262.797 179.752 263.266 179.564 263.617 179.354C263.98 179.143 264.32 178.908 264.637 178.639C264.965 178.369 265.176 178.182 265.27 178.064C265.363 177.947 265.434 177.865 265.48 177.795L263.922 176.236L263.559 176.682C263.324 176.975 262.914 177.268 262.328 177.572C261.742 177.877 261.121 178.029 260.441 178.029C259.516 178.029 258.719 177.736 258.039 177.139C257.359 176.553 256.961 175.85 256.832 175.029H265.844ZM260.312 170.236C261.203 170.236 261.93 170.494 262.516 171.01C263.102 171.525 263.465 172.182 263.605 172.99H256.938C257.148 172.182 257.547 171.525 258.133 171.01C258.719 170.494 259.445 170.236 260.312 170.236ZM267.902 170.588H271.863V179.951H274.254V170.588H278.215V168.432H267.902V170.588ZM291.547 175.029L291.676 173.834C291.676 172.217 291.137 170.881 290.059 169.803C288.98 168.725 287.645 168.186 286.027 168.186C284.41 168.186 283.027 168.771 281.879 169.92C280.73 171.068 280.145 172.451 280.145 174.068C280.145 175.756 280.742 177.197 281.926 178.393C283.109 179.588 284.516 180.186 286.145 180.186C286.754 180.186 287.352 180.104 287.926 179.928C288.5 179.752 288.969 179.564 289.32 179.354C289.684 179.143 290.023 178.908 290.34 178.639C290.668 178.369 290.879 178.182 290.973 178.064C291.066 177.947 291.137 177.865 291.184 177.795L289.625 176.236L289.262 176.682C289.027 176.975 288.617 177.268 288.031 177.572C287.445 177.877 286.824 178.029 286.145 178.029C285.219 178.029 284.422 177.736 283.742 177.139C283.062 176.553 282.664 175.85 282.535 175.029H291.547ZM286.016 170.236C286.906 170.236 287.633 170.494 288.219 171.01C288.805 171.525 289.168 172.182 289.309 172.99H282.641C282.852 172.182 283.25 171.525 283.836 171.01C284.422 170.494 285.148 170.236 286.016 170.236ZM306.223 180.186C307.746 180.186 309.059 179.611 310.184 178.439C311.309 177.268 311.871 175.85 311.871 174.186C311.871 172.521 311.309 171.115 310.184 169.943C309.059 168.771 307.746 168.186 306.223 168.186C305.543 168.186 304.887 168.338 304.242 168.619C303.586 168.912 303.164 169.146 302.965 169.322C302.766 169.51 302.613 169.65 302.508 169.756V168.432H300.105V184.99H302.508V178.627L302.672 178.803C302.766 178.896 302.93 179.025 303.152 179.189C303.375 179.354 303.633 179.506 303.926 179.658C304.207 179.811 304.559 179.939 304.969 180.033C305.367 180.139 305.789 180.186 306.223 180.186ZM305.988 170.354C306.902 170.354 307.711 170.729 308.414 171.479C309.117 172.229 309.469 173.143 309.469 174.197C309.469 175.252 309.117 176.154 308.414 176.904C307.711 177.654 306.902 178.029 305.988 178.029C305.074 178.029 304.266 177.654 303.562 176.904C302.859 176.154 302.508 175.252 302.508 174.197C302.508 173.143 302.859 172.229 303.562 171.479C304.266 170.729 305.074 170.354 305.988 170.354ZM318.84 168.432C317.539 168.432 316.496 168.807 315.699 169.557C314.902 170.307 314.504 171.244 314.504 172.393C314.504 172.908 314.598 173.377 314.762 173.822C314.926 174.268 315.113 174.607 315.312 174.854C315.512 175.111 315.734 175.334 315.992 175.521C316.25 175.709 316.438 175.838 316.543 175.885C316.648 175.943 316.73 175.979 316.789 175.99L314.27 179.951H316.906L319.191 176.354H321.711V179.951H324.102V168.432H318.84ZM321.711 170.471V174.314H318.828C318.289 174.314 317.832 174.139 317.457 173.764C317.094 173.4 316.906 172.943 316.906 172.393C316.906 171.854 317.094 171.396 317.457 171.021C317.832 170.658 318.289 170.471 318.828 170.471H321.711ZM326.289 177.795V182.834H328.691V179.951H336.73V182.834H339.121V177.795H337.445V168.432H329.043V171.795C329.043 172.568 328.973 173.295 328.832 173.986C328.691 174.689 328.539 175.252 328.375 175.674C328.211 176.096 328.012 176.494 327.789 176.857C327.566 177.232 327.414 177.467 327.32 177.572C327.227 177.678 327.168 177.748 327.121 177.795H326.289ZM331.445 170.588H335.043V177.795H329.523L329.723 177.549C329.84 177.408 330.004 177.174 330.191 176.846C330.379 176.518 330.578 176.131 330.766 175.686C330.953 175.24 331.117 174.666 331.246 173.975C331.375 173.295 331.434 172.568 331.434 171.795L331.445 170.588ZM350.918 174.197C350.918 175.275 350.555 176.178 349.852 176.916C349.137 177.666 348.293 178.029 347.32 178.029C346.336 178.029 345.492 177.666 344.777 176.916C344.062 176.178 343.711 175.275 343.711 174.197C343.711 173.119 344.062 172.217 344.777 171.467C345.492 170.729 346.336 170.354 347.32 170.354C348.293 170.354 349.137 170.729 349.852 171.467C350.555 172.217 350.918 173.119 350.918 174.197ZM341.32 174.197C341.32 175.814 341.906 177.209 343.102 178.404C344.297 179.6 345.703 180.197 347.32 180.197C348.938 180.197 350.332 179.6 351.527 178.404C352.723 177.209 353.32 175.814 353.32 174.197C353.32 172.58 352.723 171.174 351.527 169.979C350.332 168.783 348.938 168.186 347.32 168.186C345.703 168.186 344.297 168.783 343.102 169.979C341.906 171.174 341.32 172.58 341.32 174.197ZM362.574 173.471L358.379 168.432H356.457V179.951H358.859V172.393L362.574 176.834L366.301 172.393V179.951H368.703V168.432H366.781L362.574 173.471ZM377.156 174.197C377.156 175.814 377.742 177.209 378.938 178.404C380.133 179.6 381.539 180.197 383.156 180.197C383.707 180.197 384.258 180.104 384.809 179.928C385.348 179.752 385.793 179.564 386.145 179.354C386.484 179.143 386.812 178.908 387.129 178.639C387.434 178.369 387.645 178.182 387.738 178.064C387.832 177.947 387.902 177.865 387.949 177.807L386.391 176.248L386.027 176.693C385.793 176.975 385.406 177.279 384.867 177.584C384.328 177.889 383.766 178.041 383.156 178.041C382.172 178.041 381.328 177.666 380.613 176.928C379.898 176.178 379.547 175.275 379.547 174.197C379.547 173.119 379.898 172.217 380.613 171.479C381.328 170.729 382.172 170.365 383.156 170.365C383.766 170.365 384.328 170.518 384.867 170.834C385.406 171.139 385.746 171.385 385.91 171.572C386.074 171.76 386.191 171.912 386.273 172.041L387.832 170.482L387.328 169.932C386.988 169.545 386.438 169.158 385.664 168.771C384.891 168.385 384.047 168.197 383.156 168.197C381.539 168.197 380.133 168.795 378.938 169.99C377.742 171.186 377.156 172.58 377.156 174.197ZM402.262 173.471L398.066 168.432H396.145V179.951H398.547V172.393L402.262 176.834L405.988 172.393V179.951H408.391V168.432H406.469L402.262 173.471ZM422.93 175.029L423.059 173.834C423.059 172.217 422.52 170.881 421.441 169.803C420.363 168.725 419.027 168.186 417.41 168.186C415.793 168.186 414.41 168.771 413.262 169.92C412.113 171.068 411.527 172.451 411.527 174.068C411.527 175.756 412.125 177.197 413.309 178.393C414.492 179.588 415.898 180.186 417.527 180.186C418.137 180.186 418.734 180.104 419.309 179.928C419.883 179.752 420.352 179.564 420.703 179.354C421.066 179.143 421.406 178.908 421.723 178.639C422.051 178.369 422.262 178.182 422.355 178.064C422.449 177.947 422.52 177.865 422.566 177.795L421.008 176.236L420.645 176.682C420.41 176.975 420 177.268 419.414 177.572C418.828 177.877 418.207 178.029 417.527 178.029C416.602 178.029 415.805 177.736 415.125 177.139C414.445 176.553 414.047 175.85 413.918 175.029H422.93ZM417.398 170.236C418.289 170.236 419.016 170.494 419.602 171.01C420.188 171.525 420.551 172.182 420.691 172.99H414.023C414.234 172.182 414.633 171.525 415.219 171.01C415.805 170.494 416.531 170.236 417.398 170.236ZM424.988 170.588H428.949V179.951H431.34V170.588H435.301V168.432H424.988V170.588ZM444.074 180.186C445.598 180.186 446.91 179.611 448.035 178.439C449.16 177.268 449.723 175.85 449.723 174.186C449.723 172.521 449.16 171.115 448.035 169.943C446.91 168.771 445.598 168.186 444.074 168.186C443.395 168.186 442.738 168.338 442.094 168.619C441.438 168.912 441.016 169.146 440.816 169.322C440.617 169.51 440.465 169.65 440.359 169.756V168.432H437.957V184.99H440.359V178.627L440.523 178.803C440.617 178.896 440.781 179.025 441.004 179.189C441.227 179.354 441.484 179.506 441.777 179.658C442.059 179.811 442.41 179.939 442.82 180.033C443.219 180.139 443.641 180.186 444.074 180.186ZM443.84 170.354C444.754 170.354 445.562 170.729 446.266 171.479C446.969 172.229 447.32 173.143 447.32 174.197C447.32 175.252 446.969 176.154 446.266 176.904C445.562 177.654 444.754 178.029 443.84 178.029C442.926 178.029 442.117 177.654 441.414 176.904C440.711 176.154 440.359 175.252 440.359 174.197C440.359 173.143 440.711 172.229 441.414 171.479C442.117 170.729 442.926 170.354 443.84 170.354ZM461.73 174.197C461.73 175.275 461.367 176.178 460.664 176.916C459.949 177.666 459.105 178.029 458.133 178.029C457.148 178.029 456.305 177.666 455.59 176.916C454.875 176.178 454.523 175.275 454.523 174.197C454.523 173.119 454.875 172.217 455.59 171.467C456.305 170.729 457.148 170.354 458.133 170.354C459.105 170.354 459.949 170.729 460.664 171.467C461.367 172.217 461.73 173.119 461.73 174.197ZM452.133 174.197C452.133 175.814 452.719 177.209 453.914 178.404C455.109 179.6 456.516 180.197 458.133 180.197C459.75 180.197 461.145 179.6 462.34 178.404C463.535 177.209 464.133 175.814 464.133 174.197C464.133 172.58 463.535 171.174 462.34 169.979C461.145 168.783 459.75 168.186 458.133 168.186C456.516 168.186 455.109 168.783 453.914 169.979C452.719 171.174 452.133 172.58 452.133 174.197ZM471.496 179.951H474.25L476.055 175.51H483.496L485.301 179.951H488.055L481.094 163.146H478.457L471.496 179.951ZM479.781 166.146L482.535 173.107H477.016L479.781 166.146ZM500.449 174.197C500.449 172.58 499.852 171.174 498.656 169.979C497.461 168.783 496.066 168.186 494.449 168.186C493.887 168.186 493.336 168.279 492.797 168.443C492.258 168.607 491.824 168.795 491.484 168.994C491.156 169.205 490.84 169.428 490.535 169.686C490.242 169.943 490.055 170.119 489.961 170.225C489.867 170.33 489.797 170.412 489.75 170.471L491.32 172.029L491.625 171.596C491.859 171.326 492.234 171.057 492.75 170.775C493.266 170.494 493.828 170.354 494.438 170.354C494.93 170.354 495.387 170.459 495.809 170.646C496.23 170.834 496.547 171.045 496.77 171.279C496.992 171.514 497.191 171.771 497.367 172.076C497.543 172.381 497.66 172.604 497.707 172.721C497.754 172.838 497.789 172.932 497.801 172.99H492.633V175.029H497.918L497.824 175.346C497.777 175.557 497.672 175.803 497.508 176.096C497.344 176.4 497.145 176.693 496.91 176.975C496.676 177.268 496.336 177.514 495.902 177.725C495.48 177.936 494.988 178.029 494.438 178.029C494.062 178.029 493.688 177.971 493.312 177.842C492.938 177.713 492.645 177.572 492.41 177.408C492.176 177.244 491.965 177.068 491.754 176.857C491.543 176.646 491.414 176.506 491.344 176.424C491.273 176.354 491.227 176.283 491.191 176.236L489.633 177.795L489.855 178.029C489.984 178.217 490.195 178.416 490.477 178.65C490.77 178.885 491.098 179.107 491.449 179.342C491.812 179.576 492.258 179.775 492.797 179.939C493.336 180.104 493.875 180.186 494.438 180.186C496.055 180.186 497.461 179.6 498.656 178.404C499.852 177.209 500.449 175.814 500.449 174.197ZM509.691 180.186C511.215 180.186 512.527 179.611 513.652 178.439C514.777 177.268 515.34 175.85 515.34 174.186C515.34 172.521 514.777 171.115 513.652 169.943C512.527 168.771 511.215 168.186 509.691 168.186C509.012 168.186 508.355 168.338 507.711 168.619C507.055 168.912 506.633 169.146 506.434 169.322C506.234 169.51 506.082 169.65 505.977 169.756V168.432H503.574V184.99H505.977V178.627L506.141 178.803C506.234 178.896 506.398 179.025 506.621 179.189C506.844 179.354 507.102 179.506 507.395 179.658C507.676 179.811 508.027 179.939 508.438 180.033C508.836 180.139 509.258 180.186 509.691 180.186ZM509.457 170.354C510.371 170.354 511.18 170.729 511.883 171.479C512.586 172.229 512.938 173.143 512.938 174.197C512.938 175.252 512.586 176.154 511.883 176.904C511.18 177.654 510.371 178.029 509.457 178.029C508.543 178.029 507.734 177.654 507.031 176.904C506.328 176.154 505.977 175.252 505.977 174.197C505.977 173.143 506.328 172.229 507.031 171.479C507.734 170.729 508.543 170.354 509.457 170.354ZM527.348 174.197C527.348 175.275 526.984 176.178 526.281 176.916C525.566 177.666 524.723 178.029 523.75 178.029C522.766 178.029 521.922 177.666 521.207 176.916C520.492 176.178 520.141 175.275 520.141 174.197C520.141 173.119 520.492 172.217 521.207 171.467C521.922 170.729 522.766 170.354 523.75 170.354C524.723 170.354 525.566 170.729 526.281 171.467C526.984 172.217 527.348 173.119 527.348 174.197ZM517.75 174.197C517.75 175.814 518.336 177.209 519.531 178.404C520.727 179.6 522.133 180.197 523.75 180.197C525.367 180.197 526.762 179.6 527.957 178.404C529.152 177.209 529.75 175.814 529.75 174.197C529.75 172.58 529.152 171.174 527.957 169.979C526.762 168.783 525.367 168.186 523.75 168.186C522.133 168.186 520.727 168.783 519.531 169.979C518.336 171.174 517.75 172.58 517.75 174.197ZM535.289 170.588H540.926V179.951H543.328V168.432H532.887V179.951H535.289V170.588ZM556.074 174.197C556.074 175.275 555.711 176.178 555.008 176.916C554.293 177.666 553.449 178.029 552.477 178.029C551.492 178.029 550.648 177.666 549.934 176.916C549.219 176.178 548.867 175.275 548.867 174.197C548.867 173.119 549.219 172.217 549.934 171.467C550.648 170.729 551.492 170.354 552.477 170.354C553.449 170.354 554.293 170.729 555.008 171.467C555.711 172.217 556.074 173.119 556.074 174.197ZM546.477 174.197C546.477 175.814 547.062 177.209 548.258 178.404C549.453 179.6 550.859 180.197 552.477 180.197C554.094 180.197 555.488 179.6 556.684 178.404C557.879 177.209 558.477 175.814 558.477 174.197C558.477 172.58 557.879 171.174 556.684 169.979C555.488 168.783 554.094 168.186 552.477 168.186C550.859 168.186 549.453 168.783 548.258 169.979C547.062 171.174 546.477 172.58 546.477 174.197ZM567.73 180.186C569.254 180.186 570.566 179.611 571.691 178.439C572.816 177.268 573.379 175.85 573.379 174.186C573.379 172.521 572.816 171.115 571.691 169.943C570.566 168.771 569.254 168.186 567.73 168.186C567.051 168.186 566.395 168.338 565.75 168.619C565.094 168.912 564.672 169.146 564.473 169.322C564.273 169.51 564.121 169.65 564.016 169.756V168.432H561.613V184.99H564.016V178.627L564.18 178.803C564.273 178.896 564.438 179.025 564.66 179.189C564.883 179.354 565.141 179.506 565.434 179.658C565.715 179.811 566.066 179.939 566.477 180.033C566.875 180.139 567.297 180.186 567.73 180.186ZM567.496 170.354C568.41 170.354 569.219 170.729 569.922 171.479C570.625 172.229 570.977 173.143 570.977 174.197C570.977 175.252 570.625 176.154 569.922 176.904C569.219 177.654 568.41 178.029 567.496 178.029C566.582 178.029 565.773 177.654 565.07 176.904C564.367 176.154 564.016 175.252 564.016 174.197C564.016 173.143 564.367 172.229 565.07 171.479C565.773 170.729 566.582 170.354 567.496 170.354ZM575.309 170.588H579.27V179.951H581.66V170.588H585.621V168.432H575.309V170.588ZM591.641 174.432C591.641 174.76 591.676 175.111 591.758 175.51H593.914V175.275C593.914 174.607 594.066 174.021 594.395 173.529C594.711 173.037 595.098 172.627 595.566 172.299C596.035 171.971 596.492 171.619 596.949 171.244C597.406 170.869 597.793 170.377 598.121 169.744C598.438 169.111 598.602 168.361 598.602 167.471C598.602 166.229 598.086 165.15 597.078 164.26C596.059 163.369 594.77 162.912 593.199 162.912C592.344 162.912 591.57 163.064 590.879 163.346C590.176 163.639 589.648 163.955 589.285 164.295C588.91 164.646 588.594 165.045 588.312 165.49C588.031 165.947 587.855 166.264 587.809 166.439C587.75 166.627 587.703 166.768 587.68 166.873L589.836 167.717L589.93 167.471C589.977 167.307 590.082 167.096 590.234 166.861C590.375 166.627 590.574 166.404 590.809 166.17C591.043 165.936 591.371 165.736 591.793 165.572C592.215 165.408 592.684 165.314 593.199 165.314C594.008 165.314 594.664 165.549 595.18 166.018C595.695 166.486 595.953 167.049 595.953 167.717C595.953 168.244 595.801 168.725 595.508 169.158C595.215 169.592 594.852 169.979 594.43 170.307C594.008 170.646 593.586 170.986 593.164 171.326C592.742 171.678 592.379 172.111 592.086 172.65C591.781 173.189 591.641 173.775 591.641 174.432ZM591.277 178.639C591.277 179.061 591.43 179.424 591.746 179.729C592.051 180.033 592.414 180.186 592.836 180.186C593.246 180.186 593.609 180.033 593.926 179.729C594.23 179.424 594.395 179.061 594.395 178.639C594.395 178.217 594.23 177.854 593.926 177.537C593.609 177.232 593.246 177.068 592.836 177.068C592.414 177.068 592.051 177.232 591.746 177.537C591.43 177.854 591.277 178.217 591.277 178.639ZM212.395 207.068L212.641 206.951C212.805 206.881 213.016 206.74 213.25 206.553C213.484 206.365 213.707 206.131 213.941 205.861C214.176 205.604 214.375 205.24 214.539 204.795C214.703 204.35 214.797 203.869 214.797 203.354C214.797 202.088 214.281 201.033 213.25 200.189C212.219 199.346 210.812 198.912 209.02 198.912C208.34 198.912 207.66 199.006 206.992 199.193C206.336 199.381 205.797 199.58 205.387 199.791C204.988 200.002 204.602 200.26 204.227 200.553C203.863 200.857 203.629 201.057 203.512 201.174C203.395 201.291 203.312 201.373 203.266 201.432L204.941 203.107L205.422 202.65C205.762 202.369 206.266 202.076 206.945 201.771C207.625 201.467 208.316 201.314 209.02 201.314C210.004 201.314 210.766 201.537 211.316 201.971C211.879 202.416 212.148 202.943 212.148 203.564C212.148 204.209 211.879 204.76 211.316 205.205C210.766 205.65 210.004 205.873 209.02 205.873H206.98V208.275H209.02C210.227 208.275 211.164 208.545 211.844 209.084C212.523 209.623 212.863 210.268 212.863 211.029C212.863 211.803 212.523 212.447 211.844 212.986C211.164 213.525 210.227 213.795 209.02 213.795C208.469 213.795 207.918 213.725 207.367 213.584C206.828 213.443 206.383 213.279 206.031 213.092C205.691 212.904 205.363 212.693 205.059 212.459C204.754 212.225 204.543 212.061 204.449 211.967C204.355 211.873 204.273 211.803 204.227 211.756L202.539 213.432L202.785 213.725C202.961 213.912 203.23 214.146 203.605 214.416C203.98 214.697 204.402 214.967 204.883 215.225C205.363 215.482 205.973 215.717 206.723 215.904C207.461 216.092 208.234 216.186 209.031 216.186C211 216.186 212.57 215.693 213.742 214.709C214.914 213.725 215.512 212.541 215.512 211.146C215.512 210.584 215.395 210.045 215.172 209.541C214.949 209.037 214.703 208.639 214.434 208.357C214.152 208.076 213.836 207.83 213.484 207.619C213.121 207.408 212.863 207.268 212.723 207.209C212.582 207.15 212.465 207.104 212.395 207.068ZM228.258 215.951V208.51C228.258 207.291 227.801 206.271 226.91 205.439C226.008 204.607 224.859 204.186 223.453 204.186C222.891 204.186 222.34 204.268 221.812 204.42C221.285 204.572 220.863 204.748 220.547 204.936C220.219 205.135 219.914 205.357 219.633 205.604C219.352 205.85 219.164 206.025 219.082 206.119C219 206.213 218.941 206.295 218.895 206.354L220.453 207.912L220.77 207.502C220.957 207.244 221.297 206.998 221.789 206.74C222.281 206.482 222.844 206.354 223.453 206.354C224.156 206.354 224.73 206.564 225.176 206.975C225.621 207.396 225.855 207.9 225.855 208.51L221.648 209.236C220.605 209.412 219.785 209.822 219.188 210.455C218.59 211.1 218.297 211.896 218.297 212.846C218.297 213.713 218.684 214.498 219.457 215.178C220.23 215.857 221.203 216.197 222.375 216.197C222.773 216.197 223.16 216.139 223.559 216.045C223.945 215.939 224.273 215.822 224.531 215.693C224.789 215.564 225.023 215.424 225.246 215.26C225.469 215.096 225.621 214.99 225.691 214.92C225.762 214.85 225.82 214.791 225.855 214.768V215.963L228.258 215.951ZM222.738 214.041C222.105 214.041 221.613 213.889 221.238 213.607C220.863 213.314 220.688 212.975 220.688 212.588C220.688 212.178 220.816 211.838 221.086 211.568C221.344 211.287 221.695 211.111 222.129 211.041L225.855 210.443V210.678C225.855 211.756 225.574 212.576 225.023 213.162C224.473 213.748 223.711 214.041 222.738 214.041ZM242.328 204.432H239.445L234.523 209.588V204.432H232.121V215.951H234.523V212.717L236.328 210.795L240.043 215.951H242.68L237.887 209.236L242.328 204.432ZM254.336 215.951V208.51C254.336 207.291 253.879 206.271 252.988 205.439C252.086 204.607 250.938 204.186 249.531 204.186C248.969 204.186 248.418 204.268 247.891 204.42C247.363 204.572 246.941 204.748 246.625 204.936C246.297 205.135 245.992 205.357 245.711 205.604C245.43 205.85 245.242 206.025 245.16 206.119C245.078 206.213 245.02 206.295 244.973 206.354L246.531 207.912L246.848 207.502C247.035 207.244 247.375 206.998 247.867 206.74C248.359 206.482 248.922 206.354 249.531 206.354C250.234 206.354 250.809 206.564 251.254 206.975C251.699 207.396 251.934 207.9 251.934 208.51L247.727 209.236C246.684 209.412 245.863 209.822 245.266 210.455C244.668 211.1 244.375 211.896 244.375 212.846C244.375 213.713 244.762 214.498 245.535 215.178C246.309 215.857 247.281 216.197 248.453 216.197C248.852 216.197 249.238 216.139 249.637 216.045C250.023 215.939 250.352 215.822 250.609 215.693C250.867 215.564 251.102 215.424 251.324 215.26C251.547 215.096 251.699 214.99 251.77 214.92C251.84 214.85 251.898 214.791 251.934 214.768V215.963L254.336 215.951ZM248.816 214.041C248.184 214.041 247.691 213.889 247.316 213.607C246.941 213.314 246.766 212.975 246.766 212.588C246.766 212.178 246.895 211.838 247.164 211.568C247.422 211.287 247.773 211.111 248.207 211.041L251.934 210.443V210.678C251.934 211.756 251.652 212.576 251.102 213.162C250.551 213.748 249.789 214.041 248.816 214.041ZM266.836 209.107V204.432H264.445V209.107L260.004 204.432H257.121L261.562 209.236L256.758 215.951H259.406L263.121 210.795L264.445 212.236V215.951H266.836V212.236L268.16 210.795L271.875 215.951H274.523L269.719 209.236L274.16 204.432H271.277L266.836 209.107ZM285.336 204.432L279.336 211.99V204.432H276.934V215.951H279.09L285.09 208.393V215.951H287.492V204.432H285.336ZM290.16 206.588H294.121V215.951H296.512V206.588H300.473V204.432H290.16V206.588ZM313.805 211.029L313.934 209.834C313.934 208.217 313.395 206.881 312.316 205.803C311.238 204.725 309.902 204.186 308.285 204.186C306.668 204.186 305.285 204.771 304.137 205.92C302.988 207.068 302.402 208.451 302.402 210.068C302.402 211.756 303 213.197 304.184 214.393C305.367 215.588 306.773 216.186 308.402 216.186C309.012 216.186 309.609 216.104 310.184 215.928C310.758 215.752 311.227 215.564 311.578 215.354C311.941 215.143 312.281 214.908 312.598 214.639C312.926 214.369 313.137 214.182 313.23 214.064C313.324 213.947 313.395 213.865 313.441 213.795L311.883 212.236L311.52 212.682C311.285 212.975 310.875 213.268 310.289 213.572C309.703 213.877 309.082 214.029 308.402 214.029C307.477 214.029 306.68 213.736 306 213.139C305.32 212.553 304.922 211.85 304.793 211.029H313.805ZM308.273 206.236C309.164 206.236 309.891 206.494 310.477 207.01C311.062 207.525 311.426 208.182 311.566 208.99H304.898C305.109 208.182 305.508 207.525 306.094 207.01C306.68 206.494 307.406 206.236 308.273 206.236ZM332.57 204.432H329.688L324.766 209.588V204.432H322.363V215.951H324.766V212.717L326.57 210.795L330.285 215.951H332.922L328.129 209.236L332.57 204.432ZM338.098 217.146C337.652 218.271 336.973 218.834 336.059 218.834C335.648 218.834 335.25 218.752 334.852 218.588V220.756L335.016 220.803C335.145 220.85 335.355 220.896 335.637 220.932C335.918 220.979 336.211 220.99 336.539 220.99C337.406 220.99 338.133 220.709 338.719 220.135C339.305 219.572 339.891 218.576 340.488 217.146L345.656 204.432H343.137L339.773 212.834L336.41 204.432H333.891L338.578 215.951L338.098 217.146ZM354.184 216.186C355.707 216.186 357.02 215.611 358.145 214.439C359.27 213.268 359.832 211.85 359.832 210.186C359.832 208.521 359.27 207.115 358.145 205.943C357.02 204.771 355.707 204.186 354.184 204.186C353.504 204.186 352.848 204.338 352.203 204.619C351.547 204.912 351.125 205.146 350.926 205.322C350.727 205.51 350.574 205.65 350.469 205.756V204.432H348.066V220.99H350.469V214.627L350.633 214.803C350.727 214.896 350.891 215.025 351.113 215.189C351.336 215.354 351.594 215.506 351.887 215.658C352.168 215.811 352.52 215.939 352.93 216.033C353.328 216.139 353.75 216.186 354.184 216.186ZM353.949 206.354C354.863 206.354 355.672 206.729 356.375 207.479C357.078 208.229 357.43 209.143 357.43 210.197C357.43 211.252 357.078 212.154 356.375 212.904C355.672 213.654 354.863 214.029 353.949 214.029C353.035 214.029 352.227 213.654 351.523 212.904C350.82 212.154 350.469 211.252 350.469 210.197C350.469 209.143 350.82 208.229 351.523 207.479C352.227 206.729 353.035 206.354 353.949 206.354ZM365.359 213.912V210.068H367.996C368.535 210.068 368.992 210.256 369.367 210.619C369.73 210.994 369.918 211.451 369.918 211.99C369.918 212.541 369.73 212.998 369.367 213.361C368.992 213.736 368.535 213.912 367.996 213.912H365.359ZM372.32 212.002C372.32 210.854 371.922 209.904 371.125 209.154C370.328 208.404 369.285 208.029 367.984 208.029H365.348V204.432H362.945V215.951H367.984C369.285 215.951 370.328 215.588 371.125 214.838C371.922 214.1 372.32 213.15 372.32 212.002ZM386.133 211.029L386.262 209.834C386.262 208.217 385.723 206.881 384.645 205.803C383.566 204.725 382.23 204.186 380.613 204.186C378.996 204.186 377.613 204.771 376.465 205.92C375.316 207.068 374.73 208.451 374.73 210.068C374.73 211.756 375.328 213.197 376.512 214.393C377.695 215.588 379.102 216.186 380.73 216.186C381.34 216.186 381.938 216.104 382.512 215.928C383.086 215.752 383.555 215.564 383.906 215.354C384.27 215.143 384.609 214.908 384.926 214.639C385.254 214.369 385.465 214.182 385.559 214.064C385.652 213.947 385.723 213.865 385.77 213.795L384.211 212.236L383.848 212.682C383.613 212.975 383.203 213.268 382.617 213.572C382.031 213.877 381.41 214.029 380.73 214.029C379.805 214.029 379.008 213.736 378.328 213.139C377.648 212.553 377.25 211.85 377.121 211.029H386.133ZM380.602 206.236C381.492 206.236 382.219 206.494 382.805 207.01C383.391 207.525 383.754 208.182 383.895 208.99H377.227C377.438 208.182 377.836 207.525 378.422 207.01C379.008 206.494 379.734 206.236 380.602 206.236ZM395.504 216.186C397.027 216.186 398.34 215.611 399.465 214.439C400.59 213.268 401.152 211.85 401.152 210.186C401.152 208.521 400.59 207.115 399.465 205.943C398.34 204.771 397.027 204.186 395.504 204.186C394.824 204.186 394.168 204.338 393.523 204.619C392.867 204.912 392.445 205.146 392.246 205.322C392.047 205.51 391.895 205.65 391.789 205.756V204.432H389.387V220.99H391.789V214.627L391.953 214.803C392.047 214.896 392.211 215.025 392.434 215.189C392.656 215.354 392.914 215.506 393.207 215.658C393.488 215.811 393.84 215.939 394.25 216.033C394.648 216.139 395.07 216.186 395.504 216.186ZM395.27 206.354C396.184 206.354 396.992 206.729 397.695 207.479C398.398 208.229 398.75 209.143 398.75 210.197C398.75 211.252 398.398 212.154 397.695 212.904C396.992 213.654 396.184 214.029 395.27 214.029C394.355 214.029 393.547 213.654 392.844 212.904C392.141 212.154 391.789 211.252 391.789 210.197C391.789 209.143 392.141 208.229 392.844 207.479C393.547 206.729 394.355 206.354 395.27 206.354ZM413.523 215.951V208.51C413.523 207.291 413.066 206.271 412.176 205.439C411.273 204.607 410.125 204.186 408.719 204.186C408.156 204.186 407.605 204.268 407.078 204.42C406.551 204.572 406.129 204.748 405.812 204.936C405.484 205.135 405.18 205.357 404.898 205.604C404.617 205.85 404.43 206.025 404.348 206.119C404.266 206.213 404.207 206.295 404.16 206.354L405.719 207.912L406.035 207.502C406.223 207.244 406.562 206.998 407.055 206.74C407.547 206.482 408.109 206.354 408.719 206.354C409.422 206.354 409.996 206.564 410.441 206.975C410.887 207.396 411.121 207.9 411.121 208.51L406.914 209.236C405.871 209.412 405.051 209.822 404.453 210.455C403.855 211.1 403.562 211.896 403.562 212.846C403.562 213.713 403.949 214.498 404.723 215.178C405.496 215.857 406.469 216.197 407.641 216.197C408.039 216.197 408.426 216.139 408.824 216.045C409.211 215.939 409.539 215.822 409.797 215.693C410.055 215.564 410.289 215.424 410.512 215.26C410.734 215.096 410.887 214.99 410.957 214.92C411.027 214.85 411.086 214.791 411.121 214.768V215.963L413.523 215.951ZM408.004 214.041C407.371 214.041 406.879 213.889 406.504 213.607C406.129 213.314 405.953 212.975 405.953 212.588C405.953 212.178 406.082 211.838 406.352 211.568C406.609 211.287 406.961 211.111 407.395 211.041L411.121 210.443V210.678C411.121 211.756 410.84 212.576 410.289 213.162C409.738 213.748 408.977 214.041 408.004 214.041ZM431.094 204.432L425.094 211.99V204.432H422.691V215.951H424.848L430.848 208.393V215.951H433.25V204.432H431.094ZM451.301 210.197C451.301 211.275 450.938 212.178 450.234 212.916C449.52 213.666 448.676 214.029 447.703 214.029C446.719 214.029 445.875 213.666 445.16 212.916C444.445 212.178 444.094 211.275 444.094 210.197C444.094 209.119 444.445 208.217 445.16 207.467C445.875 206.729 446.719 206.354 447.703 206.354C448.676 206.354 449.52 206.729 450.234 207.467C450.938 208.217 451.301 209.119 451.301 210.197ZM441.703 210.197C441.703 211.814 442.289 213.209 443.484 214.404C444.68 215.6 446.086 216.197 447.703 216.197C449.32 216.197 450.715 215.6 451.91 214.404C453.105 213.209 453.703 211.814 453.703 210.197C453.703 208.58 453.105 207.174 451.91 205.979C450.715 204.783 449.32 204.186 447.703 204.186C446.086 204.186 444.68 204.783 443.484 205.979C442.289 207.174 441.703 208.58 441.703 210.197ZM459.242 211.146H464.879V215.951H467.281V204.432H464.879V208.99H459.242V204.432H456.84V215.951H459.242V211.146ZM484.125 207.432C484.125 206.553 483.738 205.791 482.965 205.146C482.191 204.514 481.137 204.186 479.812 204.186C478.992 204.186 478.219 204.35 477.492 204.654C476.766 204.971 476.297 205.217 476.086 205.404C475.875 205.592 475.711 205.756 475.605 205.873L477.176 207.432L477.48 207.162C477.691 206.975 478.008 206.799 478.453 206.623C478.898 206.447 479.344 206.354 479.812 206.354C480.434 206.354 480.914 206.482 481.242 206.729C481.57 206.975 481.734 207.291 481.734 207.678C481.734 208.064 481.57 208.381 481.242 208.627C480.914 208.873 480.434 208.99 479.812 208.99H478.488V210.912H479.812C480.609 210.912 481.207 211.064 481.605 211.357C482.004 211.662 482.215 212.025 482.215 212.471C482.215 212.916 482.004 213.291 481.605 213.584C481.207 213.889 480.609 214.029 479.812 214.029C479.273 214.029 478.746 213.9 478.219 213.643C477.691 213.385 477.352 213.162 477.188 212.998C477.023 212.834 476.906 212.705 476.812 212.588L475.254 214.146L475.418 214.369C475.535 214.51 475.734 214.686 475.992 214.885C476.25 215.084 476.543 215.283 476.895 215.471C477.234 215.67 477.668 215.834 478.184 215.975C478.699 216.115 479.238 216.186 479.801 216.186C481.289 216.186 482.461 215.857 483.316 215.178C484.172 214.498 484.594 213.678 484.594 212.717C484.594 212.283 484.512 211.885 484.348 211.533C484.184 211.182 483.996 210.912 483.797 210.713C483.598 210.514 483.375 210.338 483.117 210.197C482.859 210.057 482.684 209.963 482.578 209.928C482.473 209.881 482.391 209.857 482.32 209.846L482.777 209.623C483.082 209.494 483.387 209.236 483.68 208.838C483.973 208.439 484.125 207.971 484.125 207.432ZM497 215.951V208.51C497 207.291 496.543 206.271 495.652 205.439C494.75 204.607 493.602 204.186 492.195 204.186C491.633 204.186 491.082 204.268 490.555 204.42C490.027 204.572 489.605 204.748 489.289 204.936C488.961 205.135 488.656 205.357 488.375 205.604C488.094 205.85 487.906 206.025 487.824 206.119C487.742 206.213 487.684 206.295 487.637 206.354L489.195 207.912L489.512 207.502C489.699 207.244 490.039 206.998 490.531 206.74C491.023 206.482 491.586 206.354 492.195 206.354C492.898 206.354 493.473 206.564 493.918 206.975C494.363 207.396 494.598 207.9 494.598 208.51L490.391 209.236C489.348 209.412 488.527 209.822 487.93 210.455C487.332 211.1 487.039 211.896 487.039 212.846C487.039 213.713 487.426 214.498 488.199 215.178C488.973 215.857 489.945 216.197 491.117 216.197C491.516 216.197 491.902 216.139 492.301 216.045C492.688 215.939 493.016 215.822 493.273 215.693C493.531 215.564 493.766 215.424 493.988 215.26C494.211 215.096 494.363 214.99 494.434 214.92C494.504 214.85 494.562 214.791 494.598 214.768V215.963L497 215.951ZM491.48 214.041C490.848 214.041 490.355 213.889 489.98 213.607C489.605 213.314 489.43 212.975 489.43 212.588C489.43 212.178 489.559 211.838 489.828 211.568C490.086 211.287 490.438 211.111 490.871 211.041L494.598 210.443V210.678C494.598 211.756 494.316 212.576 493.766 213.162C493.215 213.748 492.453 214.041 491.48 214.041ZM512.383 210.314C512.383 208.721 511.82 207.338 510.707 206.178C509.594 205.018 508.316 204.432 506.863 204.432C506.418 204.432 505.973 204.502 505.539 204.631C505.105 204.76 504.754 204.9 504.473 205.064C504.191 205.229 503.934 205.404 503.688 205.615C503.43 205.826 503.266 205.967 503.184 206.049C503.102 206.131 503.043 206.201 503.02 206.248C503.137 205.006 503.523 204.021 504.203 203.295C504.871 202.557 505.762 202.1 506.863 201.924C508.141 201.713 509.195 201.455 510.027 201.15C510.859 200.846 511.352 200.635 511.492 200.518C511.633 200.4 511.738 200.307 511.785 200.248L510.707 198.443L510.32 198.678C510.062 198.818 509.594 199.006 508.914 199.229C508.234 199.439 507.473 199.627 506.617 199.768C504.695 200.084 503.219 200.939 502.176 202.346C501.145 203.74 500.617 205.838 500.617 208.639C500.617 211.088 501.168 212.963 502.27 214.252C503.371 215.541 504.812 216.186 506.617 216.186C508.188 216.186 509.535 215.611 510.672 214.463C511.809 213.314 512.383 211.932 512.383 210.314ZM503.254 210.314C503.254 209.26 503.594 208.381 504.25 207.666C504.918 206.951 505.703 206.588 506.617 206.588C507.531 206.588 508.316 206.951 508.984 207.666C509.641 208.381 509.98 209.26 509.98 210.314C509.98 211.369 509.641 212.26 508.984 212.963C508.316 213.678 507.531 214.029 506.617 214.029C505.703 214.029 504.918 213.678 504.25 212.963C503.594 212.26 503.254 211.369 503.254 210.314ZM526.43 211.029L526.559 209.834C526.559 208.217 526.02 206.881 524.941 205.803C523.863 204.725 522.527 204.186 520.91 204.186C519.293 204.186 517.91 204.771 516.762 205.92C515.613 207.068 515.027 208.451 515.027 210.068C515.027 211.756 515.625 213.197 516.809 214.393C517.992 215.588 519.398 216.186 521.027 216.186C521.637 216.186 522.234 216.104 522.809 215.928C523.383 215.752 523.852 215.564 524.203 215.354C524.566 215.143 524.906 214.908 525.223 214.639C525.551 214.369 525.762 214.182 525.855 214.064C525.949 213.947 526.02 213.865 526.066 213.795L524.508 212.236L524.145 212.682C523.91 212.975 523.5 213.268 522.914 213.572C522.328 213.877 521.707 214.029 521.027 214.029C520.102 214.029 519.305 213.736 518.625 213.139C517.945 212.553 517.547 211.85 517.418 211.029H526.43ZM520.898 206.236C521.789 206.236 522.516 206.494 523.102 207.01C523.688 207.525 524.051 208.182 524.191 208.99H517.523C517.734 208.182 518.133 207.525 518.719 207.01C519.305 206.494 520.031 206.236 520.898 206.236ZM535.801 216.186C537.324 216.186 538.637 215.611 539.762 214.439C540.887 213.268 541.449 211.85 541.449 210.186C541.449 208.521 540.887 207.115 539.762 205.943C538.637 204.771 537.324 204.186 535.801 204.186C535.121 204.186 534.465 204.338 533.82 204.619C533.164 204.912 532.742 205.146 532.543 205.322C532.344 205.51 532.191 205.65 532.086 205.756V204.432H529.684V220.99H532.086V214.627L532.25 214.803C532.344 214.896 532.508 215.025 532.73 215.189C532.953 215.354 533.211 215.506 533.504 215.658C533.785 215.811 534.137 215.939 534.547 216.033C534.945 216.139 535.367 216.186 535.801 216.186ZM535.566 206.354C536.48 206.354 537.289 206.729 537.992 207.479C538.695 208.229 539.047 209.143 539.047 210.197C539.047 211.252 538.695 212.154 537.992 212.904C537.289 213.654 536.48 214.029 535.566 214.029C534.652 214.029 533.844 213.654 533.141 212.904C532.438 212.154 532.086 211.252 532.086 210.197C532.086 209.143 532.438 208.229 533.141 207.479C533.844 206.729 534.652 206.354 535.566 206.354ZM555.25 211.029L555.379 209.834C555.379 208.217 554.84 206.881 553.762 205.803C552.684 204.725 551.348 204.186 549.73 204.186C548.113 204.186 546.73 204.771 545.582 205.92C544.434 207.068 543.848 208.451 543.848 210.068C543.848 211.756 544.445 213.197 545.629 214.393C546.812 215.588 548.219 216.186 549.848 216.186C550.457 216.186 551.055 216.104 551.629 215.928C552.203 215.752 552.672 215.564 553.023 215.354C553.387 215.143 553.727 214.908 554.043 214.639C554.371 214.369 554.582 214.182 554.676 214.064C554.77 213.947 554.84 213.865 554.887 213.795L553.328 212.236L552.965 212.682C552.73 212.975 552.32 213.268 551.734 213.572C551.148 213.877 550.527 214.029 549.848 214.029C548.922 214.029 548.125 213.736 547.445 213.139C546.766 212.553 546.367 211.85 546.238 211.029H555.25ZM549.719 206.236C550.609 206.236 551.336 206.494 551.922 207.01C552.508 207.525 552.871 208.182 553.012 208.99H546.344C546.555 208.182 546.953 207.525 547.539 207.01C548.125 206.494 548.852 206.236 549.719 206.236ZM557.309 206.588H561.27V215.951H563.66V206.588H567.621V204.432H557.309V206.588ZM578.348 217.146C577.902 218.271 577.223 218.834 576.309 218.834C575.898 218.834 575.5 218.752 575.102 218.588V220.756L575.266 220.803C575.395 220.85 575.605 220.896 575.887 220.932C576.168 220.979 576.461 220.99 576.789 220.99C577.656 220.99 578.383 220.709 578.969 220.135C579.555 219.572 580.141 218.576 580.738 217.146L585.906 204.432H583.387L580.023 212.834L576.66 204.432H574.141L578.828 215.951L578.348 217.146ZM593.621 204.432V215.951H599.387C600.605 215.951 601.578 215.646 602.281 215.014C602.984 214.393 603.348 213.584 603.348 212.588C603.348 212.213 603.277 211.85 603.137 211.521C602.996 211.193 602.844 210.936 602.68 210.748C602.516 210.561 602.316 210.385 602.094 210.221C601.859 210.057 601.707 209.963 601.625 209.916C601.531 209.881 601.473 209.857 601.426 209.846L601.754 209.623C601.977 209.459 602.199 209.178 602.41 208.779C602.621 208.381 602.738 207.936 602.738 207.443C602.738 206.576 602.41 205.85 601.766 205.287C601.109 204.725 600.242 204.443 599.141 204.443L593.621 204.432ZM599.387 210.807C599.844 210.807 600.219 210.959 600.512 211.264C600.793 211.568 600.945 211.932 600.945 212.365C600.945 212.834 600.805 213.221 600.523 213.502C600.242 213.783 599.855 213.924 599.387 213.924H596.023V210.807H599.387ZM600.348 207.678C600.348 208.053 600.23 208.346 600.02 208.557C599.797 208.768 599.504 208.885 599.141 208.885H596.023V206.482H599.141C599.504 206.482 599.797 206.588 600.02 206.799C600.23 207.01 600.348 207.303 600.348 207.678ZM615.719 215.951V208.51C615.719 207.291 615.262 206.271 614.371 205.439C613.469 204.607 612.32 204.186 610.914 204.186C610.352 204.186 609.801 204.268 609.273 204.42C608.746 204.572 608.324 204.748 608.008 204.936C607.68 205.135 607.375 205.357 607.094 205.604C606.812 205.85 606.625 206.025 606.543 206.119C606.461 206.213 606.402 206.295 606.355 206.354L607.914 207.912L608.23 207.502C608.418 207.244 608.758 206.998 609.25 206.74C609.742 206.482 610.305 206.354 610.914 206.354C611.617 206.354 612.191 206.564 612.637 206.975C613.082 207.396 613.316 207.9 613.316 208.51L609.109 209.236C608.066 209.412 607.246 209.822 606.648 210.455C606.051 211.1 605.758 211.896 605.758 212.846C605.758 213.713 606.145 214.498 606.918 215.178C607.691 215.857 608.664 216.197 609.836 216.197C610.234 216.197 610.621 216.139 611.02 216.045C611.406 215.939 611.734 215.822 611.992 215.693C612.25 215.564 612.484 215.424 612.707 215.26C612.93 215.096 613.082 214.99 613.152 214.92C613.223 214.85 613.281 214.791 613.316 214.768V215.963L615.719 215.951ZM610.199 214.041C609.566 214.041 609.074 213.889 608.699 213.607C608.324 213.314 608.148 212.975 608.148 212.588C608.148 212.178 608.277 211.838 608.547 211.568C608.805 211.287 609.156 211.111 609.59 211.041L613.316 210.443V210.678C613.316 211.756 613.035 212.576 612.484 213.162C611.934 213.748 611.172 214.041 610.199 214.041ZM618.867 210.197C618.867 211.814 619.453 213.209 620.648 214.404C621.844 215.6 623.25 216.197 624.867 216.197C625.418 216.197 625.969 216.104 626.52 215.928C627.059 215.752 627.504 215.564 627.855 215.354C628.195 215.143 628.523 214.908 628.84 214.639C629.145 214.369 629.355 214.182 629.449 214.064C629.543 213.947 629.613 213.865 629.66 213.807L628.102 212.248L627.738 212.693C627.504 212.975 627.117 213.279 626.578 213.584C626.039 213.889 625.477 214.041 624.867 214.041C623.883 214.041 623.039 213.666 622.324 212.928C621.609 212.178 621.258 211.275 621.258 210.197C621.258 209.119 621.609 208.217 622.324 207.479C623.039 206.729 623.883 206.365 624.867 206.365C625.477 206.365 626.039 206.518 626.578 206.834C627.117 207.139 627.457 207.385 627.621 207.572C627.785 207.76 627.902 207.912 627.984 208.041L629.543 206.482L629.039 205.932C628.699 205.545 628.148 205.158 627.375 204.771C626.602 204.385 625.758 204.197 624.867 204.197C623.25 204.197 621.844 204.795 620.648 205.99C619.453 207.186 618.867 208.58 618.867 210.197ZM636.66 206.588H640.621V215.951H643.012V206.588H646.973V204.432H636.66V206.588ZM658.512 210.197C658.512 211.275 658.148 212.178 657.445 212.916C656.73 213.666 655.887 214.029 654.914 214.029C653.93 214.029 653.086 213.666 652.371 212.916C651.656 212.178 651.305 211.275 651.305 210.197C651.305 209.119 651.656 208.217 652.371 207.467C653.086 206.729 653.93 206.354 654.914 206.354C655.887 206.354 656.73 206.729 657.445 207.467C658.148 208.217 658.512 209.119 658.512 210.197ZM648.914 210.197C648.914 211.814 649.5 213.209 650.695 214.404C651.891 215.6 653.297 216.197 654.914 216.197C656.531 216.197 657.926 215.6 659.121 214.404C660.316 213.209 660.914 211.814 660.914 210.197C660.914 208.58 660.316 207.174 659.121 205.979C657.926 204.783 656.531 204.186 654.914 204.186C653.297 204.186 651.891 204.783 650.695 205.979C649.5 207.174 648.914 208.58 648.914 210.197ZM664.895 213.068L662.492 218.236L664.051 219.068L667.051 214.275L664.895 213.068ZM210.602 251.951H212.992V240.432H210.602V245.354L210.309 245.588C210.109 245.752 209.793 245.916 209.348 246.08C208.902 246.244 208.434 246.314 207.941 246.314C207.273 246.314 206.711 246.08 206.242 245.6C205.773 245.119 205.539 244.521 205.539 243.795V240.432H203.148V243.795C203.148 245.236 203.57 246.373 204.391 247.217C205.211 248.061 206.324 248.482 207.707 248.482C208.832 248.482 209.793 248.201 210.59 247.639L210.602 251.951ZM215.66 242.588H219.621V251.951H222.012V242.588H225.973V240.432H215.66V242.588ZM237.512 246.197C237.512 247.275 237.148 248.178 236.445 248.916C235.73 249.666 234.887 250.029 233.914 250.029C232.93 250.029 232.086 249.666 231.371 248.916C230.656 248.178 230.305 247.275 230.305 246.197C230.305 245.119 230.656 244.217 231.371 243.467C232.086 242.729 232.93 242.354 233.914 242.354C234.887 242.354 235.73 242.729 236.445 243.467C237.148 244.217 237.512 245.119 237.512 246.197ZM227.914 246.197C227.914 247.814 228.5 249.209 229.695 250.404C230.891 251.6 232.297 252.197 233.914 252.197C235.531 252.197 236.926 251.6 238.121 250.404C239.316 249.209 239.914 247.814 239.914 246.197C239.914 244.58 239.316 243.174 238.121 241.979C236.926 240.783 235.531 240.186 233.914 240.186C232.297 240.186 230.891 240.783 229.695 241.979C228.5 243.174 227.914 244.58 227.914 246.197ZM250.758 247.146H256.395V251.951H258.797V240.432H256.395V244.99H250.758V240.432H248.355V251.951H250.758V247.146ZM271.906 251.951V244.51C271.906 243.291 271.449 242.271 270.559 241.439C269.656 240.607 268.508 240.186 267.102 240.186C266.539 240.186 265.988 240.268 265.461 240.42C264.934 240.572 264.512 240.748 264.195 240.936C263.867 241.135 263.562 241.357 263.281 241.604C263 241.85 262.812 242.025 262.73 242.119C262.648 242.213 262.59 242.295 262.543 242.354L264.102 243.912L264.418 243.502C264.605 243.244 264.945 242.998 265.438 242.74C265.93 242.482 266.492 242.354 267.102 242.354C267.805 242.354 268.379 242.564 268.824 242.975C269.27 243.396 269.504 243.9 269.504 244.51L265.297 245.236C264.254 245.412 263.434 245.822 262.836 246.455C262.238 247.1 261.945 247.896 261.945 248.846C261.945 249.713 262.332 250.498 263.105 251.178C263.879 251.857 264.852 252.197 266.023 252.197C266.422 252.197 266.809 252.139 267.207 252.045C267.594 251.939 267.922 251.822 268.18 251.693C268.438 251.564 268.672 251.424 268.895 251.26C269.117 251.096 269.27 250.99 269.34 250.92C269.41 250.85 269.469 250.791 269.504 250.768V251.963L271.906 251.951ZM266.387 250.041C265.754 250.041 265.262 249.889 264.887 249.607C264.512 249.314 264.336 248.975 264.336 248.588C264.336 248.178 264.465 247.838 264.734 247.568C264.992 247.287 265.344 247.111 265.777 247.041L269.504 246.443V246.678C269.504 247.756 269.223 248.576 268.672 249.162C268.121 249.748 267.359 250.041 266.387 250.041ZM274.094 249.795V254.834H276.496V251.951H284.535V254.834H286.926V249.795H285.25V240.432H276.848V243.795C276.848 244.568 276.777 245.295 276.637 245.986C276.496 246.689 276.344 247.252 276.18 247.674C276.016 248.096 275.816 248.494 275.594 248.857C275.371 249.232 275.219 249.467 275.125 249.572C275.031 249.678 274.973 249.748 274.926 249.795H274.094ZM279.25 242.588H282.848V249.795H277.328L277.527 249.549C277.645 249.408 277.809 249.174 277.996 248.846C278.184 248.518 278.383 248.131 278.57 247.686C278.758 247.24 278.922 246.666 279.051 245.975C279.18 245.295 279.238 244.568 279.238 243.795L279.25 242.588ZM298.723 246.197C298.723 247.275 298.359 248.178 297.656 248.916C296.941 249.666 296.098 250.029 295.125 250.029C294.141 250.029 293.297 249.666 292.582 248.916C291.867 248.178 291.516 247.275 291.516 246.197C291.516 245.119 291.867 244.217 292.582 243.467C293.297 242.729 294.141 242.354 295.125 242.354C296.098 242.354 296.941 242.729 297.656 243.467C298.359 244.217 298.723 245.119 298.723 246.197ZM289.125 246.197C289.125 247.814 289.711 249.209 290.906 250.404C292.102 251.6 293.508 252.197 295.125 252.197C296.742 252.197 298.137 251.6 299.332 250.404C300.527 249.209 301.125 247.814 301.125 246.197C301.125 244.58 300.527 243.174 299.332 241.979C298.137 240.783 296.742 240.186 295.125 240.186C293.508 240.186 292.102 240.783 290.906 241.979C289.711 243.174 289.125 244.58 289.125 246.197ZM318.449 246.197C318.449 247.275 318.086 248.178 317.383 248.916C316.668 249.666 315.824 250.029 314.852 250.029C313.867 250.029 313.023 249.666 312.309 248.916C311.594 248.178 311.242 247.275 311.242 246.197C311.242 245.119 311.594 244.217 312.309 243.467C313.023 242.729 313.867 242.354 314.852 242.354C315.824 242.354 316.668 242.729 317.383 243.467C318.086 244.217 318.449 245.119 318.449 246.197ZM308.852 246.197C308.852 247.814 309.438 249.209 310.633 250.404C311.828 251.6 313.234 252.197 314.852 252.197C316.469 252.197 317.863 251.6 319.059 250.404C320.254 249.209 320.852 247.814 320.852 246.197C320.852 244.58 320.254 243.174 319.059 241.979C317.863 240.783 316.469 240.186 314.852 240.186C313.234 240.186 311.828 240.783 310.633 241.979C309.438 243.174 308.852 244.58 308.852 246.197ZM322.793 242.588H326.754V251.951H329.145V242.588H333.105V240.432H322.793V242.588ZM341.879 252.186C343.402 252.186 344.715 251.611 345.84 250.439C346.965 249.268 347.527 247.85 347.527 246.186C347.527 244.521 346.965 243.115 345.84 241.943C344.715 240.771 343.402 240.186 341.879 240.186C341.199 240.186 340.543 240.338 339.898 240.619C339.242 240.912 338.82 241.146 338.621 241.322C338.422 241.51 338.27 241.65 338.164 241.756V240.432H335.762V256.99H338.164V250.627L338.328 250.803C338.422 250.896 338.586 251.025 338.809 251.189C339.031 251.354 339.289 251.506 339.582 251.658C339.863 251.811 340.215 251.939 340.625 252.033C341.023 252.139 341.445 252.186 341.879 252.186ZM341.645 242.354C342.559 242.354 343.367 242.729 344.07 243.479C344.773 244.229 345.125 245.143 345.125 246.197C345.125 247.252 344.773 248.154 344.07 248.904C343.367 249.654 342.559 250.029 341.645 250.029C340.73 250.029 339.922 249.654 339.219 248.904C338.516 248.154 338.164 247.252 338.164 246.197C338.164 245.143 338.516 244.229 339.219 243.479C339.922 242.729 340.73 242.354 341.645 242.354ZM361.328 247.029L361.457 245.834C361.457 244.217 360.918 242.881 359.84 241.803C358.762 240.725 357.426 240.186 355.809 240.186C354.191 240.186 352.809 240.771 351.66 241.92C350.512 243.068 349.926 244.451 349.926 246.068C349.926 247.756 350.523 249.197 351.707 250.393C352.891 251.588 354.297 252.186 355.926 252.186C356.535 252.186 357.133 252.104 357.707 251.928C358.281 251.752 358.75 251.564 359.102 251.354C359.465 251.143 359.805 250.908 360.121 250.639C360.449 250.369 360.66 250.182 360.754 250.064C360.848 249.947 360.918 249.865 360.965 249.795L359.406 248.236L359.043 248.682C358.809 248.975 358.398 249.268 357.812 249.572C357.227 249.877 356.605 250.029 355.926 250.029C355 250.029 354.203 249.736 353.523 249.139C352.844 248.553 352.445 247.85 352.316 247.029H361.328ZM355.797 242.236C356.688 242.236 357.414 242.494 358 243.01C358.586 243.525 358.949 244.182 359.09 244.99H352.422C352.633 244.182 353.031 243.525 353.617 243.01C354.203 242.494 354.93 242.236 355.797 242.236ZM370.699 245.471L366.504 240.432H364.582V251.951H366.984V244.393L370.699 248.834L374.426 244.393V251.951H376.828V240.432H374.906L370.699 245.471ZM389.574 246.197C389.574 247.275 389.211 248.178 388.508 248.916C387.793 249.666 386.949 250.029 385.977 250.029C384.992 250.029 384.148 249.666 383.434 248.916C382.719 248.178 382.367 247.275 382.367 246.197C382.367 245.119 382.719 244.217 383.434 243.467C384.148 242.729 384.992 242.354 385.977 242.354C386.949 242.354 387.793 242.729 388.508 243.467C389.211 244.217 389.574 245.119 389.574 246.197ZM379.977 246.197C379.977 247.814 380.562 249.209 381.758 250.404C382.953 251.6 384.359 252.197 385.977 252.197C387.594 252.197 388.988 251.6 390.184 250.404C391.379 249.209 391.977 247.814 391.977 246.197C391.977 244.58 391.379 243.174 390.184 241.979C388.988 240.783 387.594 240.186 385.977 240.186C384.359 240.186 382.953 240.783 381.758 241.979C380.562 243.174 379.977 244.58 379.977 246.197ZM397.516 247.146H403.152V251.951H405.555V240.432H403.152V244.99H397.516V240.432H395.113V251.951H397.516V247.146ZM408.223 242.588H412.184V251.951H414.574V242.588H418.535V240.432H408.223V242.588ZM429.594 240.432L423.594 247.99V240.432H421.191V251.951H423.348L429.348 244.393V251.951H431.75V240.432H429.594ZM441.73 252.186C443.254 252.186 444.566 251.611 445.691 250.439C446.816 249.268 447.379 247.85 447.379 246.186C447.379 244.521 446.816 243.115 445.691 241.943C444.566 240.771 443.254 240.186 441.73 240.186C441.051 240.186 440.395 240.338 439.75 240.619C439.094 240.912 438.672 241.146 438.473 241.322C438.273 241.51 438.121 241.65 438.016 241.756V240.432H435.613V256.99H438.016V250.627L438.18 250.803C438.273 250.896 438.438 251.025 438.66 251.189C438.883 251.354 439.141 251.506 439.434 251.658C439.715 251.811 440.066 251.939 440.477 252.033C440.875 252.139 441.297 252.186 441.73 252.186ZM441.496 242.354C442.41 242.354 443.219 242.729 443.922 243.479C444.625 244.229 444.977 245.143 444.977 246.197C444.977 247.252 444.625 248.154 443.922 248.904C443.219 249.654 442.41 250.029 441.496 250.029C440.582 250.029 439.773 249.654 439.07 248.904C438.367 248.154 438.016 247.252 438.016 246.197C438.016 245.143 438.367 244.229 439.07 243.479C439.773 242.729 440.582 242.354 441.496 242.354ZM459.387 246.197C459.387 247.275 459.023 248.178 458.32 248.916C457.605 249.666 456.762 250.029 455.789 250.029C454.805 250.029 453.961 249.666 453.246 248.916C452.531 248.178 452.18 247.275 452.18 246.197C452.18 245.119 452.531 244.217 453.246 243.467C453.961 242.729 454.805 242.354 455.789 242.354C456.762 242.354 457.605 242.729 458.32 243.467C459.023 244.217 459.387 245.119 459.387 246.197ZM449.789 246.197C449.789 247.814 450.375 249.209 451.57 250.404C452.766 251.6 454.172 252.197 455.789 252.197C457.406 252.197 458.801 251.6 459.996 250.404C461.191 249.209 461.789 247.814 461.789 246.197C461.789 244.58 461.191 243.174 459.996 241.979C458.801 240.783 457.406 240.186 455.789 240.186C454.172 240.186 452.766 240.783 451.57 241.979C450.375 243.174 449.789 244.58 449.789 246.197ZM464.926 240.432V251.951H470.691C471.91 251.951 472.883 251.646 473.586 251.014C474.289 250.393 474.652 249.584 474.652 248.588C474.652 248.213 474.582 247.85 474.441 247.521C474.301 247.193 474.148 246.936 473.984 246.748C473.82 246.561 473.621 246.385 473.398 246.221C473.164 246.057 473.012 245.963 472.93 245.916C472.836 245.881 472.777 245.857 472.73 245.846L473.059 245.623C473.281 245.459 473.504 245.178 473.715 244.779C473.926 244.381 474.043 243.936 474.043 243.443C474.043 242.576 473.715 241.85 473.07 241.287C472.414 240.725 471.547 240.443 470.445 240.443L464.926 240.432ZM470.691 246.807C471.148 246.807 471.523 246.959 471.816 247.264C472.098 247.568 472.25 247.932 472.25 248.365C472.25 248.834 472.109 249.221 471.828 249.502C471.547 249.783 471.16 249.924 470.691 249.924H467.328V246.807H470.691ZM471.652 243.678C471.652 244.053 471.535 244.346 471.324 244.557C471.102 244.768 470.809 244.885 470.445 244.885H467.328V242.482H470.445C470.809 242.482 471.102 242.588 471.324 242.799C471.535 243.01 471.652 243.303 471.652 243.678ZM487.023 251.951V244.51C487.023 243.291 486.566 242.271 485.676 241.439C484.773 240.607 483.625 240.186 482.219 240.186C481.656 240.186 481.105 240.268 480.578 240.42C480.051 240.572 479.629 240.748 479.312 240.936C478.984 241.135 478.68 241.357 478.398 241.604C478.117 241.85 477.93 242.025 477.848 242.119C477.766 242.213 477.707 242.295 477.66 242.354L479.219 243.912L479.535 243.502C479.723 243.244 480.062 242.998 480.555 242.74C481.047 242.482 481.609 242.354 482.219 242.354C482.922 242.354 483.496 242.564 483.941 242.975C484.387 243.396 484.621 243.9 484.621 244.51L480.414 245.236C479.371 245.412 478.551 245.822 477.953 246.455C477.355 247.1 477.062 247.896 477.062 248.846C477.062 249.713 477.449 250.498 478.223 251.178C478.996 251.857 479.969 252.197 481.141 252.197C481.539 252.197 481.926 252.139 482.324 252.045C482.711 251.939 483.039 251.822 483.297 251.693C483.555 251.564 483.789 251.424 484.012 251.26C484.234 251.096 484.387 250.99 484.457 250.92C484.527 250.85 484.586 250.791 484.621 250.768V251.963L487.023 251.951ZM481.504 250.041C480.871 250.041 480.379 249.889 480.004 249.607C479.629 249.314 479.453 248.975 479.453 248.588C479.453 248.178 479.582 247.838 479.852 247.568C480.109 247.287 480.461 247.111 480.895 247.041L484.621 246.443V246.678C484.621 247.756 484.34 248.576 483.789 249.162C483.238 249.748 482.477 250.041 481.504 250.041ZM489.691 242.588H493.652V251.951H496.043V242.588H500.004V240.432H489.691V242.588ZM505.062 249.912V246.068H507.699C508.238 246.068 508.695 246.256 509.07 246.619C509.434 246.994 509.621 247.451 509.621 247.99C509.621 248.541 509.434 248.998 509.07 249.361C508.695 249.736 508.238 249.912 507.699 249.912H505.062ZM512.023 248.002C512.023 246.854 511.625 245.904 510.828 245.154C510.031 244.404 508.988 244.029 507.688 244.029H505.051V240.432H502.648V251.951H507.688C508.988 251.951 510.031 251.588 510.828 250.838C511.625 250.1 512.023 249.15 512.023 248.002Z" fill="#363A45"/>
<g clip-path="url(#clip1_1340_906)">
<path opacity="0.2" d="M1251.45 371.589C1244.74 421.293 1191.03 449.557 1146.26 426.951L999.71 352.957C946.778 326.231 946.141 250.875 998.614 223.258L1167.15 134.561C1219.62 106.944 1281.37 150.134 1273.43 208.897L1251.45 371.589Z" fill="#00C65E"/>
<rect x="1158.46" y="199.863" width="82.4417" height="79.9629" rx="2.80628" transform="rotate(2.21828 1158.46 199.863)" fill="white"/>
<path d="M1105.54 232.597C1104.89 211.623 1108.1 207.213 1111.97 205.394C1114.61 204.151 1121.37 204.259 1127.29 207.189C1134.5 210.755 1149.82 226.82 1158.04 236.619L1144.31 252.855L1152.42 260.792L1151.49 284.783L1109.17 285.584C1106.65 267.578 1106.05 249.017 1105.54 232.597Z" fill="#00C65E"/>
<path d="M1109.17 285.583L1151.5 284.782L1151.23 291.728L1190.32 314.862C1194.13 317.709 1195.93 320.497 1196.71 328.157C1197.49 335.816 1202.47 372.471 1204.87 389.841C1207.22 389.932 1213.18 389.627 1214.83 392.858C1216.37 395.847 1216.86 402.084 1217.11 404.966L1184.76 409.825L1171.73 332.994C1161.89 329.369 1139 320.493 1139 320.493C1139 320.493 1115.78 313.285 1109.69 288.735L1109.17 285.583Z" fill="#FFB762"/>
<path d="M1098.77 340.222L1111.25 293.687C1114.6 300.19 1124.06 314.326 1135.08 318.841L1118.71 354.265L1069.44 389.121C1070.66 391.121 1073 395.457 1072.87 398.716C1072.64 404.615 1064.65 406.925 1060.62 409.132L1042.45 379.293L1098.77 340.222Z" fill="#F1A74F"/>
<path d="M1098.9 167.286C1098.51 160.265 1098.51 157.075 1101.55 153.401C1109.63 143.622 1131.69 147.957 1137.99 151.729C1142.45 154.402 1144.13 158.708 1145.06 164.181C1145.79 168.558 1146.43 181.992 1144.09 189.043C1142.52 193.802 1136.07 203.563 1122.9 204.531C1109.72 205.5 1103.68 196.212 1102.31 191.447C1100.53 183.948 1099.32 174.898 1098.9 167.286Z" fill="#FBCFB1"/>
<path d="M1098.9 167.286C1098.51 160.265 1098.51 157.075 1101.55 153.401C1109.63 143.622 1131.69 147.957 1137.99 151.729C1142.45 154.402 1144.68 158.984 1145.33 166.199L1098.9 167.286Z" fill="#00C65E"/>
<path d="M1143.72 163.426L1159.69 162.967" stroke="#00C65E" stroke-width="5.61255" stroke-linecap="round"/>
<path d="M1037.21 242.697L1081.98 242.697" stroke="#00C65E" stroke-width="8.41883" stroke-linecap="round"/>
<path d="M1079.61 261.562L1109.94 261.562" stroke="white" stroke-width="5.61255" stroke-linecap="round"/>
<path d="M1001.1 284.436L1073.39 284.435" stroke="#00C65E" stroke-width="8.41883" stroke-linecap="round"/>
<path d="M1049.96 311.922L1088.7 311.922" stroke="white" stroke-width="5.61255" stroke-linecap="round"/>
<path d="M1161.57 269.352L1144.26 252.832L1158.07 236.68L1169.07 249.447L1217.88 253.02L1224.58 250.055L1239.01 250.614L1238.24 270.498C1233.14 270.628 1222.38 270.669 1220.17 269.798C1217.96 268.927 1214.68 269.258 1213.31 269.532L1161.57 269.352Z" fill="#FBCFB1"/>
<path d="M1131.57 239.83C1132.08 239.247 1132.97 239.19 1133.55 239.701L1146.1 250.706L1144.26 252.834L1131.7 241.81C1131.12 241.298 1131.06 240.412 1131.57 239.83Z" fill="#1E7836"/>
<path d="M1190.63 200.883L1210.69 201.66L1209.86 223.054C1209.8 224.603 1208.5 225.809 1206.95 225.749L1192.49 225.19C1190.95 225.13 1189.74 223.826 1189.8 222.277L1190.63 200.883Z" fill="#FD9558"/>
</g>
<path opacity="0.4" d="M824.936 367.296C827.52 360.133 836.242 357.836 842.02 362.797L897.777 410.679C904.608 416.544 902.263 427.79 893.741 430.035L813.042 451.287C804.521 453.532 796.94 444.9 799.995 436.43L824.936 367.296Z" fill="#00C65E"/>
<path opacity="0.6" d="M932.944 161.6C928.36 160.996 925.866 156.12 928.06 152.049L949.232 112.764C951.826 107.951 958.801 107.884 961.238 112.648L984.311 157.763C986.748 162.527 982.61 168.143 977.19 167.429L932.944 161.6Z" fill="#FFB762"/>
</g>
</g>
<defs>
<filter id="filter0_d_1340_906" x="-18.2871" y="0.951172" width="1478" height="538" filterUnits="userSpaceOnUse" color-interpolation-filters="sRGB">
<feFlood flood-opacity="0" result="BackgroundImageFix"/>
<feColorMatrix in="SourceAlpha" type="matrix" values="0 0 0 0 0 0 0 0 0 0 0 0 0 0 0 0 0 0 127 0" result="hardAlpha"/>
<feMorphology radius="3" operator="dilate" in="SourceAlpha" result="effect1_dropShadow_1340_906"/>
<feOffset dx="1" dy="2"/>
<feGaussianBlur stdDeviation="8"/>
<feColorMatrix type="matrix" values="0 0 0 0 0.211765 0 0 0 0 0.227451 0 0 0 0 0.270588 0 0 0 0.08 0"/>
<feBlend mode="normal" in2="BackgroundImageFix" result="effect1_dropShadow_1340_906"/>
<feBlend mode="normal" in="SourceGraphic" in2="effect1_dropShadow_1340_906" result="shape"/>
</filter>
<filter id="filter1_d_1340_906" x="-18.2871" y="-241.354" width="1643.18" height="909.645" filterUnits="userSpaceOnUse" color-interpolation-filters="sRGB">
<feFlood flood-opacity="0" result="BackgroundImageFix"/>
<feColorMatrix in="SourceAlpha" type="matrix" values="0 0 0 0 0 0 0 0 0 0 0 0 0 0 0 0 0 0 127 0" result="hardAlpha"/>
<feMorphology radius="3" operator="dilate" in="SourceAlpha" result="effect1_dropShadow_1340_906"/>
<feOffset dx="1" dy="2"/>
<feGaussianBlur stdDeviation="8"/>
<feColorMatrix type="matrix" values="0 0 0 0 0.211765 0 0 0 0 0.227451 0 0 0 0 0.270588 0 0 0 0.08 0"/>
<feBlend mode="normal" in2="BackgroundImageFix" result="effect1_dropShadow_1340_906"/>
<feBlend mode="normal" in="SourceGraphic" in2="effect1_dropShadow_1340_906" result="shape"/>
</filter>
<filter id="filter2_f_1340_906" x="329.953" y="-374.354" width="1424.94" height="1171.64" filterUnits="userSpaceOnUse" color-interpolation-filters="sRGB">
<feFlood flood-opacity="0" result="BackgroundImageFix"/>
<feBlend mode="normal" in="SourceGraphic" in2="BackgroundImageFix" result="shape"/>
<feGaussianBlur stdDeviation="75" result="effect1_foregroundBlur_1340_906"/>
</filter>
<linearGradient id="paint0_linear_1340_906" x1="1464.15" y1="-131.015" x2="535.475" y2="890.12" gradientUnits="userSpaceOnUse">
<stop stop-color="#FFB762"/>
<stop offset="0.577026" stop-color="#FFB762" stop-opacity="0.31"/>
</linearGradient>
<clipPath id="clip0_1340_906">
<rect width="1440" height="500" fill="white" transform="translate(-0.287109 17.9512)"/>
</clipPath>
<clipPath id="clip1_1340_906">
<rect width="322.722" height="322.722" fill="white" transform="translate(958.234 118.068)"/>
</clipPath>
</defs>
</svg>
