<svg width="133" height="134" viewBox="0 0 133 134" fill="none" xmlns="http://www.w3.org/2000/svg">
<g filter="url(#filter0_d_5137_19275)">
<circle cx="65.5" cy="65" r="47.5" fill="white"/>
</g>
<path d="M66.6515 64.837C65.3195 64.837 64.0006 64.5743 62.7703 64.064C61.54 63.5537 60.4224 62.8057 59.4814 61.863C58.5405 60.9202 57.7948 59.8011 57.2869 58.5698C56.779 57.3384 56.5189 56.019 56.5215 54.687V40.957C56.6042 38.3268 57.7071 35.8319 59.5969 34.0006C61.4867 32.1693 64.015 31.1453 66.6465 31.1453C69.278 31.1453 71.8063 32.1693 73.6961 34.0006C75.5859 35.8319 76.6888 38.3268 76.7715 40.957V54.687C76.7741 56.0182 76.5144 57.3368 76.0071 58.5674C75.4998 59.7981 74.755 60.9168 73.8151 61.8594C72.8752 62.8021 71.7588 63.5502 70.5296 64.0611C69.3005 64.5721 67.9826 64.8357 66.6515 64.837ZM66.6515 35.837C65.2927 35.837 63.9894 36.3761 63.0276 37.336C62.0658 38.2959 61.5242 39.5982 61.5215 40.957V54.687C61.5798 56.0071 62.1453 57.2538 63.1 58.1672C64.0547 59.0807 65.3251 59.5906 66.6465 59.5906C67.9679 59.5906 69.2383 59.0807 70.193 58.1672C71.1477 57.2538 71.7132 56.0071 71.7715 54.687V40.957C71.7689 39.5999 71.2286 38.2992 70.269 37.3396C69.3094 36.3799 68.0086 35.8397 66.6515 35.837Z" fill="#F89358"/>
<path d="M87.5112 43.177H43.4912C38.9127 43.177 35.2012 46.8886 35.2012 51.467V80.797C35.2012 85.3754 38.9127 89.087 43.4912 89.087H87.5112C92.0896 89.087 95.8012 85.3754 95.8012 80.797V51.467C95.8012 46.8886 92.0896 43.177 87.5112 43.177Z" fill="#F89358"/>
<path d="M88.6217 47.937H45.9317C41.9718 47.937 38.7617 51.1471 38.7617 55.107V77.257C38.7617 81.2169 41.9718 84.427 45.9317 84.427H88.6217C92.5816 84.427 95.7917 81.2169 95.7917 77.257V55.107C95.7917 51.1471 92.5816 47.937 88.6217 47.937Z" fill="#FFB762"/>
<path d="M90.1417 43.177H44.4117C41.2913 43.177 38.7617 45.7066 38.7617 48.827V60.207C38.7617 63.3274 41.2913 65.857 44.4117 65.857H90.1417C93.2621 65.857 95.7917 63.3274 95.7917 60.207V48.827C95.7917 45.7066 93.2621 43.177 90.1417 43.177Z" fill="#F89358"/>
<path d="M67.3709 57.7271H67.3009C65.5944 57.7271 64.2109 59.1105 64.2109 60.8171V66.8871C64.2109 68.5936 65.5944 69.9771 67.3009 69.9771H67.3709C69.0775 69.9771 70.4609 68.5936 70.4609 66.8871V60.8171C70.4609 59.1105 69.0775 57.7271 67.3709 57.7271Z" fill="white"/>
<path d="M44.0327 91.6054L50.7399 90.0819L44.0327 88.453L42.4517 82.2727L40.7365 88.4146L34.0293 89.9573L40.6791 91.5574L42.3463 98.0731L44.0327 91.6054Z" fill="#00C65E"/>
<path d="M92.3203 35.8371L95.8003 35.0371L92.2803 34.1971L91.4603 30.9871L90.5903 34.2071L87.0703 35.0171L90.5403 35.8371L91.4103 39.2371L92.3203 35.8371Z" fill="#FFB762"/>
<defs>
<filter id="filter0_d_5137_19275" x="0" y="0.5" width="133" height="133" filterUnits="userSpaceOnUse" color-interpolation-filters="sRGB">
<feFlood flood-opacity="0" result="BackgroundImageFix"/>
<feColorMatrix in="SourceAlpha" type="matrix" values="0 0 0 0 0 0 0 0 0 0 0 0 0 0 0 0 0 0 127 0" result="hardAlpha"/>
<feMorphology radius="3" operator="dilate" in="SourceAlpha" result="effect1_dropShadow_5137_19275"/>
<feOffset dx="1" dy="2"/>
<feGaussianBlur stdDeviation="8"/>
<feColorMatrix type="matrix" values="0 0 0 0 0.211765 0 0 0 0 0.227451 0 0 0 0 0.270588 0 0 0 0.08 0"/>
<feBlend mode="normal" in2="BackgroundImageFix" result="effect1_dropShadow_5137_19275"/>
<feBlend mode="normal" in="SourceGraphic" in2="effect1_dropShadow_5137_19275" result="shape"/>
</filter>
</defs>
</svg>
