<svg width="133" height="134" viewBox="0 0 133 134" fill="none" xmlns="http://www.w3.org/2000/svg">
<g filter="url(#filter0_d_5137_19140)">
<circle cx="65.5" cy="65" r="47.5" fill="white"/>
</g>
<path d="M66.6609 98.6938L64.3909 100.034L62.0209 98.5438C59.9309 97.2238 57.0709 95.3938 54.0209 93.3438C47.8109 89.2038 40.9209 84.3438 37.5609 80.9538L37.4009 80.8738C35.1321 78.9801 33.2886 76.6288 31.9909 73.9738C30.7014 71.3545 29.9822 68.4915 29.8809 65.5738C29.9556 61.7472 31.1977 58.0348 33.4409 54.9338C35.7194 51.7986 38.8819 49.4148 42.5232 48.0876C46.1646 46.7604 50.1193 46.5501 53.8809 47.4838C57.6206 48.4124 60.9896 50.4561 63.5409 53.3438C63.7285 53.5566 63.9594 53.727 64.218 53.8438C64.4766 53.9605 64.7571 54.0209 65.0409 54.0209C65.3246 54.0209 65.6051 53.9605 65.8637 53.8438C66.1224 53.727 66.3532 53.5566 66.5409 53.3438C69.1745 50.4934 72.5995 48.4947 76.3767 47.6038C80.1539 46.713 84.1111 46.9706 87.7409 48.3438C91.3425 49.7174 94.4377 52.1601 96.6109 55.3438C98.7681 58.474 99.9098 62.1923 99.8809 65.9938C99.6652 68.9147 98.8517 71.7602 97.4909 74.3538C96.1022 76.9865 94.1936 79.3101 91.8809 81.1838L91.7709 81.2838C87.7709 85.0538 80.7709 89.8738 74.5509 93.8038C71.5109 95.7638 68.7009 97.4738 66.6609 98.6938Z" fill="#F89358"/>
<path d="M66.3313 94.0238L64.4813 95.1138L62.5513 93.8738C60.8513 92.7938 58.5513 91.3038 56.0113 89.6338C50.9513 86.2638 45.3313 82.2738 42.6013 79.5338L42.4913 79.4338C40.6491 77.9089 39.1469 76.0148 38.0813 73.8738C37.0333 71.7402 36.4472 69.4094 36.3613 67.0338C36.4269 63.9167 37.4382 60.8931 39.2613 58.3638C41.1203 55.8052 43.7014 53.8603 46.6734 52.7788C49.6453 51.6973 52.8727 51.5284 55.9413 52.2938C58.989 53.0514 61.734 54.7186 63.8113 57.0738C63.9669 57.2433 64.1552 57.3794 64.3649 57.4739C64.5746 57.5685 64.8013 57.6195 65.0313 57.6238C65.2619 57.6258 65.4904 57.5796 65.7022 57.4884C65.9139 57.3971 66.1044 57.2628 66.2613 57.0938C68.4057 54.7703 71.1959 53.1411 74.2735 52.4159C77.351 51.6906 80.5751 51.9023 83.5313 53.0238C86.4634 54.1319 88.9863 56.1104 90.7613 58.6938C92.5174 61.2458 93.446 64.2761 93.4213 67.3738C93.2409 69.756 92.5774 72.0764 91.4713 74.1938C90.3357 76.3402 88.7738 78.2322 86.8813 79.7538L86.7913 79.8338C83.5413 82.9138 77.7913 86.8338 72.7913 90.0438C70.2813 91.6338 67.9913 93.0238 66.3313 94.0238Z" fill="#FFB762"/>
<path d="M77.5725 75.6039L77.9325 75.2839L77.8525 75.1839L77.5425 74.8339C77.2925 74.5439 76.1025 73.2639 75.7325 72.8339L73.8025 70.6439C73.4076 70.2467 73.0709 69.7956 72.8025 69.3039C72.7117 69.1379 72.6603 68.9531 72.6525 68.7639C72.6525 68.7096 72.6652 68.656 72.6895 68.6074C72.7138 68.5588 72.7491 68.5165 72.7925 68.4839C72.8527 68.4235 72.9291 68.3818 73.0125 68.3639C73.1413 68.3407 73.2741 68.3582 73.3925 68.4139C74.0938 68.7481 74.7224 69.217 75.2425 69.7939C76.1325 70.6539 77.8025 72.3439 78.4025 72.9439C78.7125 73.2339 78.9525 73.4839 79.1225 73.6439L79.3225 73.8439L79.6625 73.4939L79.3225 73.8439C79.3665 73.8899 79.4192 73.9268 79.4774 73.9524C79.5356 73.978 79.5983 73.9919 79.6619 73.9933C79.7255 73.9947 79.7888 73.9836 79.8481 73.9605C79.9074 73.9374 79.9616 73.9029 80.0075 73.8589C80.0535 73.8149 80.0904 73.7623 80.116 73.7041C80.1416 73.6459 80.1555 73.5832 80.1569 73.5195C80.1583 73.4559 80.1472 73.3927 80.1241 73.3334C80.101 73.2741 80.0665 73.2199 80.0225 73.1739L77.1425 70.0039C76.7253 69.6167 76.43 69.1163 76.2925 68.5639C76.2819 68.4725 76.2958 68.3799 76.3327 68.2956C76.3696 68.2112 76.4282 68.1382 76.5025 68.0839C76.5446 68.0353 76.6004 68.0004 76.6625 67.9839C76.776 67.9732 76.8901 67.994 76.9925 68.0439C77.7528 68.427 78.4319 68.9533 78.9925 69.5939L85.6425 76.5939L85.7825 76.7539C86.4225 77.4839 86.9625 78.1039 87.3925 78.6839C87.7558 79.2358 88.0639 79.8219 88.3125 80.4339C88.3125 80.5939 88.4425 80.8239 88.5425 81.0839C88.7925 81.8039 89.1325 82.7839 89.3225 83.4639L84.0725 88.4639C82.5625 87.9739 76.5725 86.1239 74.4725 85.2639C73.4725 84.8339 72.4725 84.4239 71.7525 84.1239L70.9125 83.7639L70.6825 83.6639H70.6225L70.4625 83.5739C70.3004 83.4815 70.1494 83.3708 70.0125 83.2439C69.8805 83.1361 69.7802 82.9944 69.7225 82.8339C69.6899 82.767 69.6729 82.6935 69.6729 82.6189C69.6729 82.5444 69.6899 82.4709 69.7225 82.4039C69.7554 82.3422 69.8009 82.2881 69.856 82.245C69.9111 82.2019 69.9747 82.1709 70.0425 82.1539C70.2481 82.0836 70.466 82.0563 70.6825 82.0739C70.8942 82.0791 71.105 82.1025 71.3125 82.1439H71.5125L75.5125 83.3439C75.6145 83.375 75.7239 83.3712 75.8235 83.3332C75.9231 83.2951 76.0072 83.225 76.0625 83.1339C76.1193 83.0446 76.1442 82.9388 76.1334 82.8335C76.1225 82.7283 76.0764 82.6297 76.0025 82.5539L69.9225 76.1739C69.4331 75.7002 69.0244 75.1496 68.7125 74.5439C68.5325 74.1339 68.6025 74.0039 68.6325 73.9739C68.6884 73.9268 68.7559 73.8954 68.828 73.8831C68.9001 73.8708 68.9742 73.878 69.0425 73.9039C69.3748 74.0093 69.6861 74.1717 69.9625 74.3839L74.6525 78.3839C74.7411 78.4655 74.8571 78.5107 74.9775 78.5107C75.0979 78.5107 75.2139 78.4655 75.3025 78.3839C75.3848 78.2937 75.4303 78.176 75.4303 78.0539C75.4303 77.9319 75.3848 77.8142 75.3025 77.7239L74.9425 78.0539L75.3025 77.7239L75.2225 77.6339L74.9325 77.3139C74.6825 77.0339 73.5025 75.7639 73.1225 75.3139C72.3625 74.4539 71.4625 73.4039 70.8725 72.6639C70.3871 72.1082 69.9738 71.4933 69.6425 70.8339C69.5645 70.6687 69.5301 70.4862 69.5425 70.3039C69.559 70.1673 69.6269 70.0421 69.7325 69.9539C69.8252 69.8469 69.9527 69.776 70.0925 69.7539C70.2342 69.7383 70.3772 69.7662 70.5025 69.8339C71.0668 70.0985 71.5863 70.4494 72.0425 70.8739C72.6225 71.3939 73.7025 72.4539 74.6525 73.3739L76.7125 75.4639L77.0925 75.8439L77.1925 75.9439L77.5725 75.6039ZM77.5725 75.6039L77.9325 75.2839C78.0199 75.3736 78.0688 75.4938 78.0688 75.6189C78.0688 75.7441 78.0199 75.8643 77.9325 75.9539C77.8417 76.039 77.722 76.0863 77.5975 76.0863C77.4731 76.0863 77.3534 76.039 77.2625 75.9539L77.5725 75.6039Z" fill="white"/>
<path d="M84.1417 88.7738H84.0617L82.7717 88.3638C80.4617 87.6338 76.1517 86.2638 74.4317 85.5538C73.4317 85.1238 72.4317 84.7238 71.7117 84.4138L70.6417 83.9538H70.5517L70.3217 83.8238C70.1395 83.7271 69.9713 83.606 69.8217 83.4638C69.6541 83.3227 69.5265 83.1399 69.4517 82.9338C69.4163 82.8268 69.4043 82.7134 69.4164 82.6013C69.4284 82.4891 69.4644 82.3809 69.5217 82.2838C69.6255 82.0969 69.7975 81.9572 70.0017 81.8938C70.2374 81.819 70.4849 81.7885 70.7317 81.8038C70.9638 81.8074 71.195 81.8342 71.4217 81.8838H71.6217H71.7117L75.7117 83.0838C75.7546 83.0968 75.8006 83.0949 75.8423 83.0786C75.884 83.0623 75.919 83.0324 75.9417 82.9938C75.9663 82.9586 75.9794 82.9168 75.9794 82.8738C75.9794 82.8309 75.9663 82.7891 75.9417 82.7538L69.8817 76.4038C69.372 75.8997 68.9436 75.3194 68.6117 74.6838C68.4417 74.2938 68.4317 74.0038 68.6117 73.8238C68.7006 73.7391 68.8105 73.6796 68.93 73.6514C69.0495 73.6233 69.1744 73.6276 69.2917 73.6638C69.6536 73.7756 69.9924 73.9518 70.2917 74.1838L74.8417 78.0238C74.8381 77.9797 74.8443 77.9352 74.8598 77.8937C74.8754 77.8523 74.8999 77.8147 74.9317 77.7838L75.0917 77.6438L74.8717 77.4038C74.7817 77.2938 74.5317 77.0338 74.2517 76.7238C73.8117 76.2538 73.2517 75.7238 73.0617 75.4338C72.0617 74.2738 71.2917 73.3738 70.8017 72.7738C70.2749 72.2032 69.8276 71.5641 69.4717 70.8738C69.3792 70.6667 69.3381 70.4403 69.3517 70.2138C69.3619 70.113 69.3919 70.0152 69.4399 69.9259C69.488 69.8367 69.5531 69.7578 69.6317 69.6938C69.7674 69.5484 69.9462 69.4502 70.1417 69.4138C70.334 69.3955 70.5277 69.4301 70.7017 69.5138C71.2643 69.8046 71.7774 70.1826 72.2217 70.6338C72.8517 71.1938 73.9917 72.3138 74.8417 73.1438C75.1317 73.4238 75.7017 74.0138 76.1817 74.5038L76.9117 75.2438L77.2317 75.5538L77.3717 75.4138L77.5317 75.2838L77.2917 75.0238C77.1817 74.8838 76.8617 74.5438 76.5217 74.1738L75.5217 73.0238L73.5917 70.8338C73.1955 70.4118 72.859 69.9374 72.5917 69.4238C72.4874 69.2189 72.4294 68.9936 72.4217 68.7638C72.4245 68.6698 72.4473 68.5774 72.4887 68.4929C72.5301 68.4084 72.5891 68.3337 72.6617 68.2738C72.7619 68.1691 72.8905 68.0961 73.0317 68.0638C73.2073 68.0373 73.3868 68.058 73.5517 68.1238C74.3082 68.4693 74.9882 68.9623 75.5517 69.5738L77.5517 71.5738L78.7017 72.7238L79.4917 73.4938L79.6317 73.3538C79.6549 73.3251 79.6863 73.3041 79.7217 73.2938C79.7612 73.2841 79.8023 73.2841 79.8417 73.2938L77.0917 70.2938C76.6429 69.8599 76.3243 69.3092 76.1717 68.7038C76.1586 68.5708 76.1781 68.4366 76.2286 68.3129C76.2792 68.1891 76.3592 68.0796 76.4617 67.9938C76.5449 67.9116 76.6484 67.8529 76.7617 67.8238C76.9275 67.7967 77.0975 67.8175 77.2517 67.8838C78.0376 68.2974 78.7423 68.8496 79.3317 69.5138L86.1317 76.6838C86.7417 77.3838 87.3117 78.0438 87.7517 78.6838C88.1417 79.2576 88.4766 79.867 88.7517 80.5038L88.9717 81.1538C89.2217 81.8738 89.5717 82.8638 89.7617 83.5538C89.7715 83.602 89.7693 83.6517 89.7554 83.6988C89.7414 83.7459 89.7162 83.7888 89.6817 83.8238L84.4317 88.8238C84.384 88.8458 84.3308 88.8527 84.279 88.8438C84.2272 88.8349 84.1794 88.8105 84.1417 88.7738ZM70.6617 82.3238C70.4996 82.3196 70.3378 82.3398 70.1817 82.3838C70.0517 82.4338 70.0217 82.4838 70.0117 82.5038C69.9855 82.5714 69.9855 82.6463 70.0117 82.7138C70.0602 82.8299 70.1356 82.9328 70.2317 83.0138C70.353 83.1261 70.4873 83.2235 70.6317 83.3038L70.7817 83.3838H70.8417L71.9617 83.8638L74.6717 85.0038C76.3717 85.6938 80.6717 87.0638 82.9717 87.7938L84.1017 88.1538L89.1017 83.3738C88.9117 82.7138 88.6017 81.8338 88.3717 81.1738L88.1517 80.5238C87.8962 79.9468 87.5883 79.3945 87.2317 78.8738C86.8017 78.2938 86.2317 77.6438 85.6417 76.9538L85.5017 76.7938L78.8617 69.7938C78.3338 69.184 77.6961 68.6786 76.9817 68.3038C76.9226 68.2894 76.8609 68.2894 76.8017 68.3038C76.6517 68.4538 76.6517 68.4938 76.6517 68.5738C76.7929 69.0705 77.0659 69.5198 77.4417 69.8738L80.3217 73.0538C80.4141 73.2052 80.4507 73.384 80.4252 73.5595C80.3996 73.7349 80.3135 73.8959 80.1818 74.0145C80.0501 74.1332 79.881 74.2021 79.7039 74.2093C79.5267 74.2165 79.3526 74.1615 79.2117 74.0538L78.2117 73.0538L77.0817 71.9438L75.0817 69.9438C74.5891 69.395 73.9949 68.9467 73.3317 68.6238C73.256 68.6073 73.1775 68.6073 73.1017 68.6238C73.0721 68.617 73.0414 68.617 73.0117 68.6238C72.9417 68.6938 72.9417 68.7038 72.9417 68.7338C72.9517 68.8776 72.9927 69.0174 73.0617 69.1438C73.3112 69.6114 73.6241 70.0422 73.9917 70.4238L75.8817 72.6238L76.8817 73.7638C77.2317 74.1438 77.5517 74.4838 77.6617 74.6238L78.0517 75.0638C78.1441 75.2152 78.1807 75.394 78.1552 75.5695C78.1296 75.7449 78.0435 75.9059 77.9118 76.0245C77.7801 76.1432 77.611 76.2121 77.4339 76.2193C77.2567 76.2264 77.0826 76.1715 76.9417 76.0638L76.4217 75.5538L75.7817 74.8738L74.4517 73.5238C73.7617 72.8438 72.4517 71.6138 71.8517 71.0338C71.4473 70.6343 70.9856 70.2972 70.4817 70.0338C70.3963 70.0134 70.3072 70.0134 70.2217 70.0338C70.1405 70.0499 70.0668 70.092 70.0117 70.1538C69.9584 70.2019 69.9202 70.2644 69.9017 70.3338C69.9064 70.4716 69.9369 70.6073 69.9917 70.7338C70.3182 71.3651 70.7176 71.9558 71.1817 72.4938C71.6617 73.0938 72.4117 73.9838 73.4217 75.1338C73.6517 75.3938 74.1717 75.9538 74.6017 76.4138L75.2317 77.1038L75.6017 77.5238C75.7208 77.6632 75.7862 77.8405 75.7862 78.0238C75.7862 78.2072 75.7208 78.3844 75.6017 78.5238C75.4719 78.6549 75.2989 78.7342 75.1149 78.7471C74.9309 78.76 74.7485 78.7055 74.6017 78.5938L69.9017 74.5938C69.6578 74.406 69.384 74.2607 69.0917 74.1638H68.9917C69.011 74.2539 69.0413 74.3412 69.0817 74.4238C69.3817 75.0056 69.7772 75.533 70.2517 75.9838L76.3217 82.3538C76.4418 82.4745 76.5179 82.632 76.5378 82.801C76.5577 82.9701 76.5202 83.1409 76.4315 83.2862C76.3427 83.4314 76.2078 83.5427 76.0482 83.6021C75.8887 83.6615 75.7139 83.6656 75.5517 83.6138L71.5517 82.4138H71.3117C71.1185 82.3676 70.9205 82.3441 70.7217 82.3438L70.6617 82.3238Z" fill="white"/>
<path d="M52.5506 75.9437L52.6506 75.8437L53.0306 75.4637L55.0906 73.3737C56.0406 72.4537 57.0906 71.3737 57.7006 70.8737C58.1273 70.446 58.6162 70.0853 59.1506 69.8037C59.276 69.7359 59.419 69.708 59.5606 69.7237C59.7005 69.7458 59.828 69.8166 59.9206 69.9237C60.0262 70.0119 60.0942 70.1371 60.1106 70.2737C60.1265 70.4562 60.0919 70.6395 60.0106 70.8037C59.6793 71.463 59.2661 72.0779 58.7806 72.6337C58.1906 73.3737 57.2906 74.4237 56.5306 75.2837C56.1506 75.7137 54.9706 76.9837 54.7206 77.2837L54.4306 77.6037L54.3506 77.6937L54.7106 78.0237L54.3506 77.6937C54.2684 77.7839 54.2228 77.9016 54.2228 78.0237C54.2228 78.1457 54.2684 78.2634 54.3506 78.3537C54.4392 78.4352 54.5552 78.4804 54.6756 78.4804C54.796 78.4804 54.912 78.4352 55.0006 78.3537L59.6906 74.3537C59.9671 74.1414 60.2784 73.979 60.6106 73.8737C60.679 73.8477 60.7531 73.8405 60.8252 73.8528C60.8973 73.8651 60.9647 73.8965 61.0206 73.9437C61.0206 73.9437 61.1306 74.1037 60.9406 74.5137C60.6288 75.1193 60.2201 75.6699 59.7306 76.1437L53.6506 82.5237C53.5768 82.5995 53.5307 82.698 53.5198 82.8032C53.5089 82.9085 53.5339 83.0144 53.5906 83.1037C53.646 83.1948 53.7301 83.2649 53.8296 83.3029C53.9292 83.3409 54.0386 83.3447 54.1406 83.3137L58.1406 82.1137H58.1906H58.3906C58.5982 82.0722 58.809 82.0488 59.0206 82.0437C59.2372 82.026 59.4551 82.0533 59.6606 82.1237C59.799 82.1608 59.9174 82.2505 59.9906 82.3737C60.0213 82.4412 60.0372 82.5145 60.0372 82.5887C60.0372 82.6628 60.0213 82.7361 59.9906 82.8037C59.9329 82.9641 59.8327 83.1058 59.7006 83.2137C59.5656 83.3427 59.4143 83.4537 59.2506 83.5437L59.0906 83.6337H59.0306L58.8006 83.7337L57.9606 84.0937C57.2606 84.3937 56.2906 84.8037 55.2406 85.2337C53.1406 86.0937 47.1506 87.9437 45.6406 88.4337L40.3906 83.4337C40.5806 82.7537 40.9206 81.7737 41.1706 81.0537C41.2706 80.7937 41.3506 80.5637 41.4006 80.4037C41.6493 79.7916 41.9574 79.2055 42.3206 78.6537C42.7506 78.0737 43.3206 77.4537 43.9306 76.7237L44.0706 76.5637L50.7206 69.5637C51.2813 68.923 51.9604 68.3967 52.7206 68.0137C52.823 67.9637 52.9372 67.943 53.0506 67.9537C53.1128 67.9702 53.1686 68.005 53.2106 68.0537C53.2868 68.1067 53.3474 68.1793 53.3861 68.2637C53.4248 68.3481 53.4401 68.4413 53.4306 68.5337C53.2827 69.084 52.985 69.5825 52.5706 69.9737L49.6906 73.1437C49.6018 73.2365 49.5534 73.3608 49.5563 73.4893C49.5591 73.6177 49.6128 73.7398 49.7056 73.8287C49.7985 73.9175 49.9228 73.9658 50.0512 73.963C50.1797 73.9602 50.3018 73.9065 50.3906 73.8137L50.0506 73.4637L50.3906 73.8137L50.5906 73.6137L51.3106 72.9137C51.9106 72.3137 53.5806 70.6237 54.4706 69.7637C54.9922 69.1883 55.6205 68.7196 56.3206 68.3837C56.439 68.3279 56.5718 68.3105 56.7006 68.3337C56.784 68.3515 56.8605 68.3932 56.9206 68.4537C56.9641 68.4863 56.9994 68.5285 57.0237 68.5771C57.048 68.6257 57.0606 68.6793 57.0606 68.7337C57.0528 68.9228 57.0015 69.1076 56.9106 69.2737C56.6457 69.7675 56.3087 70.2192 55.9106 70.6137L54.0806 72.8037C53.7106 73.2337 52.5206 74.5137 52.2706 74.8037L51.9606 75.1537L51.8806 75.2537L52.2406 75.5737L52.5506 75.9437ZM52.5506 75.9437C52.5073 75.9896 52.4553 76.0266 52.3977 76.0525C52.3401 76.0784 52.2779 76.0926 52.2148 76.0945C52.1516 76.0964 52.0887 76.0858 52.0297 76.0633C51.9706 76.0409 51.9166 76.007 51.8706 75.9637C51.8247 75.9203 51.7877 75.8684 51.7618 75.8107C51.7359 75.7531 51.7216 75.691 51.7198 75.6278C51.7179 75.5647 51.7285 75.5018 51.751 75.4427C51.7734 75.3837 51.8073 75.3296 51.8506 75.2837L52.2106 75.6037L52.5506 75.9437Z" fill="white"/>
<path d="M45.6412 88.7738C45.6065 88.7754 45.5718 88.7701 45.5391 88.758C45.5065 88.746 45.4766 88.7276 45.4512 88.7038L40.2012 83.7038C40.1668 83.6688 40.1415 83.6258 40.1276 83.5787C40.1136 83.5317 40.1115 83.4819 40.1212 83.4338C40.3012 82.7638 40.6412 81.8138 40.8812 81.1138V81.0338C40.9712 80.7638 41.0512 80.5438 41.1112 80.3838C41.3801 79.7439 41.7153 79.1339 42.1112 78.5638C42.5412 77.9738 43.1112 77.3438 43.7212 76.6238L43.8712 76.4438L50.5212 69.4438C51.1159 68.781 51.8236 68.2291 52.6112 67.8138C52.7655 67.7474 52.9355 67.7266 53.1012 67.7538C53.2145 67.7829 53.3181 67.8415 53.4012 67.9238C53.5038 68.0095 53.5838 68.119 53.6344 68.2428C53.6849 68.3665 53.7044 68.5008 53.6912 68.6338C53.5387 69.2391 53.2201 69.7898 52.7712 70.2238L50.0212 73.2238C50.0615 73.2204 50.102 73.2259 50.14 73.2397C50.178 73.2535 50.2125 73.2754 50.2412 73.3038L50.3812 73.4438L51.1712 72.6738L52.3212 71.5238C53.0112 70.8338 53.8112 70.0338 54.3212 69.5238C54.868 68.9152 55.531 68.4221 56.2712 68.0738C56.4362 68.008 56.6157 67.9872 56.7912 68.0138C56.9302 68.0462 57.058 68.1153 57.1612 68.2138C57.2346 68.2752 57.294 68.3515 57.3354 68.4378C57.3768 68.524 57.3993 68.6181 57.4012 68.7138C57.3986 68.9443 57.3403 69.1707 57.2312 69.3738C56.9629 69.8866 56.6265 70.3609 56.2312 70.7838L54.3012 72.9738L53.3012 74.1038L52.5112 74.9738L52.2812 75.2338L52.5812 75.5238L52.9012 75.2138L53.6812 74.4238L54.9712 73.1138C55.8212 72.2738 56.9712 71.1138 57.5912 70.6038C58.0356 70.1526 58.5486 69.7746 59.1112 69.4838C59.2856 69.401 59.479 69.3665 59.6712 69.3838C59.8668 69.4202 60.0456 69.5183 60.1812 69.6638C60.2598 69.7278 60.325 69.8066 60.3731 69.8959C60.4211 69.9851 60.4511 70.0829 60.4612 70.1838C60.4801 70.4105 60.4387 70.6382 60.3412 70.8438C60.0071 71.5355 59.5798 72.1781 59.0712 72.7538C58.5812 73.3638 57.8212 74.2638 56.8112 75.4138L55.6112 76.7238L55.0012 77.3838L54.7912 77.6238L54.9412 77.7638C54.9707 77.7901 54.994 77.8225 55.0096 77.8588C55.0251 77.8951 55.0325 77.9343 55.0312 77.9738L59.5612 74.1538C59.8588 73.9143 60.1978 73.7312 60.5612 73.6138C60.6737 73.5756 60.7943 73.5684 60.9105 73.5931C61.0266 73.6177 61.134 73.6732 61.2212 73.7538C61.4012 73.9538 61.3812 74.2438 61.2212 74.6338C60.8894 75.2694 60.461 75.8496 59.9512 76.3538L53.8812 82.7738C53.8553 82.8084 53.8412 82.8505 53.8412 82.8938C53.8412 82.937 53.8553 82.9792 53.8812 83.0138C53.9026 83.0537 53.9375 83.0847 53.9796 83.1012C54.0218 83.1177 54.0685 83.1186 54.1112 83.1038L58.1112 81.9038H58.1912H58.4112C58.6345 81.8537 58.8624 81.8269 59.0912 81.8238C59.338 81.8084 59.5856 81.8389 59.8212 81.9138C60.022 81.9806 60.1902 82.1206 60.2921 82.306C60.3941 82.4914 60.4224 82.7085 60.3712 82.9138C60.2937 83.1184 60.1666 83.3005 60.0012 83.4438C59.8539 83.5841 59.6892 83.7051 59.5112 83.8038L59.3312 83.9038H59.2612L59.1312 83.6538L59.1812 83.9338L58.1112 84.3938C57.4112 84.7038 56.4412 85.1038 55.3912 85.5338C53.6812 86.2438 49.3912 87.6038 47.0612 88.3438L45.7712 88.7538L45.6412 88.7738ZM40.7112 83.4038L45.7112 88.1838L46.8812 87.8138C49.1912 87.0838 53.4812 85.7238 55.1712 85.0338L57.8812 83.8738L58.8812 83.4338H58.9512H59.0012L59.1512 83.3538C59.2905 83.2702 59.4211 83.173 59.5412 83.0638C59.6353 82.9808 59.7104 82.8785 59.7612 82.7638C59.7875 82.6962 59.7875 82.6213 59.7612 82.5538C59.7612 82.5538 59.7612 82.4838 59.5912 82.4338C59.4157 82.3844 59.2333 82.3642 59.0512 82.3738C58.8525 82.374 58.6545 82.3975 58.4612 82.4438H58.2912L58.1612 82.1938L58.2212 82.4638L54.2212 83.6638C54.0591 83.7156 53.8843 83.7114 53.7247 83.652C53.5652 83.5926 53.4303 83.4814 53.3415 83.3361C53.2528 83.1909 53.2153 83.02 53.2352 82.851C53.2551 82.6819 53.3312 82.5244 53.4512 82.4038L59.5312 76.0338C60.0001 75.5803 60.3919 75.0534 60.6912 74.4738C60.7317 74.3911 60.7619 74.3038 60.7812 74.2138H60.6812C60.3823 74.3139 60.1019 74.4625 59.8512 74.6538L55.1812 78.5938C55.0354 78.733 54.8402 78.8086 54.6386 78.8039C54.437 78.7992 54.2455 78.7146 54.1062 78.5688C53.967 78.4229 53.8914 78.2277 53.8961 78.0261C53.9008 77.8245 53.9854 77.633 54.1312 77.4938L54.5012 77.0838L55.1412 76.3838L56.3312 75.0838C57.3312 73.9338 58.0912 73.0838 58.5712 72.4438C59.0376 71.9074 59.4372 71.3164 59.7612 70.6838C59.8213 70.559 59.8521 70.4222 59.8512 70.2838C59.8328 70.2144 59.7946 70.1518 59.7412 70.1038C59.6862 70.042 59.6124 69.9998 59.5312 69.9838C59.4457 69.9641 59.3568 69.9641 59.2712 69.9838C58.7705 70.2521 58.3094 70.5887 57.9012 70.9838C57.3012 71.5238 56.1512 72.6438 55.3012 73.4738L54.0512 74.8738L53.2612 75.6638L52.7912 76.1438C52.6504 76.2514 52.4763 76.3064 52.2991 76.2992C52.122 76.292 51.9529 76.2231 51.8212 76.1045C51.6895 75.9858 51.6034 75.8248 51.5778 75.6494C51.5523 75.4739 51.5889 75.2951 51.6812 75.1438L52.0912 74.6838C52.2112 74.5438 52.5312 74.1838 52.8912 73.8038L53.8912 72.6838L55.8212 70.4938C56.1888 70.1121 56.5018 69.6813 56.7512 69.2138C56.8203 69.0873 56.8612 68.9475 56.8712 68.8038C56.8712 68.8038 56.8712 68.8038 56.8712 68.7238C56.8391 68.6914 56.8019 68.6644 56.7612 68.6438C56.6821 68.6273 56.6004 68.6273 56.5212 68.6438C55.8581 68.9666 55.2639 69.4149 54.7712 69.9638C54.2512 70.4738 53.4512 71.2738 52.7712 71.9638L51.6112 73.1138L50.6112 74.1138C50.4704 74.2214 50.2963 74.2764 50.1191 74.2692C49.942 74.262 49.7729 74.1931 49.6412 74.0745C49.5095 73.9558 49.4234 73.7948 49.3978 73.6194C49.3723 73.4439 49.4089 73.2651 49.5012 73.1138L52.3512 69.8738C52.7193 69.5231 52.9883 69.0816 53.1312 68.5938C53.1312 68.5138 53.1312 68.4738 53.0012 68.3438C52.8712 68.2138 52.9312 68.3438 52.8012 68.3438C52.0743 68.7084 51.4228 69.2071 50.8812 69.8138L44.1012 76.9638C43.4612 77.6938 42.9312 78.3138 42.5112 78.8838C42.1653 79.4162 41.8674 79.9785 41.6212 80.5638L41.4012 81.2038V81.2838C41.1912 81.9238 40.8812 82.7738 40.7112 83.4038Z" fill="white"/>
<path d="M50.0127 80.6952L53.5173 79.8737L49.9669 79.0399L49.1177 75.7913L48.2652 79.0399L44.7148 79.8737L48.2195 80.6952L49.1177 84.1168L50.0127 80.6952Z" fill="#00C65E"/>
<path d="M80.7549 80.6952L84.2595 79.8737L80.7091 79.0399L79.8599 75.7913L79.0074 79.0399L75.457 79.8737L78.9617 80.6952L79.8599 84.1168L80.7549 80.6952Z" fill="#00C65E"/>
<path d="M91.4422 45.6339C90.3422 40.4539 82.8822 32.4639 75.1422 30.0239C68.9622 28.0239 65.8722 46.0939 64.8122 53.5839L64.7422 54.1039C70.9822 53.7539 92.3722 50.0139 91.4422 45.6339ZM64.8822 53.8739C66.5922 47.4439 70.3822 35.5439 76.2922 37.4439C76.8703 37.553 77.3958 37.8508 77.7867 38.2905C78.1775 38.7301 78.4115 39.287 78.4522 39.8739C78.8822 44.1339 71.1122 48.4839 64.8822 53.8739Z" fill="#00C65E"/>
<path d="M64.6412 53.5839C63.5812 46.0939 60.4912 28.0639 54.3212 30.0239C46.5812 32.4639 39.1112 40.4539 38.0112 45.6339C37.0912 50.0139 58.4712 53.7539 64.7112 54.1039V54.1639V54.1039L64.6412 53.5839ZM51.0012 39.8739C51.0284 39.2779 51.2552 38.7083 51.6451 38.2567C52.0351 37.8051 52.5655 37.4977 53.1512 37.3839C59.0612 35.4839 62.8512 47.3839 64.5612 53.8139C58.3412 48.4839 50.5912 44.1339 51.0012 39.8739Z" fill="#00C65E"/>
<defs>
<filter id="filter0_d_5137_19140" x="0" y="0.5" width="133" height="133" filterUnits="userSpaceOnUse" color-interpolation-filters="sRGB">
<feFlood flood-opacity="0" result="BackgroundImageFix"/>
<feColorMatrix in="SourceAlpha" type="matrix" values="0 0 0 0 0 0 0 0 0 0 0 0 0 0 0 0 0 0 127 0" result="hardAlpha"/>
<feMorphology radius="3" operator="dilate" in="SourceAlpha" result="effect1_dropShadow_5137_19140"/>
<feOffset dx="1" dy="2"/>
<feGaussianBlur stdDeviation="8"/>
<feColorMatrix type="matrix" values="0 0 0 0 0.211765 0 0 0 0 0.227451 0 0 0 0 0.270588 0 0 0 0.08 0"/>
<feBlend mode="normal" in2="BackgroundImageFix" result="effect1_dropShadow_5137_19140"/>
<feBlend mode="normal" in="SourceGraphic" in2="effect1_dropShadow_5137_19140" result="shape"/>
</filter>
</defs>
</svg>
