<svg width="133" height="134" viewBox="0 0 133 134" fill="none" xmlns="http://www.w3.org/2000/svg">
<g filter="url(#filter0_d_5137_20254)">
<circle cx="65.5" cy="65" r="47.5" fill="white"/>
</g>
<path d="M85.8486 39.8552H87.0281C87.2705 39.8562 87.5107 39.8095 87.7349 39.7181C87.9591 39.6266 88.1628 39.492 88.3346 39.3221C88.5063 39.1522 88.6425 38.9503 88.7355 38.7279C88.8285 38.5056 88.8763 38.2672 88.8763 38.0264V36.9277C88.8744 36.442 88.6789 35.9769 88.3325 35.6341C87.9861 35.2913 87.5171 35.0989 87.0281 35.0989L85.8486 39.8552ZM85.8486 39.8552C85.5582 39.6541 85.264 39.4577 84.9661 39.2663L84.5877 39.8552V40.5552H85.6284C89.5457 43.311 92.7424 46.9675 94.9409 51.22C97.331 55.8432 98.4574 61.0087 98.2074 66.1999C97.9575 71.3912 96.3399 76.4263 93.5165 80.8018C90.6931 85.1773 86.7629 88.7398 82.1187 91.1331L85.8486 39.8552ZM84.5877 39.1552H82.2033L84.2093 40.4441C88.4995 43.2008 91.9855 47.0276 94.3191 51.5415C96.6527 56.0553 97.7523 61.0983 97.5083 66.1663C97.2642 71.2342 95.6851 76.1501 92.9284 80.4223C90.202 84.6474 86.4182 88.0966 81.9478 90.4331H54.8093C50.339 88.0966 46.5552 84.6474 43.8288 80.4223C41.0721 76.1501 39.493 71.2342 39.2489 66.1663C39.0049 61.0983 40.1045 56.0553 42.4381 51.5415C44.7717 47.0276 48.2577 43.2008 52.5479 40.4441L54.5539 39.1552H52.1695H49.7219C49.4178 39.1552 49.1271 39.0352 48.9134 38.823C48.7 38.6109 48.5809 38.3243 48.5809 38.0264V36.9293C48.5823 36.6315 48.702 36.3453 48.9155 36.1332C49.1291 35.921 49.4194 35.8003 49.7234 35.7989H87.0281C87.3334 35.7989 87.6253 35.9191 87.8401 36.1317C88.0544 36.3437 88.1747 36.6304 88.1763 36.9288V38.0264C88.1763 38.1744 88.1469 38.321 88.0897 38.4579C88.0324 38.5948 87.9484 38.7194 87.8422 38.8245C87.736 38.9296 87.6097 39.0131 87.4704 39.0699C87.3311 39.1268 87.1817 39.1558 87.0308 39.1552H87.0281H84.5877Z" stroke="#00C65E" stroke-width="1.4"/>
<path d="M41.1309 52.635C38.0123 59.5524 37.6741 67.3925 40.1854 74.5496C42.6967 81.7067 47.8676 87.6393 54.639 91.1324H82.1192C88.8906 87.6393 94.0614 81.7067 96.5728 74.5496C99.0841 67.3925 98.7458 59.5524 95.6273 52.635H41.1309Z" fill="#00C65E"/>
<path d="M49.2871 69.7033C50.7728 71.5396 52.5038 73.166 54.4321 74.5376L56.1946 73.5807L56.53 75.608C67.7119 81.0377 76.5104 69.7033 76.5104 69.7033C61.6821 53.9244 49.2871 69.7033 49.2871 69.7033Z" fill="#F9B565"/>
<path d="M49.2871 69.7031C50.782 71.6827 52.6152 73.3862 54.7032 74.7359L55.5381 75.2038C56.4504 75.6819 57.4061 76.0735 58.3924 76.3734C59.6721 74.3829 60.3392 72.0647 60.312 69.7031C60.3706 67.5239 59.7985 65.3737 58.6636 63.5078C54.8554 64.3055 51.4998 66.5227 49.2871 69.7031Z" fill="#F3935A"/>
<path d="M57.4867 69.9437C58.4286 69.9437 59.1922 69.2328 59.1922 68.3559C59.1922 67.479 58.4286 66.7681 57.4867 66.7681C56.5448 66.7681 55.7812 67.479 55.7812 68.3559C55.7812 69.2328 56.5448 69.9437 57.4867 69.9437Z" fill="white"/>
<path d="M57.1367 67.2368C57.2557 67.184 57.3846 67.1567 57.5149 67.1567C57.6452 67.1567 57.7741 67.184 57.8931 67.2368C58.1365 67.335 58.3452 67.5027 58.4925 67.7188C58.6455 67.9239 58.728 68.1724 58.728 68.4277C58.728 68.6829 58.6455 68.9314 58.4925 69.1365C58.3266 68.7788 58.1358 68.433 57.9217 68.1016C57.7003 67.7796 57.4363 67.4887 57.1367 67.2368Z" fill="#F3935A"/>
<path d="M62.3242 77.1323L69.8097 80.5702C70.6732 79.4928 70.0381 75.0767 70.0381 75.0767C70.0381 75.0767 66.0206 77.1819 62.3242 77.1323Z" fill="#F3935A"/>
<path d="M53.6953 65.5069C53.6953 65.5069 57.8127 60.545 63.8354 60.3181C67.7512 60.2418 71.6479 60.8809 75.3312 62.2037L71.8132 65.6699C71.8132 65.6699 63.9424 59.9708 53.6953 65.5069Z" fill="#F3935A"/>
<path d="M75.332 68.5196L76.4952 69.7034L75.332 70.9013C76.4824 71.7853 77.7628 72.4882 79.1283 72.9854C80.8303 73.5775 82.6033 73.9445 84.4017 74.077C84.4017 74.077 83.3599 69.7176 80.4984 68.9378C81.3646 68.2064 82.0142 67.2546 82.3775 66.1845C82.7408 65.1144 82.8041 63.9662 82.5606 62.863C80.7464 63.3423 79.1076 64.3259 77.8367 65.6984C76.9447 66.549 75.332 68.5196 75.332 68.5196Z" fill="#F3935A"/>
<path d="M54.418 74.5521C54.7387 74.3341 55.0461 74.0974 55.3385 73.8433C55.6301 73.6078 55.885 73.3307 56.0949 73.021C55.9882 73.3943 55.8271 73.7501 55.6168 74.0772C55.4366 74.3739 55.2364 74.6581 55.0174 74.9278L54.7319 74.7718L54.418 74.5521Z" fill="#F9B565"/>
<path d="M47.6719 68.1469C48.9685 68.1469 50.0196 67.1028 50.0196 65.8148C50.0196 64.5268 48.9685 63.4827 47.6719 63.4827C46.3753 63.4827 45.3242 64.5268 45.3242 65.8148C45.3242 67.1028 46.3753 68.1469 47.6719 68.1469Z" fill="white"/>
<path d="M50.7563 61.1005C51.5957 61.1005 52.2762 60.4245 52.2762 59.5907C52.2762 58.7568 51.5957 58.0808 50.7563 58.0808C49.9168 58.0808 49.2363 58.7568 49.2363 59.5907C49.2363 60.4245 49.9168 61.1005 50.7563 61.1005Z" fill="white"/>
<path d="M47.1878 56.2236C47.7435 56.2236 48.1939 55.7761 48.1939 55.2241C48.1939 54.6721 47.7435 54.2246 47.1878 54.2246C46.6321 54.2246 46.1816 54.6721 46.1816 55.2241C46.1816 55.7761 46.6321 56.2236 47.1878 56.2236Z" fill="white"/>
<path opacity="0.5" d="M88.8769 36.9269V38.0256C88.8769 38.5107 88.6829 38.9758 88.3377 39.3188C87.9924 39.6618 87.5241 39.8544 87.0358 39.8544H84.5882C88.9797 42.6779 92.5484 46.5967 94.9378 51.2193C97.3272 55.8418 98.4535 61.0063 98.2043 66.1968C97.9551 71.3872 96.3391 76.4218 93.5178 80.7975C90.6964 85.1732 86.7684 88.7368 82.1264 91.1323H54.6391C54.6391 91.1323 78.009 85.6104 88.7056 70.9444C92.8301 65.2736 95.1279 51.8056 84.0174 41.8817C80.3067 38.5998 88.8769 36.7072 88.8769 36.9269Z" fill="white"/>
<path d="M91.0997 92.1869L96.4543 91.015L91.0312 89.8303L89.7311 85.1985L88.4309 89.8303L83.0078 91.015L88.3582 92.1869L89.7311 97.0668L91.0997 92.1869Z" fill="#F9B565"/>
<path d="M41.5972 40.4733L47.4478 39.1929L41.5224 37.8985L40.1018 32.8376L38.6812 37.8985L32.7559 39.1929L38.6018 40.4733L40.1018 45.8052L41.5972 40.4733Z" fill="#FD9558"/>
<defs>
<filter id="filter0_d_5137_20254" x="0" y="0.5" width="133" height="133" filterUnits="userSpaceOnUse" color-interpolation-filters="sRGB">
<feFlood flood-opacity="0" result="BackgroundImageFix"/>
<feColorMatrix in="SourceAlpha" type="matrix" values="0 0 0 0 0 0 0 0 0 0 0 0 0 0 0 0 0 0 127 0" result="hardAlpha"/>
<feMorphology radius="3" operator="dilate" in="SourceAlpha" result="effect1_dropShadow_5137_20254"/>
<feOffset dx="1" dy="2"/>
<feGaussianBlur stdDeviation="8"/>
<feColorMatrix type="matrix" values="0 0 0 0 0.211765 0 0 0 0 0.227451 0 0 0 0 0.270588 0 0 0 0.08 0"/>
<feBlend mode="normal" in2="BackgroundImageFix" result="effect1_dropShadow_5137_20254"/>
<feBlend mode="normal" in="SourceGraphic" in2="effect1_dropShadow_5137_20254" result="shape"/>
</filter>
</defs>
</svg>
