<svg width="133" height="134" viewBox="0 0 133 134" fill="none" xmlns="http://www.w3.org/2000/svg">
<g filter="url(#filter0_d_5137_19670)">
<circle cx="65.5" cy="65" r="47.5" fill="white"/>
</g>
<path d="M62.204 91.3772C66.7716 91.3772 70.4744 87.6744 70.4744 83.1068C70.4744 78.5392 66.7716 74.8364 62.204 74.8364C57.6364 74.8364 53.9336 78.5392 53.9336 83.1068C53.9336 87.6744 57.6364 91.3772 62.204 91.3772Z" stroke="#FD9558" stroke-width="6" stroke-miterlimit="10"/>
<path d="M62.5696 87.877C65.5205 87.877 67.9126 85.4848 67.9126 82.534C67.9126 79.5831 65.5205 77.1909 62.5696 77.1909C59.6187 77.1909 57.2266 79.5831 57.2266 82.534C57.2266 85.4848 59.6187 87.877 62.5696 87.877Z" stroke="#FFB762" stroke-width="2" stroke-miterlimit="10"/>
<path d="M83.9684 64.8333C79.7634 63.5192 74.0555 64.3405 69.4645 63.0346C64.9227 61.5481 58.9602 56.3083 54.747 55.0106C49.4168 53.3681 44.0702 55.372 42.7726 59.5031C41.4749 63.6342 44.8587 67.7735 49.8932 71.4693C54.4606 74.596 59.4345 77.0829 64.6764 78.8609C69.2301 80.2328 73.9425 81.0085 78.6958 81.1687C84.9458 81.1276 90.046 79.4276 91.319 75.2965C92.592 71.1654 89.3068 66.4841 83.9684 64.8333ZM55.9461 63.626C55.4451 64.8251 53.7532 65.2685 52.1681 64.6033C50.583 63.9381 49.7043 62.4269 50.2135 61.2278C50.7227 60.0287 52.4063 59.5852 53.9914 60.2423C55.5765 60.8993 56.406 62.4187 55.9461 63.626ZM83.8699 72.2495C83.3689 73.4568 81.677 73.8921 80.1002 73.2351C78.5233 72.578 77.6363 71.0586 78.1455 69.8596C78.6547 68.6605 80.3383 68.217 81.9234 68.874C83.5085 69.531 84.3544 71.0504 83.8699 72.2495Z" fill="#00C65E"/>
<path d="M69.7597 63.0193C67.9857 62.4697 66.2844 61.7087 64.6923 60.7526C63.0497 59.8491 61.4893 58.8965 59.9042 57.9684C58.3714 57.0153 56.7415 56.2279 55.0422 55.6195C53.3668 55.0983 51.5956 54.9608 49.8598 55.2171C48.165 55.426 46.5775 56.1581 45.3181 57.3114C44.7317 57.8683 44.2758 58.5482 43.9833 59.3022C43.6908 60.0562 43.5688 60.8657 43.6262 61.6724C43.8793 63.3485 44.619 64.9135 45.7534 66.1731C46.896 67.5525 48.1725 68.8152 49.5642 69.9428L50.6236 70.7641C50.9686 71.0269 51.3217 71.2733 51.6995 71.5279C52.4469 72.0289 53.2271 72.5052 54.0073 72.9733C55.576 73.9014 57.1939 74.7638 58.8283 75.5933C60.4627 76.4228 62.1135 77.1866 63.8135 77.8436C65.5295 78.5036 67.2919 79.0361 69.0862 79.4369C72.6353 80.3032 76.2739 80.7498 79.9272 80.7674C81.7605 80.7549 83.5847 80.5093 85.3559 80.0364C87.1429 79.5925 88.793 78.7153 90.1605 77.4822C88.8514 78.8164 87.2273 79.7993 85.4381 80.3403C83.6582 80.8961 81.8145 81.2218 79.9519 81.3094C76.2251 81.4654 72.4937 81.1453 68.848 80.3567C67.0141 80.0036 65.2038 79.5373 63.4275 78.9605C61.6605 78.3471 59.9254 77.6454 58.2288 76.858C56.5451 76.0368 54.8861 75.2155 53.2518 74.3203C52.4305 73.8603 51.6092 73.3922 50.8372 72.883C50.4429 72.6202 50.0159 72.3492 49.6545 72.0617L48.554 71.1747C47.0564 69.9926 45.6807 68.6637 44.4475 67.2079C43.1097 65.69 42.2522 63.8093 41.9837 61.8038C41.9064 60.7619 42.0675 59.716 42.4545 58.7455C42.8416 57.7751 43.4445 56.9055 44.2176 56.2026C45.7297 54.8722 47.6184 54.0456 49.6217 53.8373C51.5636 53.622 53.5292 53.8495 55.3707 54.5026C57.1119 55.2136 58.7654 56.123 60.2984 57.2128C63.4686 59.2414 66.3431 61.5821 69.7597 63.0193Z" fill="#08A636"/>
<path d="M56.1997 63.6099C56.0428 63.9412 55.8139 64.2332 55.5297 64.4648C55.2455 64.6964 54.9133 64.8617 54.5571 64.9486C53.8072 65.154 53.0157 65.154 52.2657 64.9486C51.4589 64.7437 50.7357 64.2931 50.1961 63.6592C49.8678 63.2894 49.6505 62.8346 49.5691 62.3469C49.4877 61.8592 49.5455 61.3584 49.7359 60.9021C49.9263 60.4458 50.2416 60.0524 50.6455 59.7672C51.0495 59.4821 51.5256 59.3166 52.0194 59.2899C52.8617 59.2135 53.706 59.4124 54.4257 59.8566C55.0972 60.248 55.6483 60.8162 56.019 61.4992C56.2042 61.8154 56.3166 62.169 56.3478 62.5341C56.3791 62.8993 56.3285 63.2668 56.1997 63.6099ZM56.1997 63.6099C56.3203 63.2753 56.3473 62.9142 56.2778 62.5654C56.2084 62.2166 56.0451 61.8934 55.8055 61.6306C55.3543 61.1155 54.7498 60.7585 54.0808 60.6122C52.7996 60.3083 51.4773 60.8093 51.2227 61.532C50.9681 62.2548 51.4609 63.5195 52.5778 64.2176C53.1498 64.591 53.8259 64.7722 54.5079 64.735C54.8652 64.7179 55.2113 64.6043 55.5092 64.4061C55.8071 64.208 56.0457 63.9328 56.1997 63.6099Z" fill="#08A636"/>
<path d="M76.6328 32.8906C82.7384 34.7758 85.8889 41.9599 83.7235 48.9486C82.6829 52.3588 80.6559 55.3845 77.8981 57.6442C75.8164 59.3884 74.2585 61.6752 73.3974 64.2509C72.786 66.1445 72.9813 68.6581 71.9623 69.7366C70.264 71.5029 65.6274 70.7216 64.6509 70.4244C63.6743 70.1272 59.369 68.1231 58.9953 65.7284C58.7661 64.2678 60.337 62.3317 60.8975 60.3956C61.643 57.7841 61.643 55.0162 60.8975 52.4048C59.8974 48.9844 59.9299 45.3448 60.9909 41.9429C63.2073 34.9456 69.8733 30.8016 75.945 32.6783L76.6328 32.8906Z" fill="#FD9558"/>
<path d="M77.9629 35.415C83.868 37.2382 86.915 44.1863 84.8207 50.9455C83.8143 54.2437 81.8539 57.17 79.1866 59.3555C77.1733 61.0424 75.6666 63.2541 74.8338 65.7452C74.2425 67.5766 74.4314 70.0077 73.4458 71.0507C71.8033 72.759 67.319 72.0034 66.3745 71.7159C65.4301 71.4285 61.2661 69.4902 60.9048 67.1742C60.683 65.7616 62.2024 63.8891 62.7444 62.0165C63.4654 59.4909 63.4654 56.8139 62.7444 54.2882C61.7772 50.9802 61.8086 47.4601 62.8348 44.1699C64.9783 37.4025 71.4255 33.3946 77.2977 35.2096L77.9629 35.415Z" fill="#FFB762"/>
<path d="M66.8002 53.7585C65.3046 52.1581 64.4686 50.052 64.4595 47.8616C64.3834 45.5999 64.9901 43.3676 66.2006 41.4555C67.4317 39.4521 69.3312 37.9481 71.5636 37.2095C72.681 36.8445 73.8699 36.7543 75.0295 36.9467C76.1295 37.1302 77.1469 37.6461 77.9451 38.425C76.212 38.7571 74.5956 39.5356 73.2555 40.6835C72.1214 41.675 71.1439 42.8324 70.3563 44.1165C69.5124 45.4573 68.8184 46.8867 68.2867 48.379C67.6529 50.131 67.1559 51.9296 66.8002 53.7585Z" fill="#FD9558"/>
<path d="M71.0187 65.7516C71.2648 66.7274 71.8704 67.5742 72.7142 68.1226C72.8167 64.5407 74.9406 61.2505 75.9898 60.0531C75.5478 59.7939 75.0371 59.6763 74.5263 59.716C73.9879 59.7584 73.4677 59.9299 73.0097 60.2162C72.0958 60.7923 71.4149 61.6729 71.0873 62.7024C70.7588 63.6888 70.7349 64.7514 71.0187 65.7516Z" fill="white"/>
<path d="M78.0631 69.9999C78.2057 69.6579 78.4193 69.35 78.6897 69.0966C78.9601 68.8431 79.2812 68.65 79.6317 68.5298C80.3821 68.2311 81.1985 68.1376 81.997 68.2588C82.8987 68.3785 83.7328 68.8014 84.3623 69.4579C84.7254 69.8347 84.9856 70.2985 85.1179 70.8048C85.2827 71.3795 85.2626 71.9915 85.0604 72.5541C84.8513 73.1064 84.4825 73.5839 84.001 73.9257C83.5698 74.2215 83.0743 74.4102 82.5555 74.4759C81.6503 74.572 80.7391 74.3608 79.9685 73.8764C79.2803 73.4505 78.7144 72.8534 78.3259 72.1435C78.1332 71.825 78.0102 71.4693 77.9649 71.0999C77.9196 70.7304 77.9531 70.3555 78.0631 69.9999ZM78.0631 69.9999C77.9592 70.3391 77.9543 70.7008 78.0489 71.0427C78.1434 71.3846 78.3335 71.6924 78.5969 71.93C79.0867 72.385 79.7198 72.6551 80.3873 72.6938C80.9519 72.7357 81.5177 72.631 82.0299 72.3899C82.344 72.256 82.5941 72.0059 82.728 71.6918C82.827 71.3667 82.7946 71.0158 82.6376 70.7144C82.4019 70.191 82.0304 69.7402 81.5618 69.4086C81.0213 69.0107 80.3593 68.8133 79.6892 68.8501C79.3372 68.8684 78.9976 68.9862 78.7097 69.1897C78.4219 69.3932 78.1977 69.6741 78.0631 69.9999Z" fill="#08A636"/>
<path d="M42.5834 90.8928L49.5329 89.264L42.4927 87.6106L40.8087 81.1687L39.1183 87.6106L32.0781 89.264L39.0276 90.8928L40.8087 97.6776L42.5834 90.8928Z" fill="#FD9558"/>
<path d="M94.8363 46.17L98.9231 45.2087L94.778 44.235L93.7871 40.4446L92.7896 44.235L88.6445 45.2087L92.7378 46.17L93.7871 50.1626L94.8363 46.17Z" fill="#1CBBC1"/>
<defs>
<filter id="filter0_d_5137_19670" x="0" y="0.5" width="133" height="133" filterUnits="userSpaceOnUse" color-interpolation-filters="sRGB">
<feFlood flood-opacity="0" result="BackgroundImageFix"/>
<feColorMatrix in="SourceAlpha" type="matrix" values="0 0 0 0 0 0 0 0 0 0 0 0 0 0 0 0 0 0 127 0" result="hardAlpha"/>
<feMorphology radius="3" operator="dilate" in="SourceAlpha" result="effect1_dropShadow_5137_19670"/>
<feOffset dx="1" dy="2"/>
<feGaussianBlur stdDeviation="8"/>
<feColorMatrix type="matrix" values="0 0 0 0 0.211765 0 0 0 0 0.227451 0 0 0 0 0.270588 0 0 0 0.08 0"/>
<feBlend mode="normal" in2="BackgroundImageFix" result="effect1_dropShadow_5137_19670"/>
<feBlend mode="normal" in="SourceGraphic" in2="effect1_dropShadow_5137_19670" result="shape"/>
</filter>
</defs>
</svg>
