<svg width="570" height="200" viewBox="0 0 570 200" fill="none" xmlns="http://www.w3.org/2000/svg">
<g filter="url(#filter0_d_1375_36057)">
<path d="M570 189.994C570 195.517 565.523 199.994 560 199.994H285H10C4.47717 199.994 0 195.517 0 189.994V9.99414C0 4.4713 4.47717 -0.00585938 10 -0.00585938H285H560C565.523 -0.00585938 570 4.4713 570 9.99414V189.994Z" fill="#FFB762"/>
<path d="M37.8242 39.9609C36.9336 39.9609 36.0898 40.0898 35.293 40.3242C34.4961 40.5586 33.8398 40.8281 33.3477 41.1211C32.8555 41.4258 32.3867 41.7656 31.9648 42.1406C31.5312 42.5273 31.25 42.7969 31.1328 42.9492C31.0156 43.1016 30.9219 43.2188 30.8633 43.3125L33.1367 45.5977L33.3359 45.3516C33.4414 45.1875 33.6289 44.9883 33.8984 44.7539C34.1562 44.5195 34.4727 44.2852 34.8242 44.0508C35.1758 43.8164 35.6094 43.6172 36.1484 43.4531C36.6875 43.2891 37.2383 43.1953 37.8242 43.1953C39.1367 43.1953 40.2617 43.5703 41.1992 44.3086C42.1367 45.0469 42.7695 45.9609 43.0977 47.0391H35.6562V50.2734H43.0977C42.7695 51.4336 42.1602 52.3828 41.2461 53.1211C40.332 53.8711 39.1953 54.2344 37.8242 54.2344C37.2148 54.2344 36.6172 54.1523 36.0547 53.9766C35.4805 53.8008 35.0234 53.6133 34.6836 53.4023C34.332 53.1914 34.0039 52.957 33.6992 52.6758C33.3828 52.4062 33.1836 52.2188 33.1016 52.1016C33.0078 51.9844 32.9492 51.9023 32.9023 51.832L30.7344 54.1172L31.0273 54.4805C31.2031 54.7031 31.4961 54.9727 31.8945 55.3008C32.293 55.6289 32.75 55.957 33.2773 56.2852C33.8047 56.6133 34.4727 56.8945 35.2812 57.1289C36.0898 57.3633 36.9336 57.4805 37.8242 57.4805C40.3789 57.4805 42.5352 56.625 44.293 54.9141C46.0508 53.2031 46.9414 51.1289 46.9414 48.7148C46.9414 46.3008 46.0625 44.2383 44.3164 42.5273C42.5586 40.8164 40.4023 39.9609 37.8242 39.9609ZM60.7344 45.3516H57.0195L52.8125 50.1562V45.3516H49.5781V57.1172H52.8125V54.2344L54.2539 52.5586L57.3711 57.1172H60.9805L56.293 50.4023L60.7344 45.3516ZM61.3203 51.2344C61.3203 52.875 61.9414 54.3047 63.207 55.5234C64.4609 56.7422 65.9492 57.3516 67.6719 57.3516C68.2812 57.3516 68.8672 57.2695 69.418 57.0938C69.9688 56.918 70.4141 56.7305 70.7539 56.5195C71.1055 56.3086 71.4219 56.0742 71.7148 55.8047C72.0195 55.5352 72.207 55.3477 72.2891 55.2305C72.3711 55.1133 72.4297 55.0312 72.4766 54.9609L70.5547 52.9219L70.2383 53.3203C70.0273 53.5781 69.6758 53.8359 69.1953 54.0938C68.7148 54.3516 68.2109 54.4805 67.6719 54.4805C66.8281 54.4805 66.1016 54.1641 65.4805 53.5312C64.8711 52.8984 64.5547 52.1367 64.5547 51.2461C64.5547 50.3555 64.8711 49.582 65.4805 48.9492C66.0898 48.3164 66.8281 48 67.6719 48C68.2109 48 68.7148 48.1523 69.1953 48.4336C69.6758 48.7148 69.9922 48.9492 70.1328 49.125C70.2734 49.3125 70.3789 49.4531 70.4375 49.5586L72.4766 47.5195L72.3008 47.2734C72.1836 47.1094 71.9844 46.8984 71.7031 46.6641C71.4336 46.4297 71.1172 46.207 70.7656 45.9727C70.4141 45.7383 69.9688 45.5391 69.418 45.375C68.8672 45.2109 68.2812 45.1172 67.6719 45.1172C65.9492 45.1172 64.4609 45.7383 63.1953 46.957C61.9414 48.1758 61.3203 49.6055 61.3203 51.2344ZM77.8906 48.2344H82.4492V57.1172H85.6953V45.3516H74.6562V57.1172H77.8906V48.2344ZM95.5273 57.3516C97.0508 57.3516 98.3633 56.7656 99.4883 55.582C100.613 54.3984 101.176 52.9453 101.176 51.2344C101.176 49.5234 100.613 48.082 99.4883 46.8984C98.3633 45.7148 97.0508 45.1172 95.5273 45.1172C95.0938 45.1172 94.6836 45.1875 94.2852 45.3047C93.8867 45.4219 93.5586 45.5625 93.3125 45.7148C93.0547 45.8672 92.8203 46.043 92.6094 46.2305C92.3984 46.418 92.2578 46.5469 92.1875 46.6172C92.1172 46.6875 92.0703 46.7461 92.0469 46.793V45.3516H88.8125V62.1562H92.0469V55.6758L92.4102 56.1094C92.6445 56.3906 93.0547 56.6602 93.6406 56.9414C94.2266 57.2227 94.8477 57.3516 95.5273 57.3516ZM94.9297 48C95.7266 48 96.4062 48.3047 96.9688 48.9141C97.5312 49.5234 97.8125 50.2969 97.8125 51.2461C97.8125 52.1836 97.5312 52.9688 96.9688 53.5781C96.4062 54.1875 95.7266 54.4922 94.9297 54.4922C94.1328 54.4922 93.4531 54.1875 92.8906 53.5781C92.3281 52.9688 92.0469 52.1836 92.0469 51.2461C92.0469 50.2969 92.3281 49.5234 92.8906 48.9141C93.4531 48.3047 94.1328 48 94.9297 48ZM114.734 52.3125L114.852 51C114.852 49.3242 114.289 47.9297 113.176 46.8047C112.051 45.6797 110.656 45.1172 108.98 45.1172C107.293 45.1172 105.852 45.7266 104.656 46.9219C103.449 48.1172 102.852 49.5586 102.852 51.2344C102.852 52.9219 103.461 54.3633 104.68 55.5586C105.898 56.7539 107.363 57.3516 109.098 57.3516C109.707 57.3516 110.293 57.2812 110.867 57.1406C111.441 57 111.91 56.8477 112.273 56.6602C112.625 56.4727 112.965 56.2617 113.293 56.0273C113.609 55.793 113.82 55.6289 113.914 55.5352L114.137 55.3125L112.461 53.1562L112.121 53.5195C111.91 53.7656 111.535 54.0117 111.02 54.2461C110.504 54.4805 109.941 54.5977 109.332 54.5977C108.488 54.5977 107.785 54.3867 107.234 53.9414C106.672 53.4961 106.332 52.957 106.215 52.3125H114.734ZM108.98 47.8828C109.66 47.8828 110.246 48.0938 110.715 48.4922C111.184 48.9023 111.488 49.418 111.617 50.0391H106.215C106.402 49.4062 106.742 48.8789 107.223 48.4805C107.703 48.082 108.289 47.8828 108.98 47.8828ZM116.539 51.2344C116.539 52.875 117.16 54.3047 118.426 55.5234C119.68 56.7422 121.168 57.3516 122.891 57.3516C123.5 57.3516 124.086 57.2695 124.637 57.0938C125.188 56.918 125.633 56.7305 125.973 56.5195C126.324 56.3086 126.641 56.0742 126.934 55.8047C127.238 55.5352 127.426 55.3477 127.508 55.2305C127.59 55.1133 127.648 55.0312 127.695 54.9609L125.773 52.9219L125.457 53.3203C125.246 53.5781 124.895 53.8359 124.414 54.0938C123.934 54.3516 123.43 54.4805 122.891 54.4805C122.047 54.4805 121.32 54.1641 120.699 53.5312C120.09 52.8984 119.773 52.1367 119.773 51.2461C119.773 50.3555 120.09 49.582 120.699 48.9492C121.309 48.3164 122.047 48 122.891 48C123.43 48 123.934 48.1523 124.414 48.4336C124.895 48.7148 125.211 48.9492 125.352 49.125C125.492 49.3125 125.598 49.4531 125.656 49.5586L127.695 47.5195L127.52 47.2734C127.402 47.1094 127.203 46.8984 126.922 46.6641C126.652 46.4297 126.336 46.207 125.984 45.9727C125.633 45.7383 125.188 45.5391 124.637 45.375C124.086 45.2109 123.5 45.1172 122.891 45.1172C121.168 45.1172 119.68 45.7383 118.414 46.957C117.16 48.1758 116.539 49.6055 116.539 51.2344ZM128.656 51.2344C128.656 52.875 129.277 54.3047 130.543 55.5234C131.797 56.7422 133.285 57.3516 135.008 57.3516C135.617 57.3516 136.203 57.2695 136.754 57.0938C137.305 56.918 137.75 56.7305 138.09 56.5195C138.441 56.3086 138.758 56.0742 139.051 55.8047C139.355 55.5352 139.543 55.3477 139.625 55.2305C139.707 55.1133 139.766 55.0312 139.812 54.9609L137.891 52.9219L137.574 53.3203C137.363 53.5781 137.012 53.8359 136.531 54.0938C136.051 54.3516 135.547 54.4805 135.008 54.4805C134.164 54.4805 133.438 54.1641 132.816 53.5312C132.207 52.8984 131.891 52.1367 131.891 51.2461C131.891 50.3555 132.207 49.582 132.816 48.9492C133.426 48.3164 134.164 48 135.008 48C135.547 48 136.051 48.1523 136.531 48.4336C137.012 48.7148 137.328 48.9492 137.469 49.125C137.609 49.3125 137.715 49.4531 137.773 49.5586L139.812 47.5195L139.637 47.2734C139.52 47.1094 139.32 46.8984 139.039 46.6641C138.77 46.4297 138.453 46.207 138.102 45.9727C137.75 45.7383 137.305 45.5391 136.754 45.375C136.203 45.2109 135.617 45.1172 135.008 45.1172C133.285 45.1172 131.797 45.7383 130.531 46.957C129.277 48.1758 128.656 49.6055 128.656 51.2344ZM145.355 54.2344V59.8828H148.59V57.1172H155.316V59.8828H158.551V54.2344H156.992V45.3516H147.992V48.5977C147.992 49.3359 147.922 50.0391 147.781 50.707C147.641 51.3633 147.488 51.9023 147.324 52.3008C147.16 52.6992 146.961 53.0742 146.738 53.4141C146.516 53.7422 146.363 53.9531 146.27 54.0469C146.176 54.1289 146.117 54.1992 146.07 54.2461L145.355 54.2344ZM150.992 48.2461H153.758V54.2461H149.434L149.844 53.625C150.102 53.2031 150.348 52.5586 150.605 51.6797C150.863 50.8008 150.992 49.8984 150.992 48.9727V48.2461ZM163.355 51.2461C163.355 50.3672 163.637 49.6289 164.211 49.0195C164.773 48.4219 165.453 48.1172 166.238 48.1172C167.012 48.1172 167.691 48.4219 168.266 49.0195C168.828 49.6289 169.121 50.3672 169.121 51.2461C169.121 52.125 168.828 52.8633 168.266 53.4609C167.691 54.0586 167.012 54.3516 166.238 54.3516C165.453 54.3516 164.773 54.0586 164.211 53.4609C163.637 52.8633 163.355 52.125 163.355 51.2461ZM172.473 51.2344C172.473 49.6055 171.852 48.1758 170.609 46.957C169.367 45.7383 167.914 45.1289 166.238 45.1289C164.551 45.1289 163.098 45.7383 161.855 46.957C160.613 48.1758 159.992 49.6055 159.992 51.2344C159.992 52.875 160.613 54.3047 161.855 55.5234C163.098 56.7422 164.551 57.3516 166.238 57.3516C167.914 57.3516 169.367 56.7422 170.609 55.5234C171.852 54.3047 172.473 52.875 172.473 51.2344ZM174.148 51.2344C174.148 52.875 174.77 54.3047 176.035 55.5234C177.289 56.7422 178.777 57.3516 180.5 57.3516C181.109 57.3516 181.695 57.2695 182.246 57.0938C182.797 56.918 183.242 56.7305 183.582 56.5195C183.934 56.3086 184.25 56.0742 184.543 55.8047C184.848 55.5352 185.035 55.3477 185.117 55.2305C185.199 55.1133 185.258 55.0312 185.305 54.9609L183.383 52.9219L183.066 53.3203C182.855 53.5781 182.504 53.8359 182.023 54.0938C181.543 54.3516 181.039 54.4805 180.5 54.4805C179.656 54.4805 178.93 54.1641 178.309 53.5312C177.699 52.8984 177.383 52.1367 177.383 51.2461C177.383 50.3555 177.699 49.582 178.309 48.9492C178.918 48.3164 179.656 48 180.5 48C181.039 48 181.543 48.1523 182.023 48.4336C182.504 48.7148 182.82 48.9492 182.961 49.125C183.102 49.3125 183.207 49.4531 183.266 49.5586L185.305 47.5195L185.129 47.2734C185.012 47.1094 184.812 46.8984 184.531 46.6641C184.262 46.4297 183.945 46.207 183.594 45.9727C183.242 45.7383 182.797 45.5391 182.246 45.375C181.695 45.2109 181.109 45.1172 180.5 45.1172C178.777 45.1172 177.289 45.7383 176.023 46.957C174.77 48.1758 174.148 49.6055 174.148 51.2344ZM186.277 48.4805H190.004V57.1172H193.238V48.4805H196.965V45.3516H186.277V48.4805ZM205.355 57.1172H208.59V49.793C208.59 48.457 208.121 47.3438 207.184 46.4531C206.246 45.5625 205.027 45.1172 203.551 45.1172C202.977 45.1172 202.414 45.2109 201.863 45.375C201.324 45.5391 200.879 45.7266 200.539 45.9258C200.211 46.125 199.895 46.3477 199.613 46.6055C199.332 46.8633 199.145 47.0508 199.062 47.1562C198.98 47.2617 198.91 47.3438 198.863 47.4023L200.656 49.1953L200.926 48.9141C201.113 48.7031 201.418 48.5039 201.852 48.3047C202.297 48.1055 202.777 48 203.305 48C203.949 48 204.453 48.1641 204.805 48.4688C205.168 48.7852 205.344 49.1836 205.344 49.6758L201.617 50.3438C200.539 50.543 199.684 50.9648 199.062 51.5977C198.453 52.2422 198.137 53.0391 198.137 54C198.137 54.9375 198.512 55.7227 199.238 56.3789C199.977 57.0352 200.926 57.3516 202.098 57.3516C202.707 57.3516 203.293 57.2227 203.855 56.9648C204.418 56.707 204.793 56.4961 204.957 56.332C205.121 56.168 205.25 56.0391 205.344 55.9219L205.355 57.1172ZM202.941 54.7148C201.91 54.7148 201.383 54.3164 201.383 53.5195C201.383 52.7812 201.828 52.3359 202.707 52.1953L205.344 51.7148V52.0781C205.344 52.9102 205.133 53.5547 204.699 54.0234C204.266 54.4922 203.68 54.7148 202.941 54.7148ZM211.719 45.3516V57.1172H217.836C219.113 57.1172 220.133 56.7891 220.895 56.1211C221.656 55.4648 222.043 54.6328 222.043 53.6367C222.043 53.2617 221.973 52.9102 221.832 52.582C221.691 52.2656 221.539 52.0195 221.375 51.832C221.211 51.6445 221.012 51.4805 220.789 51.3398C220.555 51.1992 220.402 51.1055 220.32 51.0703C220.227 51.0469 220.168 51.0234 220.121 51L220.473 50.7773C220.707 50.6602 220.953 50.3906 221.199 49.9922C221.434 49.5938 221.562 49.1367 221.562 48.5977C221.562 47.7188 221.188 46.957 220.461 46.3125C219.723 45.6797 218.773 45.3516 217.602 45.3516H211.719ZM217.602 52.0781C217.965 52.0781 218.258 52.1953 218.469 52.418C218.68 52.6406 218.797 52.9219 218.797 53.2734C218.797 53.625 218.68 53.918 218.469 54.1406C218.258 54.375 217.965 54.4805 217.602 54.4805H214.953V52.0781H217.602ZM218.316 48.9609C218.316 49.6055 217.988 49.9219 217.355 49.9219H214.953V48H217.355C217.988 48 218.316 48.3281 218.316 48.9609ZM235.602 45.3516H231.887L227.68 50.1562V45.3516H224.445V57.1172H227.68V54.2344L229.121 52.5586L232.238 57.1172H235.848L231.16 50.4023L235.602 45.3516ZM243.887 57.1172H247.121V49.793C247.121 48.457 246.652 47.3438 245.715 46.4531C244.777 45.5625 243.559 45.1172 242.082 45.1172C241.508 45.1172 240.945 45.2109 240.395 45.375C239.855 45.5391 239.41 45.7266 239.07 45.9258C238.742 46.125 238.426 46.3477 238.145 46.6055C237.863 46.8633 237.676 47.0508 237.594 47.1562C237.512 47.2617 237.441 47.3438 237.395 47.4023L239.188 49.1953L239.457 48.9141C239.645 48.7031 239.949 48.5039 240.383 48.3047C240.828 48.1055 241.309 48 241.836 48C242.48 48 242.984 48.1641 243.336 48.4688C243.699 48.7852 243.875 49.1836 243.875 49.6758L240.148 50.3438C239.07 50.543 238.215 50.9648 237.594 51.5977C236.984 52.2422 236.668 53.0391 236.668 54C236.668 54.9375 237.043 55.7227 237.77 56.3789C238.508 57.0352 239.457 57.3516 240.629 57.3516C241.238 57.3516 241.824 57.2227 242.387 56.9648C242.949 56.707 243.324 56.4961 243.488 56.332C243.652 56.168 243.781 56.0391 243.875 55.9219L243.887 57.1172ZM241.473 54.7148C240.441 54.7148 239.914 54.3164 239.914 53.5195C239.914 52.7812 240.359 52.3359 241.238 52.1953L243.875 51.7148V52.0781C243.875 52.9102 243.664 53.5547 243.23 54.0234C242.797 54.4922 242.211 54.7148 241.473 54.7148ZM39.7344 97.5977C39.7344 96.6602 39.3125 95.8398 38.4805 95.1484C37.6484 94.4688 36.5469 94.1172 35.1758 94.1172C34.6016 94.1172 34.0508 94.1875 33.5117 94.3281C32.9727 94.4688 32.5391 94.6211 32.2227 94.7852C31.8945 94.9492 31.6016 95.1484 31.3203 95.3711C31.0391 95.5938 30.8633 95.7461 30.7812 95.8398C30.6992 95.9336 30.6406 95.9922 30.6172 96.0391L32.4219 97.832L32.7266 97.5742C32.9375 97.3867 33.2422 97.1992 33.6406 97.0234C34.0391 96.8477 34.4375 96.7539 34.8242 96.7539C35.8555 96.7656 36.3828 97.1641 36.3828 97.9609C36.3828 98.2891 36.2422 98.5469 35.9844 98.7461C35.7266 98.9453 35.3398 99.0391 34.8242 99.0391H33.6172V101.195H34.8242C36.0898 101.207 36.7344 101.605 36.7344 102.402C36.7344 102.789 36.5703 103.105 36.2422 103.352C35.9141 103.598 35.4453 103.715 34.8242 103.715C34.2852 103.715 33.7812 103.598 33.3008 103.352C32.8203 103.105 32.5039 102.906 32.3633 102.766C32.2227 102.625 32.1172 102.496 32.0586 102.402L30.2539 104.195L30.4531 104.441C30.5586 104.582 30.7461 104.758 31.0273 104.969C31.2969 105.18 31.6133 105.379 31.9766 105.59C32.3516 105.801 32.8203 105.988 33.3828 106.129C33.9453 106.281 34.543 106.352 35.1641 106.352C36.7695 106.352 38.0117 106.023 38.8906 105.344C39.7695 104.664 40.2031 103.844 40.2031 102.883C40.2031 102.449 40.1211 102.051 39.9453 101.699C39.7695 101.348 39.582 101.078 39.3711 100.879C39.1602 100.68 38.9258 100.504 38.6445 100.363C38.375 100.223 38.1875 100.129 38.0703 100.082C37.9648 100.047 37.8828 100.023 37.8125 100.012L38 99.9414C38.1289 99.9062 38.293 99.8242 38.4922 99.707C38.6797 99.5898 38.8789 99.4375 39.0664 99.2734C39.2539 99.1094 39.418 98.875 39.5469 98.582C39.6641 98.2773 39.7344 97.9492 39.7344 97.5977ZM49.0977 106.117H52.332V98.793C52.332 97.457 51.8633 96.3438 50.9258 95.4531C49.9883 94.5625 48.7695 94.1172 47.293 94.1172C46.7188 94.1172 46.1562 94.2109 45.6055 94.375C45.0664 94.5391 44.6211 94.7266 44.2812 94.9258C43.9531 95.125 43.6367 95.3477 43.3555 95.6055C43.0742 95.8633 42.8867 96.0508 42.8047 96.1562C42.7227 96.2617 42.6523 96.3438 42.6055 96.4023L44.3984 98.1953L44.668 97.9141C44.8555 97.7031 45.1602 97.5039 45.5938 97.3047C46.0391 97.1055 46.5195 97 47.0469 97C47.6914 97 48.1953 97.1641 48.5469 97.4688C48.9102 97.7852 49.0859 98.1836 49.0859 98.6758L45.3594 99.3438C44.2812 99.543 43.4258 99.9648 42.8047 100.598C42.1953 101.242 41.8789 102.039 41.8789 103C41.8789 103.938 42.2539 104.723 42.9805 105.379C43.7188 106.035 44.668 106.352 45.8398 106.352C46.4492 106.352 47.0352 106.223 47.5977 105.965C48.1602 105.707 48.5352 105.496 48.6992 105.332C48.8633 105.168 48.9922 105.039 49.0859 104.922L49.0977 106.117ZM46.6836 103.715C45.6523 103.715 45.125 103.316 45.125 102.52C45.125 101.781 45.5703 101.336 46.4492 101.195L49.0859 100.715V101.078C49.0859 101.91 48.875 102.555 48.4414 103.023C48.0078 103.492 47.4219 103.715 46.6836 103.715Z" fill="white"/>
<path d="M79.2793 106.117V101.072H68.4863C68.9785 100.299 69.7168 99.5078 70.7012 98.7344C71.668 97.9609 72.6172 97.2578 73.5488 96.6426C74.4805 96.0273 75.3945 95.3594 76.291 94.6211C77.1699 93.8828 77.8906 93.0039 78.4531 91.9492C78.998 90.9121 79.2793 89.752 79.2793 88.4688C79.2793 86.2012 78.4355 84.2852 76.7832 82.7207C75.1309 81.1738 73.0215 80.3828 70.4551 80.3828C69.1367 80.3828 67.9238 80.6113 66.834 81.0332C65.7441 81.4551 64.9004 81.9297 64.3027 82.4395C63.7051 82.9668 63.1777 83.5645 62.7207 84.25C62.2637 84.9355 61.9824 85.4102 61.877 85.6738C61.7715 85.9551 61.6836 86.166 61.6484 86.3242L66.1484 88.4688L66.4297 87.7129C66.6406 87.2207 67.0625 86.7109 67.7305 86.1836C68.3984 85.6738 69.1895 85.4102 70.1035 85.4102C71.2461 85.4102 72.125 85.709 72.7578 86.2891C73.3906 86.8691 73.707 87.6602 73.707 88.6621C73.707 89.5234 73.3906 90.332 72.793 91.0703C72.1953 91.8086 71.4395 92.459 70.5605 93.0215C69.6816 93.584 68.7148 94.252 67.6777 95.043C66.623 95.834 65.6562 96.6602 64.7773 97.5391C63.8809 98.418 63.1426 99.5957 62.5449 101.09C61.9473 102.602 61.6484 104.271 61.6484 106.117H79.2793ZM102.342 106.117H107.193V88.4688H102.342V95.8516L102.008 96.1152C101.797 96.3086 101.428 96.502 100.918 96.6777C100.391 96.8535 99.8457 96.9414 99.2832 96.9414C98.457 96.9414 97.7715 96.6602 97.2266 96.0801C96.6641 95.5176 96.4004 94.7793 96.4004 93.8828V88.4688H91.5312V94.2344C91.5312 96.4844 92.1289 98.2422 93.3418 99.5254C94.5547 100.809 96.1719 101.441 98.1934 101.441C99.7578 101.441 101.146 101.02 102.342 100.176V106.117ZM121.59 106.117H126.441V95.1309C126.441 93.127 125.738 91.457 124.332 90.1211C122.926 88.7852 121.098 88.1172 118.883 88.1172C118.021 88.1172 117.178 88.2578 116.352 88.5039C115.543 88.75 114.875 89.0312 114.365 89.3301C113.873 89.6289 113.398 89.9629 112.977 90.3496C112.555 90.7363 112.273 91.0176 112.15 91.1758C112.027 91.334 111.922 91.457 111.852 91.5449L114.541 94.2344L114.945 93.8125C115.227 93.4961 115.684 93.1973 116.334 92.8984C117.002 92.5996 117.723 92.4414 118.514 92.4414C119.48 92.4414 120.236 92.6875 120.764 93.1445C121.309 93.6191 121.572 94.2168 121.572 94.9551L115.982 95.957C114.365 96.2559 113.082 96.8887 112.15 97.8379C111.236 98.8047 110.762 100 110.762 101.441C110.762 102.848 111.324 104.025 112.414 105.01C113.521 105.994 114.945 106.469 116.703 106.469C117.617 106.469 118.496 106.275 119.34 105.889C120.184 105.502 120.746 105.186 120.992 104.939C121.238 104.693 121.432 104.5 121.572 104.324L121.59 106.117ZM117.969 102.514C116.422 102.514 115.631 101.916 115.631 100.721C115.631 99.6133 116.299 98.9453 117.617 98.7344L121.572 98.0137V98.5586C121.572 99.8066 121.256 100.773 120.605 101.477C119.955 102.18 119.076 102.514 117.969 102.514ZM130.045 97.293C130.045 99.7539 130.977 101.898 132.875 103.727C134.756 105.555 136.988 106.469 139.572 106.469C140.486 106.469 141.365 106.346 142.191 106.082C143.018 105.818 143.686 105.537 144.195 105.221C144.723 104.904 145.197 104.553 145.637 104.148C146.094 103.744 146.375 103.463 146.498 103.287C146.621 103.111 146.709 102.988 146.779 102.883L143.896 99.8242L143.422 100.422C143.105 100.809 142.578 101.195 141.857 101.582C141.137 101.969 140.381 102.162 139.572 102.162C138.307 102.162 137.217 101.688 136.285 100.738C135.371 99.7891 134.896 98.6465 134.896 97.3105C134.896 95.9746 135.371 94.8145 136.285 93.8652C137.199 92.916 138.307 92.4414 139.572 92.4414C140.381 92.4414 141.137 92.6699 141.857 93.0918C142.578 93.5137 143.053 93.8652 143.264 94.1289C143.475 94.4102 143.633 94.6211 143.721 94.7793L146.779 91.7207L146.516 91.3516C146.34 91.1055 146.041 90.7891 145.619 90.4375C145.215 90.0859 144.74 89.752 144.213 89.4004C143.686 89.0488 143.018 88.75 142.191 88.5039C141.365 88.2578 140.486 88.1172 139.572 88.1172C136.988 88.1172 134.756 89.0488 132.857 90.877C130.977 92.7051 130.045 94.8496 130.045 97.293ZM159.77 106.117H164.621V95.1309C164.621 93.127 163.918 91.457 162.512 90.1211C161.105 88.7852 159.277 88.1172 157.062 88.1172C156.201 88.1172 155.357 88.2578 154.531 88.5039C153.723 88.75 153.055 89.0312 152.545 89.3301C152.053 89.6289 151.578 89.9629 151.156 90.3496C150.734 90.7363 150.453 91.0176 150.33 91.1758C150.207 91.334 150.102 91.457 150.031 91.5449L152.721 94.2344L153.125 93.8125C153.406 93.4961 153.863 93.1973 154.514 92.8984C155.182 92.5996 155.902 92.4414 156.693 92.4414C157.66 92.4414 158.416 92.6875 158.943 93.1445C159.488 93.6191 159.752 94.2168 159.752 94.9551L154.162 95.957C152.545 96.2559 151.262 96.8887 150.33 97.8379C149.416 98.8047 148.941 100 148.941 101.441C148.941 102.848 149.504 104.025 150.594 105.01C151.701 105.994 153.125 106.469 154.883 106.469C155.797 106.469 156.676 106.275 157.52 105.889C158.363 105.502 158.926 105.186 159.172 104.939C159.418 104.693 159.611 104.5 159.752 104.324L159.77 106.117ZM156.148 102.514C154.602 102.514 153.811 101.916 153.811 100.721C153.811 99.6133 154.479 98.9453 155.797 98.7344L159.752 98.0137V98.5586C159.752 99.8066 159.436 100.773 158.785 101.477C158.135 102.18 157.256 102.514 156.148 102.514Z" fill="#00C65E"/>
<circle cx="41.6263" cy="158.106" r="11.1067" transform="rotate(-90 41.6263 158.106)" fill="#FFB762" stroke="white"/>
<path fill-rule="evenodd" clip-rule="evenodd" d="M44.5476 158.691L39.8741 163.364C39.5515 163.687 39.0283 163.687 38.7057 163.364C38.383 163.042 38.383 162.519 38.7057 162.196L42.795 158.107L38.7052 154.017C38.3826 153.694 38.3826 153.171 38.7053 152.848C39.0279 152.526 39.5511 152.526 39.8737 152.848L44.5286 157.503C44.5352 157.509 44.5412 157.516 44.5476 157.522C44.8295 157.805 44.8651 158.241 44.6535 158.561C44.6232 158.607 44.588 158.65 44.5476 158.691Z" fill="white"/>
<path opacity="0.4" d="M527.342 155.639C524.412 177.32 500.986 189.649 481.456 179.789L417.53 147.512C394.441 135.853 394.163 102.982 417.052 90.9359L490.567 52.2452C513.456 40.1987 540.394 59.0386 536.93 84.6714L527.342 155.639Z" fill="white"/>
<path fill-rule="evenodd" clip-rule="evenodd" d="M360.344 81.335C360.344 77.126 363.756 73.7139 367.965 73.7139H454.656C458.865 73.7139 462.277 77.126 462.277 81.335V93.2073H482.055C485.039 93.2073 487.748 94.9486 488.987 97.6629L497.788 116.935C498.241 117.929 498.476 119.009 498.476 120.101V136.058C498.476 140.267 495.064 143.679 490.855 143.679H462.277V143.685H367.965C363.756 143.685 360.344 140.273 360.344 136.064V81.335Z" fill="white"/>
<path d="M482.7 100.581H469.335C468.493 100.581 467.811 101.263 467.811 102.105V117.12C467.811 117.962 468.493 118.645 469.335 118.645H490.086C491.196 118.645 491.933 117.497 491.472 116.487L484.836 101.954C484.454 101.118 483.619 100.581 482.7 100.581Z" fill="#00C65E"/>
<path d="M464.814 154.305C457.519 154.305 451.604 148.39 451.604 141.095C451.604 133.799 457.519 127.885 464.814 127.885C472.11 127.885 478.024 133.799 478.024 141.095C478.024 148.39 472.11 154.305 464.814 154.305Z" fill="#00C65E"/>
<path d="M464.815 147.697C461.167 147.697 458.21 144.74 458.21 141.092C458.21 137.444 461.167 134.487 464.815 134.487C468.463 134.487 471.42 137.444 471.42 141.092C471.42 144.74 468.463 147.697 464.815 147.697Z" fill="white"/>
<path d="M394.003 154.305C386.708 154.305 380.793 148.39 380.793 141.095C380.793 133.799 386.708 127.885 394.003 127.885C401.299 127.885 407.213 133.799 407.213 141.095C407.213 148.39 401.299 154.305 394.003 154.305Z" fill="#00C65E"/>
<path d="M394.004 147.697C390.356 147.697 387.399 144.74 387.399 141.092C387.399 137.444 390.356 134.487 394.004 134.487C397.652 134.487 400.609 137.444 400.609 141.092C400.609 144.74 397.652 147.697 394.004 147.697Z" fill="white"/>
<path d="M309.457 95.0674L333.774 95.0674" stroke="#00C65E" stroke-width="4.57268" stroke-linecap="round"/>
<path d="M332.489 105.314L348.963 105.314" stroke="white" stroke-width="3.04845" stroke-linecap="round"/>
<path d="M289.846 117.74L329.109 117.74" stroke="#00C65E" stroke-width="4.57268" stroke-linecap="round"/>
<path d="M316.383 132.667L337.425 132.667" stroke="white" stroke-width="3.04845" stroke-linecap="round"/>
<path d="M413.517 108.7C432.382 108.7 447.675 93.4072 447.675 74.5424C447.675 55.6777 432.382 40.3848 413.517 40.3848C394.653 40.3848 379.36 55.6777 379.36 74.5424C379.36 93.4072 394.653 108.7 413.517 108.7Z" fill="#00C65E"/>
<path d="M413.518 103.561C429.546 103.561 442.539 90.5673 442.539 74.5392C442.539 58.511 429.546 45.5176 413.518 45.5176C397.49 45.5176 384.496 58.511 384.496 74.5392C384.496 90.5673 397.49 103.561 413.518 103.561Z" fill="white"/>
<path d="M413.517 103.916C407.708 103.914 402.029 102.191 397.199 98.9623C392.369 95.7338 388.605 91.1457 386.383 85.7781C384.16 80.4104 383.579 74.5043 384.713 68.8065C385.847 63.1088 388.646 57.8752 392.754 53.7677C396.862 49.6601 402.096 46.863 407.794 45.73C413.492 44.5971 419.398 45.1791 424.766 47.4026C430.133 49.6261 434.72 53.3911 437.948 58.2217C441.175 63.0522 442.898 68.7313 442.898 74.5408C442.889 82.3297 439.79 89.7968 434.282 95.3038C428.774 100.811 421.306 103.908 413.517 103.916ZM413.517 45.8725C407.847 45.8725 402.304 47.5538 397.59 50.7039C392.875 53.8541 389.201 58.3315 387.031 63.5699C384.861 68.8084 384.294 74.5726 385.4 80.1338C386.506 85.6949 389.236 90.8031 393.246 94.8124C397.255 98.8218 402.363 101.552 407.924 102.658C413.485 103.765 419.25 103.197 424.488 101.027C429.727 98.8571 434.204 95.1826 437.354 90.4681C440.504 85.7536 442.186 80.2109 442.186 74.5408C442.179 66.9383 439.157 59.6488 433.783 54.2719C428.408 48.895 421.12 45.8701 413.517 45.8609V45.8725Z" fill="white"/>
<path d="M413.108 46.3682C423.838 46.3682 433.207 52.1908 438.23 60.8487" stroke="#F89358" stroke-width="3.04845" stroke-linecap="round"/>
<path d="M413.5 76.9108C414.798 76.9108 415.851 75.8583 415.851 74.5599C415.851 73.2615 414.798 72.209 413.5 72.209C412.201 72.209 411.149 73.2615 411.149 74.5599C411.149 75.8583 412.201 76.9108 413.5 76.9108Z" fill="#00C65E"/>
<path d="M414.653 51.5504V48.632C414.653 48.0068 414.146 47.5 413.521 47.5C412.896 47.5 412.389 48.0068 412.389 48.632V51.5504C412.389 52.1756 412.896 52.6824 413.521 52.6824C414.146 52.6824 414.653 52.1756 414.653 51.5504Z" fill="#00C65E"/>
<path d="M414.635 100.468V97.55C414.635 96.9248 414.128 96.418 413.503 96.418C412.878 96.418 412.371 96.9248 412.371 97.55V100.468C412.371 101.094 412.878 101.6 413.503 101.6C414.128 101.6 414.635 101.094 414.635 100.468Z" fill="#00C65E"/>
<path d="M390.498 73.4156H387.579C386.954 73.4156 386.447 73.9225 386.447 74.5477C386.447 75.1729 386.954 75.6797 387.579 75.6797H390.498C391.123 75.6797 391.63 75.1729 391.63 74.5477C391.63 73.9225 391.123 73.4156 390.498 73.4156Z" fill="#00C65E"/>
<path d="M439.421 73.4225H436.503C435.877 73.4225 435.371 73.9293 435.371 74.5545C435.371 75.1797 435.877 75.6865 436.503 75.6865H439.421C440.046 75.6865 440.553 75.1797 440.553 74.5545C440.553 73.9293 440.046 73.4225 439.421 73.4225Z" fill="#00C65E"/>
<path d="M399.815 51.7168L401.972 55.4527C402.092 55.6604 402.357 55.7316 402.565 55.6117C402.773 55.4917 402.844 55.2261 402.724 55.0184L400.567 51.2825C400.447 51.0748 400.182 51.0036 399.974 51.1236C399.766 51.2435 399.695 51.5091 399.815 51.7168Z" fill="#00C65E"/>
<path d="M390.231 61.6203L393.966 63.7772C394.174 63.8972 394.44 63.826 394.56 63.6183C394.68 63.4106 394.608 63.145 394.401 63.025L390.665 60.8681C390.457 60.7482 390.192 60.8194 390.072 61.0271C389.952 61.2348 390.023 61.5004 390.231 61.6203Z" fill="#00C65E"/>
<path d="M390.658 88.2435L394.394 86.0865C394.601 85.9666 394.673 85.701 394.553 85.4933C394.433 85.2856 394.167 85.2144 393.959 85.3343L390.224 87.4913C390.016 87.6112 389.945 87.8768 390.065 88.0845C390.185 88.2922 390.45 88.3634 390.658 88.2435Z" fill="#00C65E"/>
<path d="M400.942 98.1902L403.099 94.4371C403.219 94.2284 403.147 93.9621 402.938 93.8421C402.729 93.7222 402.463 93.7942 402.343 94.0028L400.186 97.7559C400.066 97.9646 400.138 98.2309 400.347 98.3509C400.556 98.4708 400.822 98.3988 400.942 98.1902Z" fill="#00C65E"/>
<path d="M427.191 97.3984L425.034 93.6625C424.914 93.4548 424.649 93.3836 424.441 93.5036C424.233 93.6235 424.162 93.8891 424.282 94.0968L426.439 97.8327C426.559 98.0404 426.824 98.1116 427.032 97.9917C427.24 97.8718 427.311 97.6062 427.191 97.3984Z" fill="#00C65E"/>
<path d="M436.776 87.4949L433.04 85.338C432.833 85.2181 432.567 85.2892 432.447 85.4969C432.327 85.7047 432.398 85.9703 432.606 86.0902L436.342 88.2471C436.55 88.367 436.815 88.2959 436.935 88.0882C437.055 87.8804 436.984 87.6148 436.776 87.4949Z" fill="#00C65E"/>
<path d="M436.348 60.8659L432.612 63.0228C432.405 63.1428 432.333 63.4084 432.453 63.6161C432.573 63.8238 432.839 63.895 433.047 63.775L436.782 61.6181C436.99 61.4982 437.061 61.2326 436.941 61.0249C436.821 60.8172 436.556 60.746 436.348 60.8659Z" fill="#00C65E"/>
<path d="M426.443 51.2828L424.286 55.0187C424.167 55.2264 424.238 55.492 424.445 55.612C424.653 55.7319 424.919 55.6607 425.039 55.453L427.196 51.7171C427.316 51.5094 427.244 51.2438 427.037 51.1238C426.829 51.0039 426.563 51.0751 426.443 51.2828Z" fill="#00C65E"/>
<path d="M414.953 74.5437H412.087L411.305 57.4619H415.735L414.953 74.5437Z" fill="#00C65E"/>
<path d="M418.886 56.7272C419.174 57.0153 418.97 57.5078 418.562 57.5078H408.471C408.064 57.5078 407.86 57.0153 408.148 56.7272L413.194 51.6817C413.372 51.5032 413.662 51.5032 413.84 51.6817L418.886 56.7272Z" fill="#00C65E"/>
<path d="M414.833 75.6653L414.143 74.5638L428.182 64.8031L429.709 67.2273L414.833 75.6653Z" fill="#00C65E"/>
<path d="M430.937 68.2938C430.877 68.5585 430.527 68.6181 430.382 68.3882L427.426 63.689C427.282 63.4591 427.487 63.1693 427.752 63.2294L431.582 64.0988C431.746 64.1361 431.849 64.2996 431.811 64.4639L430.937 68.2938Z" fill="#00C65E"/>
</g>
<defs>
<filter id="filter0_d_1375_36057" x="-18" y="-17.0059" width="613.596" height="251.743" filterUnits="userSpaceOnUse" color-interpolation-filters="sRGB">
<feFlood flood-opacity="0" result="BackgroundImageFix"/>
<feColorMatrix in="SourceAlpha" type="matrix" values="0 0 0 0 0 0 0 0 0 0 0 0 0 0 0 0 0 0 127 0" result="hardAlpha"/>
<feMorphology radius="3" operator="dilate" in="SourceAlpha" result="effect1_dropShadow_1375_36057"/>
<feOffset dx="1" dy="2"/>
<feGaussianBlur stdDeviation="8"/>
<feColorMatrix type="matrix" values="0 0 0 0 0.211765 0 0 0 0 0.227451 0 0 0 0 0.270588 0 0 0 0.08 0"/>
<feBlend mode="normal" in2="BackgroundImageFix" result="effect1_dropShadow_1375_36057"/>
<feBlend mode="normal" in="SourceGraphic" in2="effect1_dropShadow_1375_36057" result="shape"/>
</filter>
</defs>
</svg>
