<svg width="571" height="201" viewBox="0 0 571 201" fill="none" xmlns="http://www.w3.org/2000/svg">
<g filter="url(#filter0_d_1375_36044)">
<path d="M570.596 190.713C570.596 196.236 566.119 200.713 560.596 200.713H285.596H10.5957C5.07288 200.713 0.595703 196.236 0.595703 190.713V10.7129C0.595703 5.19005 5.07288 0.712891 10.5957 0.712891H285.596H560.596C566.119 0.712891 570.596 5.19005 570.596 10.7129V190.713Z" fill="#00C65E"/>
<path d="M36.3809 41.0332H32.7715V57.8379H36.3809V53.0332L38.5371 50.6426L43.459 57.8379H47.6543L40.9395 47.9941L47.1738 41.0332H42.9785L36.3809 48.3574V41.0332ZM60.252 53.0332L60.3691 51.7207C60.3691 50.0449 59.8066 48.6504 58.6934 47.5254C57.5684 46.4004 56.1738 45.8379 54.498 45.8379C52.8105 45.8379 51.3691 46.4473 50.1738 47.6426C48.9668 48.8379 48.3691 50.2793 48.3691 51.9551C48.3691 53.6426 48.9785 55.084 50.1973 56.2793C51.416 57.4746 52.8809 58.0723 54.6152 58.0723C55.2246 58.0723 55.8105 58.002 56.3848 57.8613C56.959 57.7207 57.4277 57.5684 57.791 57.3809C58.1426 57.1934 58.4824 56.9824 58.8105 56.748C59.127 56.5137 59.3379 56.3496 59.4316 56.2559L59.6543 56.0332L57.9785 53.877L57.6387 54.2402C57.4277 54.4863 57.0527 54.7324 56.5371 54.9668C56.0215 55.2012 55.459 55.3184 54.8496 55.3184C54.0059 55.3184 53.3027 55.1074 52.752 54.6621C52.1895 54.2168 51.8496 53.6777 51.7324 53.0332H60.252ZM54.498 48.6035C55.1777 48.6035 55.7637 48.8145 56.2324 49.2129C56.7012 49.623 57.0059 50.1387 57.1348 50.7598H51.7324C51.9199 50.127 52.2598 49.5996 52.7402 49.2012C53.2207 48.8027 53.8066 48.6035 54.498 48.6035ZM62.7832 57.8379H78.9785V46.0723H75.7441V54.9551H72.498V46.0723H69.2637V54.9551H66.0176V46.0723H62.7832V57.8379ZM93.8613 52.2012C93.8613 50.6074 93.2988 49.2246 92.1855 48.0645C91.0723 46.9043 89.7949 46.3184 88.3418 46.3184C87.9316 46.3184 87.5332 46.3887 87.1465 46.5059C86.748 46.623 86.4316 46.7637 86.1738 46.916C85.916 47.0684 85.6816 47.2441 85.459 47.4316C85.2246 47.6191 85.084 47.748 85.0137 47.8184C84.9434 47.8887 84.8848 47.9473 84.8613 47.9941C85.0254 47.0332 85.4355 46.2363 86.0801 45.5918C86.7129 44.9473 87.5449 44.5137 88.5762 44.2793C89.7012 44.0215 90.6738 43.752 91.4707 43.4473C92.2676 43.1543 92.748 42.9551 92.9121 42.8496C93.0762 42.7559 93.1816 42.6738 93.252 42.6035L91.8223 40.2012L91.4121 40.4121C91.1309 40.5527 90.6504 40.7168 89.9473 40.9277C89.2441 41.1387 88.459 41.3379 87.6152 41.5137C85.6934 41.9121 84.2051 42.8027 83.1738 44.1973C82.1309 45.6035 81.6152 47.666 81.6152 50.3965C81.6152 52.8457 82.1895 54.7324 83.3496 56.0684C84.5098 57.4043 86.0566 58.0723 87.9785 58.0723C89.6895 58.0723 91.0957 57.5098 92.1973 56.373C93.2988 55.248 93.8613 53.8535 93.8613 52.2012ZM85.2129 52.2012C85.2129 51.3223 85.4707 50.6074 86.0098 50.0449C86.5371 49.4824 87.1934 49.2012 87.9785 49.2012C88.7051 49.2012 89.3262 49.4824 89.8418 50.0449C90.3574 50.6074 90.6152 51.3223 90.6152 52.2012C90.6152 53.0801 90.3574 53.7949 89.8418 54.3574C89.3262 54.9199 88.7051 55.2012 87.9785 55.2012C87.1934 55.2012 86.5371 54.9199 86.0098 54.3574C85.4707 53.7949 85.2129 53.0801 85.2129 52.2012ZM107.666 53.0332L107.783 51.7207C107.783 50.0449 107.221 48.6504 106.107 47.5254C104.982 46.4004 103.588 45.8379 101.912 45.8379C100.225 45.8379 98.7832 46.4473 97.5879 47.6426C96.3809 48.8379 95.7832 50.2793 95.7832 51.9551C95.7832 53.6426 96.3926 55.084 97.6113 56.2793C98.8301 57.4746 100.295 58.0723 102.029 58.0723C102.639 58.0723 103.225 58.002 103.799 57.8613C104.373 57.7207 104.842 57.5684 105.205 57.3809C105.557 57.1934 105.896 56.9824 106.225 56.748C106.541 56.5137 106.752 56.3496 106.846 56.2559L107.068 56.0332L105.393 53.877L105.053 54.2402C104.842 54.4863 104.467 54.7324 103.951 54.9668C103.436 55.2012 102.873 55.3184 102.264 55.3184C101.42 55.3184 100.717 55.1074 100.166 54.6621C99.6035 54.2168 99.2637 53.6777 99.1465 53.0332H107.666ZM101.912 48.6035C102.592 48.6035 103.178 48.8145 103.646 49.2129C104.115 49.623 104.42 50.1387 104.549 50.7598H99.1465C99.334 50.127 99.6738 49.5996 100.154 49.2012C100.635 48.8027 101.221 48.6035 101.912 48.6035ZM121.354 46.0723H117.639L113.432 50.877V46.0723H110.197V57.8379H113.432V54.9551L114.873 53.2793L117.99 57.8379H121.6L116.912 51.123L121.354 46.0723ZM136.354 49.3184C136.354 48.3809 135.932 47.5605 135.1 46.8691C134.268 46.1895 133.166 45.8379 131.795 45.8379C131.221 45.8379 130.67 45.9082 130.131 46.0488C129.592 46.1895 129.158 46.3418 128.842 46.5059C128.514 46.6699 128.221 46.8691 127.939 47.0918C127.658 47.3145 127.482 47.4668 127.4 47.5605C127.318 47.6543 127.26 47.7129 127.236 47.7598L129.041 49.5527L129.346 49.2949C129.557 49.1074 129.861 48.9199 130.26 48.7441C130.658 48.5684 131.057 48.4746 131.443 48.4746C132.475 48.4863 133.002 48.8848 133.002 49.6816C133.002 50.0098 132.861 50.2676 132.604 50.4668C132.346 50.666 131.959 50.7598 131.443 50.7598H130.236V52.916H131.443C132.709 52.9277 133.354 53.3262 133.354 54.123C133.354 54.5098 133.189 54.8262 132.861 55.0723C132.533 55.3184 132.064 55.4355 131.443 55.4355C130.904 55.4355 130.4 55.3184 129.92 55.0723C129.439 54.8262 129.123 54.627 128.982 54.4863C128.842 54.3457 128.736 54.2168 128.678 54.123L126.873 55.916L127.072 56.1621C127.178 56.3027 127.365 56.4785 127.646 56.6895C127.916 56.9004 128.232 57.0996 128.596 57.3105C128.971 57.5215 129.439 57.709 130.002 57.8496C130.564 58.002 131.162 58.0723 131.783 58.0723C133.389 58.0723 134.631 57.7441 135.51 57.0645C136.389 56.3848 136.822 55.5645 136.822 54.6035C136.822 54.1699 136.74 53.7715 136.564 53.4199C136.389 53.0684 136.201 52.7988 135.99 52.5996C135.779 52.4004 135.545 52.2246 135.264 52.084C134.994 51.9434 134.807 51.8496 134.689 51.8027C134.584 51.7676 134.502 51.7441 134.432 51.7324L134.619 51.6621C134.748 51.627 134.912 51.5449 135.111 51.4277C135.299 51.3105 135.498 51.1582 135.686 50.9941C135.873 50.8301 136.037 50.5957 136.166 50.3027C136.283 49.998 136.354 49.6699 136.354 49.3184ZM145.717 57.8379H148.951V50.5137C148.951 49.1777 148.482 48.0645 147.545 47.1738C146.607 46.2832 145.389 45.8379 143.912 45.8379C143.338 45.8379 142.775 45.9316 142.225 46.0957C141.686 46.2598 141.24 46.4473 140.9 46.6465C140.572 46.8457 140.256 47.0684 139.975 47.3262C139.693 47.584 139.506 47.7715 139.424 47.877C139.342 47.9824 139.271 48.0645 139.225 48.123L141.018 49.916L141.287 49.6348C141.475 49.4238 141.779 49.2246 142.213 49.0254C142.658 48.8262 143.139 48.7207 143.666 48.7207C144.311 48.7207 144.814 48.8848 145.166 49.1895C145.529 49.5059 145.705 49.9043 145.705 50.3965L141.979 51.0645C140.9 51.2637 140.045 51.6855 139.424 52.3184C138.814 52.9629 138.498 53.7598 138.498 54.7207C138.498 55.6582 138.873 56.4434 139.6 57.0996C140.338 57.7559 141.287 58.0723 142.459 58.0723C143.068 58.0723 143.654 57.9434 144.217 57.6855C144.779 57.4277 145.154 57.2168 145.318 57.0527C145.482 56.8887 145.611 56.7598 145.705 56.6426L145.717 57.8379ZM143.303 55.4355C142.271 55.4355 141.744 55.0371 141.744 54.2402C141.744 53.502 142.189 53.0566 143.068 52.916L145.705 52.4355V52.7988C145.705 53.6309 145.494 54.2754 145.061 54.7441C144.627 55.2129 144.041 55.4355 143.303 55.4355ZM158.197 46.0723V49.3184C158.197 50.959 158.104 52.2012 157.939 53.0566C157.775 53.9121 157.553 54.4629 157.283 54.709C157.002 54.9551 156.627 55.0723 156.158 55.0723C155.924 55.0723 155.678 55.0371 155.443 54.9551V57.8379L155.654 57.9316C155.783 57.9785 155.982 58.0371 156.264 58.1074C156.545 58.1777 156.826 58.2012 157.119 58.2012C158.01 58.2012 158.748 57.9785 159.334 57.5332C159.92 57.0879 160.389 56.209 160.764 54.9199C161.139 53.6309 161.326 51.8848 161.326 49.6934V48.9668H164.443V57.8496H167.678V46.084L158.197 46.0723ZM187.963 51.9551C187.963 50.2793 187.354 48.8379 186.158 47.6426C184.963 46.4473 183.521 45.8496 181.846 45.8496C180.346 45.8496 179.045 46.3184 177.92 47.2676C176.795 48.2168 176.104 49.3066 175.846 50.5254H174.041V46.084H170.807V57.8496H174.041V53.4082H175.846C176.104 54.627 176.795 55.7051 177.92 56.6543C179.045 57.6035 180.357 58.084 181.846 58.084C183.521 58.084 184.963 57.4746 186.158 56.2793C187.354 55.084 187.963 53.6426 187.963 51.9551ZM184.729 51.9668C184.729 52.9043 184.447 53.6895 183.885 54.2988C183.322 54.9082 182.643 55.2129 181.846 55.2129C181.049 55.2129 180.369 54.9082 179.807 54.2988C179.244 53.6895 178.963 52.9043 178.963 51.9668C178.963 51.0176 179.244 50.2441 179.807 49.6348C180.369 49.0254 181.049 48.7324 181.846 48.7324C182.643 48.7324 183.322 49.0254 183.885 49.6348C184.447 50.2441 184.729 51.0176 184.729 51.9668ZM202.377 52.2012C202.377 50.6074 201.814 49.2246 200.701 48.0645C199.588 46.9043 198.311 46.3184 196.857 46.3184C196.447 46.3184 196.049 46.3887 195.662 46.5059C195.264 46.623 194.947 46.7637 194.689 46.916C194.432 47.0684 194.197 47.2441 193.975 47.4316C193.74 47.6191 193.6 47.748 193.529 47.8184C193.459 47.8887 193.4 47.9473 193.377 47.9941C193.541 47.0332 193.951 46.2363 194.596 45.5918C195.229 44.9473 196.061 44.5137 197.092 44.2793C198.217 44.0215 199.189 43.752 199.986 43.4473C200.783 43.1543 201.264 42.9551 201.428 42.8496C201.592 42.7559 201.697 42.6738 201.768 42.6035L200.338 40.2012L199.928 40.4121C199.646 40.5527 199.166 40.7168 198.463 40.9277C197.76 41.1387 196.975 41.3379 196.131 41.5137C194.209 41.9121 192.721 42.8027 191.689 44.1973C190.646 45.6035 190.131 47.666 190.131 50.3965C190.131 52.8457 190.705 54.7324 191.865 56.0684C193.025 57.4043 194.572 58.0723 196.494 58.0723C198.205 58.0723 199.611 57.5098 200.713 56.373C201.814 55.248 202.377 53.8535 202.377 52.2012ZM193.729 52.2012C193.729 51.3223 193.986 50.6074 194.525 50.0449C195.053 49.4824 195.709 49.2012 196.494 49.2012C197.221 49.2012 197.842 49.4824 198.357 50.0449C198.873 50.6074 199.131 51.3223 199.131 52.2012C199.131 53.0801 198.873 53.7949 198.357 54.3574C197.842 54.9199 197.221 55.2012 196.494 55.2012C195.709 55.2012 195.053 54.9199 194.525 54.3574C193.986 53.7949 193.729 53.0801 193.729 52.2012ZM207.779 58.5527C207.393 59.4434 206.713 59.877 205.74 59.877C205.26 59.877 204.861 59.8066 204.545 59.6426V62.5137L204.779 62.5957C204.943 62.666 205.189 62.7246 205.541 62.7832C205.881 62.8535 206.232 62.877 206.584 62.877C208.553 62.877 210.064 61.4355 211.143 58.5527L215.818 46.0723H212.467L209.701 53.877L206.947 46.0723H203.584L208.143 57.7207L207.779 58.5527ZM234.65 51.9551C234.65 50.2793 234.041 48.8379 232.846 47.6426C231.65 46.4473 230.209 45.8496 228.533 45.8496C227.033 45.8496 225.732 46.3184 224.607 47.2676C223.482 48.2168 222.791 49.3066 222.533 50.5254H220.729V46.084H217.494V57.8496H220.729V53.4082H222.533C222.791 54.627 223.482 55.7051 224.607 56.6543C225.732 57.6035 227.045 58.084 228.533 58.084C230.209 58.084 231.65 57.4746 232.846 56.2793C234.041 55.084 234.65 53.6426 234.65 51.9551ZM231.416 51.9668C231.416 52.9043 231.135 53.6895 230.572 54.2988C230.01 54.9082 229.33 55.2129 228.533 55.2129C227.736 55.2129 227.057 54.9082 226.494 54.2988C225.932 53.6895 225.65 52.9043 225.65 51.9668C225.65 51.0176 225.932 50.2441 226.494 49.6348C227.057 49.0254 227.736 48.7324 228.533 48.7324C229.33 48.7324 230.01 49.0254 230.572 49.6348C231.135 50.2441 231.416 51.0176 231.416 51.9668ZM35.291 84.9551H39.8496V93.8379H43.0957V82.0723H32.0566V93.8379H35.291V84.9551ZM48.8496 87.9668C48.8496 87.0879 49.1309 86.3496 49.7051 85.7402C50.2676 85.1426 50.9473 84.8379 51.7324 84.8379C52.5059 84.8379 53.1855 85.1426 53.7598 85.7402C54.3223 86.3496 54.6152 87.0879 54.6152 87.9668C54.6152 88.8457 54.3223 89.584 53.7598 90.1816C53.1855 90.7793 52.5059 91.0723 51.7324 91.0723C50.9473 91.0723 50.2676 90.7793 49.7051 90.1816C49.1309 89.584 48.8496 88.8457 48.8496 87.9668ZM57.9668 87.9551C57.9668 86.3262 57.3457 84.8965 56.1035 83.6777C54.8613 82.459 53.4082 81.8496 51.7324 81.8496C50.0449 81.8496 48.5918 82.459 47.3496 83.6777C46.1074 84.8965 45.4863 86.3262 45.4863 87.9551C45.4863 89.5957 46.1074 91.0254 47.3496 92.2441C48.5918 93.4629 50.0449 94.0723 51.7324 94.0723C53.4082 94.0723 54.8613 93.4629 56.1035 92.2441C57.3457 91.0254 57.9668 89.5957 57.9668 87.9551ZM71.5254 82.0723H67.8105L63.6035 86.877V82.0723H60.3691V93.8379H63.6035V90.9551L65.0449 89.2793L68.1621 93.8379H71.7715L67.084 87.123L71.5254 82.0723ZM76.084 94.5527C75.6973 95.4434 75.0176 95.877 74.0449 95.877C73.5645 95.877 73.166 95.8066 72.8496 95.6426V98.5137L73.084 98.5957C73.248 98.666 73.4941 98.7246 73.8457 98.7832C74.1855 98.8535 74.5371 98.877 74.8887 98.877C76.8574 98.877 78.3691 97.4355 79.4473 94.5527L84.123 82.0723H80.7715L78.0059 89.877L75.252 82.0723H71.8887L76.4473 93.7207L76.084 94.5527ZM89.0332 84.9551H93.5918V93.8379H96.8379V82.0723H85.7988V93.8379H89.0332V84.9551ZM111.111 82.0723H107.396L103.189 86.877V82.0723H99.9551V93.8379H103.189V90.9551L104.631 89.2793L107.748 93.8379H111.357L106.67 87.123L111.111 82.0723ZM115.67 94.5527C115.283 95.4434 114.604 95.877 113.631 95.877C113.15 95.877 112.752 95.8066 112.436 95.6426V98.5137L112.67 98.5957C112.834 98.666 113.08 98.7246 113.432 98.7832C113.771 98.8535 114.123 98.877 114.475 98.877C116.443 98.877 117.955 97.4355 119.033 94.5527L123.709 82.0723H120.357L117.592 89.877L114.838 82.0723H111.475L116.033 93.7207L115.67 94.5527ZM129.229 89.0332L129.826 77.0332H125.982L126.58 89.0332H129.229ZM125.982 92.2793C125.982 92.7598 126.17 93.1816 126.545 93.5332C126.92 93.8965 127.365 94.0723 127.904 94.0723C128.432 94.0723 128.889 93.8965 129.264 93.5332C129.639 93.1816 129.826 92.7598 129.826 92.2793C129.826 91.7988 129.639 91.377 129.264 91.0137C128.889 90.6621 128.432 90.4746 127.904 90.4746C127.365 90.4746 126.92 90.6621 126.545 91.0137C126.17 91.377 125.982 91.7988 125.982 92.2793Z" fill="white"/>
<circle cx="42.222" cy="158.827" r="11.1067" transform="rotate(-90 42.222 158.827)" fill="#00C65E" stroke="white"/>
<path fill-rule="evenodd" clip-rule="evenodd" d="M45.1433 159.412L40.4698 164.085C40.1472 164.408 39.624 164.408 39.3014 164.085C38.9787 163.762 38.9787 163.239 39.3014 162.917L43.3907 158.827L39.301 154.738C38.9783 154.415 38.9783 153.892 39.301 153.569C39.6236 153.246 40.1468 153.246 40.4694 153.569L45.1243 158.224C45.1309 158.23 45.1369 158.237 45.1433 158.243C45.4252 158.525 45.4608 158.961 45.2492 159.282C45.2189 159.328 45.1837 159.371 45.1433 159.412Z" fill="white"/>
<path opacity="0.4" d="M557.722 130.91C564.026 154.999 544.707 178.119 519.881 176.196L438.62 169.902C409.269 167.628 394.744 133.15 413.621 110.56L474.246 38.0052C493.123 15.4149 529.633 23.5814 537.087 52.0609L557.722 130.91Z" fill="white"/>
<path d="M296.627 214.942C278.665 222.921 257.974 210.837 256.098 191.273L249.956 127.236C247.738 104.106 272.697 88.405 292.914 100.212L357.847 138.133C378.064 149.94 376.653 179.393 355.418 188.826L296.627 214.942Z" fill="#FFB762"/>
<path d="M342.09 24.2485C348.853 11.5005 366.165 9.22006 375.999 19.7817L408.188 54.3523C419.814 66.8388 412.48 87.2436 395.565 89.4717L341.238 96.628C324.323 98.8562 311.955 81.0466 319.951 65.9753L342.09 24.2485Z" fill="white"/>
<path d="M462.96 104.042C459.966 103.854 457.593 104.237 455.842 105.192L456.988 96.935L475.514 98.0994L476.037 89.7721L448.903 88.0667L445.705 113.541L452.371 114.586L453.114 113.725C453.617 113.193 454.497 112.653 455.75 112.137C456.971 111.65 458.363 111.425 459.922 111.523C462.137 111.662 463.932 112.495 465.278 113.989C466.623 115.513 467.23 117.305 467.101 119.364C466.969 121.453 466.209 123.096 464.754 124.32C463.299 125.544 461.389 126.05 458.987 125.899C457.116 125.781 455.333 125.262 453.577 124.306C451.85 123.384 450.737 122.656 450.207 122.122C449.708 121.589 449.328 121.159 449.069 120.798L442.95 126.488L443.497 127.242C443.87 127.798 444.487 128.432 445.349 129.175C446.241 129.92 447.26 130.641 448.434 131.404C449.607 132.166 451.16 132.859 453.063 133.48C454.965 134.1 456.978 134.446 459.099 134.579C464.152 134.897 468.33 133.688 471.635 130.921C474.94 128.154 476.703 124.507 476.987 119.985C477.258 115.681 476.078 112.037 473.389 108.988C470.729 105.971 467.264 104.313 462.96 104.042ZM491.32 100.377C491.4 99.0979 491.872 98.063 492.8 97.2446C493.695 96.4554 494.783 96.0854 496.062 96.1658C497.341 96.2462 498.374 96.7495 499.194 97.6464C499.981 98.5727 500.351 99.6605 500.271 100.939C500.191 102.218 499.687 103.251 498.792 104.04C497.864 104.858 496.778 105.197 495.499 105.117C494.221 105.037 493.186 104.564 492.399 103.638C491.578 102.741 491.239 101.655 491.32 100.377ZM488.801 135.475L496.785 135.977L527.697 93.019L519.713 92.5172L488.801 135.475ZM506.665 101.341C506.839 98.5653 505.902 96.0328 503.915 93.7787C501.927 91.5246 499.436 90.3034 496.442 90.1153C493.448 89.9271 490.824 90.8267 488.57 92.8143C486.316 94.8018 485.101 97.199 484.926 99.9748C484.752 102.751 485.657 105.281 487.645 107.535C489.632 109.789 492.123 111.01 495.117 111.199C498.111 111.387 500.735 110.487 502.99 108.5C505.244 106.512 506.49 104.117 506.665 101.341ZM525.176 128.149C525.095 129.428 524.592 130.46 523.697 131.25C522.769 132.068 521.683 132.407 520.404 132.326C519.126 132.246 518.091 131.774 517.303 130.848C516.483 129.951 516.144 128.865 516.225 127.586C516.305 126.307 516.777 125.273 517.705 124.454C518.6 123.665 519.688 123.295 520.967 123.375C522.246 123.456 523.279 123.959 524.099 124.856C524.886 125.782 525.256 126.87 525.176 128.149ZM509.831 127.184C509.657 129.96 510.562 132.491 512.55 134.745C514.537 136.999 517.028 138.22 520.022 138.408C523.016 138.596 525.64 137.697 527.894 135.709C530.148 133.722 531.395 131.326 531.569 128.551C531.742 125.806 530.805 123.274 528.818 121.019C526.83 118.765 524.341 117.513 521.347 117.325C518.353 117.137 515.727 118.067 513.473 120.055C511.219 122.043 510.003 124.44 509.831 127.184Z" fill="#F89358"/>
<path d="M275.913 123.738L275.544 123.996C275.29 124.182 274.921 124.388 274.447 124.593C273.974 124.798 273.416 124.96 272.807 125.121C272.197 125.282 271.41 125.327 270.488 125.275C269.546 125.213 268.605 124.993 267.634 124.627L265.547 128.693L270.656 131.315L259.487 153.085L265.91 156.38L281.252 126.477L275.913 123.738ZM301.421 149.522C299.419 148.495 297.673 148.047 296.183 148.178L299.446 142.845L311.833 149.2L314.69 143.632L296.547 134.325L286.711 150.878L290.98 153.596L291.749 153.226C292.255 153.012 293.021 152.904 294.038 152.925C295.023 152.956 296.047 153.219 297.09 153.754C298.57 154.513 299.555 155.624 300.032 157.055C300.5 158.506 300.38 159.92 299.674 161.296C298.957 162.693 297.941 163.595 296.575 164C295.208 164.405 293.743 164.18 292.137 163.356C290.886 162.714 289.815 161.823 288.895 160.639C287.984 159.487 287.437 158.653 287.233 158.127C287.05 157.612 286.918 157.201 286.848 156.876L280.935 158.953L281.085 159.636C281.175 160.129 281.409 160.75 281.779 161.519C282.169 162.299 282.653 163.1 283.231 163.976C283.809 164.852 284.669 165.794 285.791 166.791C286.913 167.788 288.193 168.63 289.611 169.357C292.989 171.09 296.224 171.512 299.326 170.601C302.427 169.689 304.733 167.711 306.284 164.688C307.761 161.81 308.042 158.951 307.108 156.048C306.184 153.177 304.299 150.998 301.421 149.522ZM322.207 155.602C322.645 154.748 323.28 154.178 324.164 153.893C325.016 153.619 325.874 153.691 326.729 154.13C327.584 154.568 328.144 155.224 328.439 156.086C328.702 156.959 328.63 157.818 328.192 158.673C327.753 159.528 327.097 160.087 326.245 160.361C325.362 160.646 324.514 160.553 323.659 160.114C322.804 159.676 322.234 159.041 321.97 158.168C321.675 157.306 321.768 156.457 322.207 155.602ZM309.951 178.976L315.29 181.715L349.421 161.451L344.082 158.712L309.951 178.976ZM332.467 160.866C333.419 159.01 333.534 156.988 332.844 154.843C332.153 152.697 330.807 151.111 328.805 150.084C326.803 149.057 324.729 148.889 322.584 149.579C320.438 150.27 318.884 151.553 317.932 153.409C316.98 155.265 316.843 157.276 317.534 159.422C318.224 161.567 319.571 163.154 321.573 164.181C323.574 165.208 325.648 165.376 327.794 164.686C329.939 163.995 331.514 162.722 332.467 160.866ZM337.155 184.846C336.716 185.701 336.06 186.26 335.208 186.534C334.325 186.818 333.477 186.726 332.622 186.287C331.767 185.848 331.197 185.214 330.933 184.341C330.638 183.478 330.731 182.63 331.17 181.775C331.608 180.92 332.243 180.35 333.127 180.066C333.979 179.792 334.837 179.864 335.692 180.302C336.547 180.741 337.107 181.397 337.402 182.259C337.665 183.132 337.593 183.991 337.155 184.846ZM326.895 179.582C325.943 181.438 325.806 183.449 326.497 185.594C327.187 187.74 328.534 189.326 330.536 190.353C332.537 191.38 334.611 191.549 336.757 190.858C338.902 190.168 340.477 188.895 341.429 187.039C342.371 185.204 342.486 183.182 341.796 181.036C341.105 178.891 339.77 177.284 337.768 176.257C335.766 175.23 333.682 175.082 331.536 175.773C329.39 176.463 327.836 177.747 326.895 179.582Z" fill="white"/>
<path d="M344.802 55.0916L344.731 55.3054C344.684 55.4556 344.598 55.6482 344.468 55.8716C344.339 56.095 344.164 56.3261 343.967 56.5726C343.77 56.8191 343.468 57.0713 343.082 57.3253C342.685 57.5813 342.242 57.7737 341.743 57.9159L342.117 60.1702L344.95 59.7L346.953 71.7692L350.514 71.178L347.762 54.6002L344.802 55.0916ZM359.334 61.1963C359.046 59.4622 359.171 58.0636 359.718 56.9985C360.266 55.9335 361.02 55.3213 361.991 55.1601C362.95 55.0008 363.861 55.3366 364.724 56.1675C365.575 57.0003 366.156 58.2818 366.444 60.0158C366.732 61.7499 366.596 63.1504 366.06 64.2136C365.512 65.2786 364.758 65.8908 363.799 66.0501C362.828 66.2113 361.917 65.8755 361.054 65.0446C360.192 64.2138 359.622 62.9303 359.334 61.1963ZM369.993 59.4266C369.563 56.8371 368.524 54.8713 366.885 53.5159C365.235 52.1625 363.426 51.6431 361.461 51.9694C359.484 52.2976 357.94 53.3736 356.816 55.1877C355.692 57.0018 355.344 59.1979 355.774 61.7874C356.204 64.377 357.245 66.3543 358.895 67.7077C360.547 69.0727 362.354 69.5806 364.331 69.2523C366.296 68.9261 367.842 67.8616 368.964 66.036C370.077 64.2238 370.423 62.0162 369.993 59.4266ZM373.728 53.9479C373.649 53.4739 373.734 53.0559 374.004 52.6785C374.265 52.3145 374.631 52.0874 375.105 52.0087C375.579 51.93 375.999 52.0266 376.374 52.285C376.74 52.5569 376.967 52.9231 377.046 53.397C377.125 53.871 377.028 54.2909 376.768 54.6549C376.498 55.0323 376.13 55.2479 375.656 55.3266C375.182 55.4053 374.764 55.3202 374.398 55.0484C374.022 54.79 373.807 54.4219 373.728 53.9479ZM375.774 66.9842L378.733 66.4929L386.397 48.1858L383.437 48.6771L375.774 66.9842ZM379.416 53.0036C379.245 51.9747 378.689 51.1286 377.772 50.473C376.856 49.8174 375.842 49.5817 374.733 49.766C373.623 49.9502 372.74 50.5007 372.084 51.4173C371.429 52.3339 371.187 53.3125 371.358 54.3414C371.529 55.3702 372.074 56.2183 372.99 56.8739C373.907 57.5295 374.92 57.7651 376.03 57.5809C377.14 57.3966 378.023 56.8462 378.678 55.9295C379.334 55.0129 379.587 54.0325 379.416 53.0036ZM388.444 61.2336C388.523 61.7076 388.426 62.1275 388.166 62.4915C387.896 62.8689 387.528 63.0845 387.054 63.1632C386.58 63.2419 386.162 63.1568 385.796 62.885C385.421 62.6266 385.205 62.2585 385.127 61.7845C385.048 61.3105 385.133 60.8925 385.403 60.5151C385.663 60.1511 386.029 59.924 386.503 59.8453C386.977 59.7666 387.397 59.8632 387.773 60.1216C388.139 60.3935 388.366 60.7596 388.444 61.2336ZM382.757 62.178C382.927 63.2068 383.472 64.0549 384.389 64.7105C385.305 65.3661 386.319 65.6017 387.428 65.4175C388.538 65.2332 389.421 64.6828 390.077 63.7661C390.732 62.8495 390.985 61.869 390.814 60.8402C390.645 59.8228 390.089 58.9767 389.173 58.3211C388.256 57.6655 387.241 57.4183 386.131 57.6026C385.021 57.7868 384.14 58.3488 383.485 59.2655C382.829 60.1821 382.588 61.1606 382.757 62.178Z" fill="#FFB762"/>
</g>
<defs>
<filter id="filter0_d_1375_36044" x="-17.4043" y="-16.2871" width="641.46" height="284.237" filterUnits="userSpaceOnUse" color-interpolation-filters="sRGB">
<feFlood flood-opacity="0" result="BackgroundImageFix"/>
<feColorMatrix in="SourceAlpha" type="matrix" values="0 0 0 0 0 0 0 0 0 0 0 0 0 0 0 0 0 0 127 0" result="hardAlpha"/>
<feMorphology radius="3" operator="dilate" in="SourceAlpha" result="effect1_dropShadow_1375_36044"/>
<feOffset dx="1" dy="2"/>
<feGaussianBlur stdDeviation="8"/>
<feColorMatrix type="matrix" values="0 0 0 0 0.211765 0 0 0 0 0.227451 0 0 0 0 0.270588 0 0 0 0.08 0"/>
<feBlend mode="normal" in2="BackgroundImageFix" result="effect1_dropShadow_1375_36044"/>
<feBlend mode="normal" in="SourceGraphic" in2="effect1_dropShadow_1375_36044" result="shape"/>
</filter>
</defs>
</svg>
