<svg width="608" height="238" viewBox="0 0 608 238" fill="none" xmlns="http://www.w3.org/2000/svg">
<g filter="url(#filter0_d_1652_36178)">
<g clip-path="url(#clip0_1652_36178)">
<path d="M18 27.001C18 21.4781 22.4772 17.001 28 17.001H578C583.523 17.001 588 21.4781 588 27.001V207.001C588 212.524 583.523 217.001 578 217.001H28C22.4771 217.001 18 212.524 18 207.001V27.001Z" fill="#01C65E"/>
<g filter="url(#filter1_d_1652_36178)">
<rect width="570" height="200" transform="translate(18 17.001)" fill="white"/>
<path d="M588 207.001C588 212.524 583.523 217.001 578 217.001H303H28C22.4772 217.001 18 212.524 18 207.001V27.001C18 21.4781 22.4772 17.001 28 17.001H303H578C583.523 17.001 588 21.4781 588 27.001V207.001Z" fill="white"/>
<g opacity="0.2" filter="url(#filter2_f_1652_36178)">
<ellipse cx="522.069" cy="92.0829" rx="131.674" ry="124.918" fill="url(#paint0_linear_1652_36178)"/>
</g>
<path d="M59.1758 64.6377L53.4219 57.3135H50.1758V74.1182H53.7852V62.9619L59.1758 69.7939L64.5781 62.915V74.1182H68.1758V57.3135H64.9883L59.1758 64.6377ZM78.2539 74.1182H81.4883V66.7939C81.4883 65.458 81.0195 64.3447 80.082 63.4541C79.1445 62.5635 77.9258 62.1182 76.4492 62.1182C75.875 62.1182 75.3125 62.2119 74.7617 62.376C74.2227 62.54 73.7773 62.7275 73.4375 62.9268C73.1094 63.126 72.793 63.3486 72.5117 63.6064C72.2305 63.8643 72.043 64.0518 71.9609 64.1572C71.8789 64.2627 71.8086 64.3447 71.7617 64.4033L73.5547 66.1963L73.8242 65.915C74.0117 65.7041 74.3164 65.5049 74.75 65.3057C75.1953 65.1064 75.6758 65.001 76.2031 65.001C76.8477 65.001 77.3516 65.165 77.7031 65.4697C78.0664 65.7861 78.2422 66.1846 78.2422 66.6768L74.5156 67.3447C73.4375 67.5439 72.582 67.9658 71.9609 68.5986C71.3516 69.2432 71.0352 70.04 71.0352 71.001C71.0352 71.9385 71.4102 72.7236 72.1367 73.3799C72.875 74.0361 73.8242 74.3525 74.9961 74.3525C75.6055 74.3525 76.1914 74.2236 76.7539 73.9658C77.3164 73.708 77.6914 73.4971 77.8555 73.333C78.0195 73.1689 78.1484 73.04 78.2422 72.9229L78.2539 74.1182ZM75.8398 71.7158C74.8086 71.7158 74.2812 71.3174 74.2812 70.5205C74.2812 69.7822 74.7266 69.3369 75.6055 69.1963L78.2422 68.7158V69.0791C78.2422 69.9111 78.0312 70.5557 77.5977 71.0244C77.1641 71.4932 76.5781 71.7158 75.8398 71.7158ZM93.1367 62.3525H84.6172V74.1182H87.8516V65.3525H93.1367V62.3525ZM101.41 74.1182H104.645V66.7939C104.645 65.458 104.176 64.3447 103.238 63.4541C102.301 62.5635 101.082 62.1182 99.6055 62.1182C99.0312 62.1182 98.4688 62.2119 97.918 62.376C97.3789 62.54 96.9336 62.7275 96.5938 62.9268C96.2656 63.126 95.9492 63.3486 95.668 63.6064C95.3867 63.8643 95.1992 64.0518 95.1172 64.1572C95.0352 64.2627 94.9648 64.3447 94.918 64.4033L96.7109 66.1963L96.9805 65.915C97.168 65.7041 97.4727 65.5049 97.9062 65.3057C98.3516 65.1064 98.832 65.001 99.3594 65.001C100.004 65.001 100.508 65.165 100.859 65.4697C101.223 65.7861 101.398 66.1846 101.398 66.6768L97.6719 67.3447C96.5938 67.5439 95.7383 67.9658 95.1172 68.5986C94.5078 69.2432 94.1914 70.04 94.1914 71.001C94.1914 71.9385 94.5664 72.7236 95.293 73.3799C96.0312 74.0361 96.9805 74.3525 98.1523 74.3525C98.7617 74.3525 99.3477 74.2236 99.9102 73.9658C100.473 73.708 100.848 73.4971 101.012 73.333C101.176 73.1689 101.305 73.04 101.398 72.9229L101.41 74.1182ZM98.9961 71.7158C97.9648 71.7158 97.4375 71.3174 97.4375 70.5205C97.4375 69.7822 97.8828 69.3369 98.7617 69.1963L101.398 68.7158V69.0791C101.398 69.9111 101.188 70.5557 100.754 71.0244C100.32 71.4932 99.7344 71.7158 98.9961 71.7158ZM116.047 65.5986C116.047 64.6611 115.625 63.8408 114.793 63.1494C113.961 62.4697 112.859 62.1182 111.488 62.1182C110.914 62.1182 110.363 62.1885 109.824 62.3291C109.285 62.4697 108.852 62.6221 108.535 62.7861C108.207 62.9502 107.914 63.1494 107.633 63.3721C107.352 63.5947 107.176 63.7471 107.094 63.8408C107.012 63.9346 106.953 63.9932 106.93 64.04L108.734 65.833L109.039 65.5752C109.25 65.3877 109.555 65.2002 109.953 65.0244C110.352 64.8486 110.75 64.7549 111.137 64.7549C112.168 64.7666 112.695 65.165 112.695 65.9619C112.695 66.29 112.555 66.5479 112.297 66.7471C112.039 66.9463 111.652 67.04 111.137 67.04H109.93V69.1963H111.137C112.402 69.208 113.047 69.6064 113.047 70.4033C113.047 70.79 112.883 71.1064 112.555 71.3525C112.227 71.5986 111.758 71.7158 111.137 71.7158C110.598 71.7158 110.094 71.5986 109.613 71.3525C109.133 71.1064 108.816 70.9072 108.676 70.7666C108.535 70.626 108.43 70.4971 108.371 70.4033L106.566 72.1963L106.766 72.4424C106.871 72.583 107.059 72.7588 107.34 72.9697C107.609 73.1807 107.926 73.3799 108.289 73.5908C108.664 73.8018 109.133 73.9893 109.695 74.1299C110.258 74.2822 110.855 74.3525 111.477 74.3525C113.082 74.3525 114.324 74.0244 115.203 73.3447C116.082 72.665 116.516 71.8447 116.516 70.8838C116.516 70.4502 116.434 70.0518 116.258 69.7002C116.082 69.3486 115.895 69.0791 115.684 68.8799C115.473 68.6807 115.238 68.5049 114.957 68.3643C114.688 68.2236 114.5 68.1299 114.383 68.083C114.277 68.0479 114.195 68.0244 114.125 68.0127L114.312 67.9424C114.441 67.9072 114.605 67.8252 114.805 67.708C114.992 67.5908 115.191 67.4385 115.379 67.2744C115.566 67.1104 115.73 66.876 115.859 66.583C115.977 66.2783 116.047 65.9502 116.047 65.5986ZM127.262 62.3525L122.164 68.9619V62.3525H118.93V74.1182H121.73L126.852 67.5205V74.1182H130.086V62.3525H127.262ZM136.438 69.6768H140.996V74.1182H144.242V62.3525H140.996V66.7939H136.438V62.3525H133.203V74.1182H136.438V69.6768ZM161.879 62.3525H158.633V74.1182H161.879V62.3525ZM150.594 71.4814V68.5986H152.516C152.926 68.5986 153.266 68.7393 153.535 69.0088C153.816 69.29 153.945 69.6299 153.945 70.04C153.945 70.4619 153.816 70.8018 153.535 71.0713C153.266 71.3525 152.926 71.4814 152.516 71.4814H150.594ZM157.203 70.04C157.203 68.8213 156.793 67.8369 155.984 67.0869C155.164 66.3369 154.051 65.9619 152.633 65.9619H150.594V62.3525H147.359V74.1182H152.633C154.062 74.1182 155.176 73.7432 155.984 72.9932C156.793 72.2432 157.203 71.2588 157.203 70.04Z" fill="#363A45"/>
<path d="M58.418 104.915H50.8164V108.274C50.8164 109.571 50.7695 110.642 50.6758 111.501C50.582 112.36 50.4336 113.001 50.2383 113.423C50.0352 113.845 49.8242 114.134 49.6055 114.29C49.3867 114.446 49.1211 114.517 48.8164 114.517C48.5508 114.517 48.2539 114.47 47.9414 114.36V116.04L48.1133 116.087C48.2305 116.134 48.3945 116.173 48.6133 116.212C48.8242 116.259 49.0273 116.274 49.2227 116.274C49.7617 116.274 50.2227 116.173 50.5977 115.954C50.9727 115.735 51.3242 115.345 51.6367 114.782C51.9492 114.22 52.1836 113.399 52.3398 112.313C52.4961 111.235 52.5742 109.884 52.5742 108.274V106.517H56.6523V116.118H58.4102L58.418 104.915ZM68.1758 112.837L68.2617 112.04C68.2617 110.962 67.9023 110.071 67.1836 109.353C66.4648 108.634 65.5742 108.274 64.4961 108.274C63.418 108.274 62.4961 108.665 61.7305 109.431C60.9648 110.196 60.5742 111.118 60.5742 112.196C60.5742 113.321 60.9727 114.282 61.7617 115.079C62.5508 115.876 63.4883 116.274 64.5742 116.274C64.9805 116.274 65.3789 116.22 65.7617 116.103C66.1445 115.985 66.457 115.86 66.6914 115.72C66.9336 115.579 67.1602 115.423 67.3711 115.243C67.5898 115.063 67.7305 114.938 67.793 114.86C67.8555 114.782 67.9023 114.728 67.9336 114.681L66.8945 113.642L66.6523 113.938C66.4961 114.134 66.2227 114.329 65.832 114.532C65.4414 114.735 65.0273 114.837 64.5742 114.837C63.957 114.837 63.4258 114.642 62.9727 114.243C62.5195 113.853 62.2539 113.384 62.168 112.837H68.1758ZM64.4883 109.642C65.082 109.642 65.5664 109.813 65.957 110.157C66.3477 110.501 66.5898 110.938 66.6836 111.478H62.2383C62.3789 110.938 62.6445 110.501 63.0352 110.157C63.4258 109.813 63.9102 109.642 64.4883 109.642ZM75.3711 108.438H70.0117V116.118H71.6133V109.876H75.3711V108.438ZM83.457 108.438H81.5352L78.2539 111.876V108.438H76.6523V116.118H78.2539V113.962L79.457 112.681L81.9336 116.118H83.6914L80.4961 111.642L83.457 108.438ZM90.5586 112.282C90.5586 113.001 90.3164 113.603 89.8477 114.095C89.3711 114.595 88.8086 114.837 88.1602 114.837C87.5039 114.837 86.9414 114.595 86.4648 114.095C85.9883 113.603 85.7539 113.001 85.7539 112.282C85.7539 111.563 85.9883 110.962 86.4648 110.462C86.9414 109.97 87.5039 109.72 88.1602 109.72C88.8086 109.72 89.3711 109.97 89.8477 110.462C90.3164 110.962 90.5586 111.563 90.5586 112.282ZM84.1602 112.282C84.1602 113.36 84.5508 114.29 85.3477 115.087C86.1445 115.884 87.082 116.282 88.1602 116.282C89.2383 116.282 90.168 115.884 90.9648 115.087C91.7617 114.29 92.1602 113.36 92.1602 112.282C92.1602 111.204 91.7617 110.267 90.9648 109.47C90.168 108.673 89.2383 108.274 88.1602 108.274C87.082 108.274 86.1445 108.673 85.3477 109.47C84.5508 110.267 84.1602 111.204 84.1602 112.282ZM103.043 112.282C103.043 113.001 102.801 113.603 102.332 114.095C101.855 114.595 101.293 114.837 100.645 114.837C99.9883 114.837 99.4258 114.595 98.9492 114.095C98.4727 113.603 98.2383 113.001 98.2383 112.282C98.2383 111.563 98.4727 110.962 98.9492 110.462C99.4258 109.97 99.9883 109.72 100.645 109.72C101.293 109.72 101.855 109.97 102.332 110.462C102.801 110.962 103.043 111.563 103.043 112.282ZM96.6445 112.282C96.6445 113.36 97.0352 114.29 97.832 115.087C98.6289 115.884 99.5664 116.282 100.645 116.282C101.723 116.282 102.652 115.884 103.449 115.087C104.246 114.29 104.645 113.36 104.645 112.282C104.645 111.204 104.246 110.267 103.449 109.47C102.652 108.673 101.723 108.274 100.645 108.274C99.5664 108.274 98.6289 108.673 97.832 109.47C97.0352 110.267 96.6445 111.204 96.6445 112.282ZM105.605 109.876H108.246V116.118H109.84V109.876H112.48V108.438H105.605V109.876ZM120.723 108.438H118.801L115.52 111.876V108.438H113.918V116.118H115.52V113.962L116.723 112.681L119.199 116.118H120.957L117.762 111.642L120.723 108.438ZM126.309 116.274C127.324 116.274 128.199 115.892 128.949 115.11C129.699 114.329 130.074 113.384 130.074 112.274C130.074 111.165 129.699 110.228 128.949 109.446C128.199 108.665 127.324 108.274 126.309 108.274C125.855 108.274 125.418 108.376 124.988 108.563C124.551 108.759 124.27 108.915 124.137 109.032C124.004 109.157 123.902 109.251 123.832 109.321V108.438H122.23V119.478H123.832V115.235L123.941 115.353C124.004 115.415 124.113 115.501 124.262 115.61C124.41 115.72 124.582 115.821 124.777 115.923C124.965 116.024 125.199 116.11 125.473 116.173C125.738 116.243 126.02 116.274 126.309 116.274ZM126.152 109.72C126.762 109.72 127.301 109.97 127.77 110.47C128.238 110.97 128.473 111.579 128.473 112.282C128.473 112.985 128.238 113.587 127.77 114.087C127.301 114.587 126.762 114.837 126.152 114.837C125.543 114.837 125.004 114.587 124.535 114.087C124.066 113.587 123.832 112.985 123.832 112.282C123.832 111.579 124.066 110.97 124.535 110.47C125.004 109.97 125.543 109.72 126.152 109.72ZM137.746 112.282C137.746 113.001 137.504 113.603 137.035 114.095C136.559 114.595 135.996 114.837 135.348 114.837C134.691 114.837 134.129 114.595 133.652 114.095C133.176 113.603 132.941 113.001 132.941 112.282C132.941 111.563 133.176 110.962 133.652 110.462C134.129 109.97 134.691 109.72 135.348 109.72C135.996 109.72 136.559 109.97 137.035 110.462C137.504 110.962 137.746 111.563 137.746 112.282ZM131.348 112.282C131.348 113.36 131.738 114.29 132.535 115.087C133.332 115.884 134.27 116.282 135.348 116.282C136.426 116.282 137.355 115.884 138.152 115.087C138.949 114.29 139.348 113.36 139.348 112.282C139.348 111.204 138.949 110.267 138.152 109.47C137.355 108.673 136.426 108.274 135.348 108.274C134.27 108.274 133.332 108.673 132.535 109.47C131.738 110.267 131.348 111.204 131.348 112.282ZM146.707 108.438L142.707 113.478V108.438H141.105V116.118H142.543L146.543 111.079V116.118H148.145V108.438H146.707ZM144.621 106.04C144.301 106.04 144.035 105.938 143.824 105.72C143.605 105.501 143.504 105.235 143.504 104.915H142.309C142.309 105.556 142.527 106.095 142.965 106.517C143.402 106.946 143.957 107.157 144.629 107.157C145.301 107.157 145.855 106.946 146.293 106.517C146.73 106.095 146.949 105.556 146.949 104.915H145.746C145.746 105.243 145.637 105.509 145.426 105.72C145.207 105.938 144.941 106.04 144.621 106.04ZM149.59 109.876H152.23V116.118H153.824V109.876H156.465V108.438H149.59V109.876ZM165.02 112.837L165.105 112.04C165.105 110.962 164.746 110.071 164.027 109.353C163.309 108.634 162.418 108.274 161.34 108.274C160.262 108.274 159.34 108.665 158.574 109.431C157.809 110.196 157.418 111.118 157.418 112.196C157.418 113.321 157.816 114.282 158.605 115.079C159.395 115.876 160.332 116.274 161.418 116.274C161.824 116.274 162.223 116.22 162.605 116.103C162.988 115.985 163.301 115.86 163.535 115.72C163.777 115.579 164.004 115.423 164.215 115.243C164.434 115.063 164.574 114.938 164.637 114.86C164.699 114.782 164.746 114.728 164.777 114.681L163.738 113.642L163.496 113.938C163.34 114.134 163.066 114.329 162.676 114.532C162.285 114.735 161.871 114.837 161.418 114.837C160.801 114.837 160.27 114.642 159.816 114.243C159.363 113.853 159.098 113.384 159.012 112.837H165.02ZM161.332 109.642C161.926 109.642 162.41 109.813 162.801 110.157C163.191 110.501 163.434 110.938 163.527 111.478H159.082C159.223 110.938 159.488 110.501 159.879 110.157C160.27 109.813 160.754 109.642 161.332 109.642ZM169.582 112.282C169.582 113.36 169.973 114.29 170.77 115.087C171.566 115.884 172.504 116.282 173.582 116.282C173.949 116.282 174.316 116.22 174.684 116.103C175.043 115.985 175.34 115.86 175.574 115.72C175.801 115.579 176.02 115.423 176.23 115.243C176.434 115.063 176.574 114.938 176.637 114.86C176.699 114.782 176.746 114.728 176.777 114.688L175.738 113.649L175.496 113.946C175.34 114.134 175.082 114.337 174.723 114.54C174.363 114.743 173.988 114.845 173.582 114.845C172.926 114.845 172.363 114.595 171.887 114.103C171.41 113.603 171.176 113.001 171.176 112.282C171.176 111.563 171.41 110.962 171.887 110.47C172.363 109.97 172.926 109.728 173.582 109.728C173.988 109.728 174.363 109.829 174.723 110.04C175.082 110.243 175.309 110.407 175.418 110.532C175.527 110.657 175.605 110.759 175.66 110.845L176.699 109.806L176.363 109.438C176.137 109.181 175.77 108.923 175.254 108.665C174.738 108.407 174.176 108.282 173.582 108.282C172.504 108.282 171.566 108.681 170.77 109.478C169.973 110.274 169.582 111.204 169.582 112.282ZM178.371 108.438V116.118H182.215C183.027 116.118 183.676 115.915 184.145 115.493C184.613 115.079 184.855 114.54 184.855 113.876C184.855 113.626 184.809 113.384 184.715 113.165C184.621 112.946 184.52 112.774 184.41 112.649C184.301 112.524 184.168 112.407 184.02 112.298C183.863 112.188 183.762 112.126 183.707 112.095C183.645 112.071 183.605 112.056 183.574 112.048L183.793 111.899C183.941 111.79 184.09 111.603 184.23 111.337C184.371 111.071 184.449 110.774 184.449 110.446C184.449 109.868 184.23 109.384 183.801 109.009C183.363 108.634 182.785 108.446 182.051 108.446L178.371 108.438ZM182.215 112.688C182.52 112.688 182.77 112.79 182.965 112.993C183.152 113.196 183.254 113.438 183.254 113.728C183.254 114.04 183.16 114.298 182.973 114.485C182.785 114.673 182.527 114.767 182.215 114.767H179.973V112.688H182.215ZM182.855 110.603C182.855 110.853 182.777 111.048 182.637 111.188C182.488 111.329 182.293 111.407 182.051 111.407H179.973V109.806H182.051C182.293 109.806 182.488 109.876 182.637 110.017C182.777 110.157 182.855 110.353 182.855 110.603ZM192.527 112.282C192.527 113.001 192.285 113.603 191.816 114.095C191.34 114.595 190.777 114.837 190.129 114.837C189.473 114.837 188.91 114.595 188.434 114.095C187.957 113.603 187.723 113.001 187.723 112.282C187.723 111.563 187.957 110.962 188.434 110.462C188.91 109.97 189.473 109.72 190.129 109.72C190.777 109.72 191.34 109.97 191.816 110.462C192.285 110.962 192.527 111.563 192.527 112.282ZM186.129 112.282C186.129 113.36 186.52 114.29 187.316 115.087C188.113 115.884 189.051 116.282 190.129 116.282C191.207 116.282 192.137 115.884 192.934 115.087C193.73 114.29 194.129 113.36 194.129 112.282C194.129 111.204 193.73 110.267 192.934 109.47C192.137 108.673 191.207 108.274 190.129 108.274C189.051 108.274 188.113 108.673 187.316 109.47C186.52 110.267 186.129 111.204 186.129 112.282ZM201.488 108.438L197.488 113.478V108.438H195.887V116.118H197.324L201.324 111.079V116.118H202.926V108.438H201.488ZM199.402 106.04C199.082 106.04 198.816 105.938 198.605 105.72C198.387 105.501 198.285 105.235 198.285 104.915H197.09C197.09 105.556 197.309 106.095 197.746 106.517C198.184 106.946 198.738 107.157 199.41 107.157C200.082 107.157 200.637 106.946 201.074 106.517C201.512 106.095 201.73 105.556 201.73 104.915H200.527C200.527 105.243 200.418 105.509 200.207 105.72C199.988 105.938 199.723 106.04 199.402 106.04ZM213.973 108.438L209.973 113.478V108.438H208.371V116.118H209.809L213.809 111.079V116.118H215.41V108.438H213.973ZM219.254 112.915H223.012V116.118H224.613V108.438H223.012V111.478H219.254V108.438H217.652V116.118H219.254V112.915ZM226.059 109.876H228.699V116.118H230.293V109.876H232.934V108.438H226.059V109.876ZM241.488 112.837L241.574 112.04C241.574 110.962 241.215 110.071 240.496 109.353C239.777 108.634 238.887 108.274 237.809 108.274C236.73 108.274 235.809 108.665 235.043 109.431C234.277 110.196 233.887 111.118 233.887 112.196C233.887 113.321 234.285 114.282 235.074 115.079C235.863 115.876 236.801 116.274 237.887 116.274C238.293 116.274 238.691 116.22 239.074 116.103C239.457 115.985 239.77 115.86 240.004 115.72C240.246 115.579 240.473 115.423 240.684 115.243C240.902 115.063 241.043 114.938 241.105 114.86C241.168 114.782 241.215 114.728 241.246 114.681L240.207 113.642L239.965 113.938C239.809 114.134 239.535 114.329 239.145 114.532C238.754 114.735 238.34 114.837 237.887 114.837C237.27 114.837 236.738 114.642 236.285 114.243C235.832 113.853 235.566 113.384 235.48 112.837H241.488ZM237.801 109.642C238.395 109.642 238.879 109.813 239.27 110.157C239.66 110.501 239.902 110.938 239.996 111.478H235.551C235.691 110.938 235.957 110.501 236.348 110.157C236.738 109.813 237.223 109.642 237.801 109.642ZM247.402 116.274C248.418 116.274 249.293 115.892 250.043 115.11C250.793 114.329 251.168 113.384 251.168 112.274C251.168 111.165 250.793 110.228 250.043 109.446C249.293 108.665 248.418 108.274 247.402 108.274C246.949 108.274 246.512 108.376 246.082 108.563C245.645 108.759 245.363 108.915 245.23 109.032C245.098 109.157 244.996 109.251 244.926 109.321V108.438H243.324V119.478H244.926V115.235L245.035 115.353C245.098 115.415 245.207 115.501 245.355 115.61C245.504 115.72 245.676 115.821 245.871 115.923C246.059 116.024 246.293 116.11 246.566 116.173C246.832 116.243 247.113 116.274 247.402 116.274ZM247.246 109.72C247.855 109.72 248.395 109.97 248.863 110.47C249.332 110.97 249.566 111.579 249.566 112.282C249.566 112.985 249.332 113.587 248.863 114.087C248.395 114.587 247.855 114.837 247.246 114.837C246.637 114.837 246.098 114.587 245.629 114.087C245.16 113.587 244.926 112.985 244.926 112.282C244.926 111.579 245.16 110.97 245.629 110.47C246.098 109.97 246.637 109.72 247.246 109.72ZM254.52 112.915H258.277V116.118H259.879V108.438H258.277V111.478H254.52V108.438H252.918V116.118H254.52V112.915ZM269.238 112.837L269.324 112.04C269.324 110.962 268.965 110.071 268.246 109.353C267.527 108.634 266.637 108.274 265.559 108.274C264.48 108.274 263.559 108.665 262.793 109.431C262.027 110.196 261.637 111.118 261.637 112.196C261.637 113.321 262.035 114.282 262.824 115.079C263.613 115.876 264.551 116.274 265.637 116.274C266.043 116.274 266.441 116.22 266.824 116.103C267.207 115.985 267.52 115.86 267.754 115.72C267.996 115.579 268.223 115.423 268.434 115.243C268.652 115.063 268.793 114.938 268.855 114.86C268.918 114.782 268.965 114.728 268.996 114.681L267.957 113.642L267.715 113.938C267.559 114.134 267.285 114.329 266.895 114.532C266.504 114.735 266.09 114.837 265.637 114.837C265.02 114.837 264.488 114.642 264.035 114.243C263.582 113.853 263.316 113.384 263.23 112.837H269.238ZM265.551 109.642C266.145 109.642 266.629 109.813 267.02 110.157C267.41 110.501 267.652 110.938 267.746 111.478H263.301C263.441 110.938 263.707 110.501 264.098 110.157C264.488 109.813 264.973 109.642 265.551 109.642ZM270.277 109.876H272.918V116.118H274.512V109.876H277.152V108.438H270.277V109.876ZM283.793 110.681H278.191V112.118H283.793V110.681ZM289.543 111.798L286.746 108.438H285.465V116.118H287.066V111.079L289.543 114.04L292.027 111.079V116.118H293.629V108.438H292.348L289.543 111.798ZM302.035 116.118V111.157C302.035 110.345 301.73 109.665 301.137 109.11C300.535 108.556 299.77 108.274 298.832 108.274C298.457 108.274 298.09 108.329 297.738 108.431C297.387 108.532 297.105 108.649 296.895 108.774C296.676 108.907 296.473 109.056 296.285 109.22C296.098 109.384 295.973 109.501 295.918 109.563C295.863 109.626 295.824 109.681 295.793 109.72L296.832 110.759L297.043 110.485C297.168 110.313 297.395 110.149 297.723 109.978C298.051 109.806 298.426 109.72 298.832 109.72C299.301 109.72 299.684 109.86 299.98 110.134C300.277 110.415 300.434 110.751 300.434 111.157L297.629 111.642C296.934 111.759 296.387 112.032 295.988 112.454C295.59 112.884 295.395 113.415 295.395 114.048C295.395 114.626 295.652 115.149 296.168 115.603C296.684 116.056 297.332 116.282 298.113 116.282C298.379 116.282 298.637 116.243 298.902 116.181C299.16 116.11 299.379 116.032 299.551 115.946C299.723 115.86 299.879 115.767 300.027 115.657C300.176 115.548 300.277 115.478 300.324 115.431C300.371 115.384 300.41 115.345 300.434 115.329V116.126L302.035 116.118ZM298.355 114.845C297.934 114.845 297.605 114.743 297.355 114.556C297.105 114.36 296.988 114.134 296.988 113.876C296.988 113.603 297.074 113.376 297.254 113.196C297.426 113.009 297.66 112.892 297.949 112.845L300.434 112.446V112.603C300.434 113.321 300.246 113.868 299.879 114.259C299.512 114.649 299.004 114.845 298.355 114.845ZM309.637 108.438H304.277V116.118H305.879V109.876H309.637V108.438ZM317.082 116.118V111.157C317.082 110.345 316.777 109.665 316.184 109.11C315.582 108.556 314.816 108.274 313.879 108.274C313.504 108.274 313.137 108.329 312.785 108.431C312.434 108.532 312.152 108.649 311.941 108.774C311.723 108.907 311.52 109.056 311.332 109.22C311.145 109.384 311.02 109.501 310.965 109.563C310.91 109.626 310.871 109.681 310.84 109.72L311.879 110.759L312.09 110.485C312.215 110.313 312.441 110.149 312.77 109.978C313.098 109.806 313.473 109.72 313.879 109.72C314.348 109.72 314.73 109.86 315.027 110.134C315.324 110.415 315.48 110.751 315.48 111.157L312.676 111.642C311.98 111.759 311.434 112.032 311.035 112.454C310.637 112.884 310.441 113.415 310.441 114.048C310.441 114.626 310.699 115.149 311.215 115.603C311.73 116.056 312.379 116.282 313.16 116.282C313.426 116.282 313.684 116.243 313.949 116.181C314.207 116.11 314.426 116.032 314.598 115.946C314.77 115.86 314.926 115.767 315.074 115.657C315.223 115.548 315.324 115.478 315.371 115.431C315.418 115.384 315.457 115.345 315.48 115.329V116.126L317.082 116.118ZM313.402 114.845C312.98 114.845 312.652 114.743 312.402 114.556C312.152 114.36 312.035 114.134 312.035 113.876C312.035 113.603 312.121 113.376 312.301 113.196C312.473 113.009 312.707 112.892 312.996 112.845L315.48 112.446V112.603C315.48 113.321 315.293 113.868 314.926 114.259C314.559 114.649 314.051 114.845 313.402 114.845ZM324.441 110.438C324.441 109.853 324.184 109.345 323.668 108.915C323.152 108.493 322.449 108.274 321.566 108.274C321.02 108.274 320.504 108.384 320.02 108.587C319.535 108.798 319.223 108.962 319.082 109.087C318.941 109.212 318.832 109.321 318.762 109.399L319.809 110.438L320.012 110.259C320.152 110.134 320.363 110.017 320.66 109.899C320.957 109.782 321.254 109.72 321.566 109.72C321.98 109.72 322.301 109.806 322.52 109.97C322.738 110.134 322.848 110.345 322.848 110.603C322.848 110.86 322.738 111.071 322.52 111.235C322.301 111.399 321.98 111.478 321.566 111.478H320.684V112.759H321.566C322.098 112.759 322.496 112.86 322.762 113.056C323.027 113.259 323.168 113.501 323.168 113.798C323.168 114.095 323.027 114.345 322.762 114.54C322.496 114.743 322.098 114.837 321.566 114.837C321.207 114.837 320.855 114.751 320.504 114.579C320.152 114.407 319.926 114.259 319.816 114.149C319.707 114.04 319.629 113.954 319.566 113.876L318.527 114.915L318.637 115.063C318.715 115.157 318.848 115.274 319.02 115.407C319.191 115.54 319.387 115.673 319.621 115.798C319.848 115.931 320.137 116.04 320.48 116.134C320.824 116.228 321.184 116.274 321.559 116.274C322.551 116.274 323.332 116.056 323.902 115.603C324.473 115.149 324.754 114.603 324.754 113.962C324.754 113.673 324.699 113.407 324.59 113.173C324.48 112.938 324.355 112.759 324.223 112.626C324.09 112.493 323.941 112.376 323.77 112.282C323.598 112.188 323.48 112.126 323.41 112.103C323.34 112.071 323.285 112.056 323.238 112.048L323.543 111.899C323.746 111.813 323.949 111.642 324.145 111.376C324.34 111.11 324.441 110.798 324.441 110.438ZM332.129 108.438L328.129 113.478V108.438H326.527V116.118H327.965L331.965 111.079V116.118H333.566V108.438H332.129ZM337.41 112.915H341.168V116.118H342.77V108.438H341.168V111.478H337.41V108.438H335.809V116.118H337.41V112.915Z" fill="#363A45"/>
<path d="M44.0195 157.501C44.0195 151.978 48.4967 147.501 54.0195 147.501H222.02C227.542 147.501 232.02 151.978 232.02 157.501V177.501C232.02 183.024 227.542 187.501 222.02 187.501H54.0195C48.4967 187.501 44.0195 183.024 44.0195 177.501V157.501Z" fill="#00C65E"/>
<path d="M109.33 162.698H101.421V172.501H102.959V164.1H107.792V172.501H109.33V162.698ZM116.815 169.145C116.815 169.773 116.604 170.3 116.193 170.73C115.776 171.168 115.284 171.38 114.717 171.38C114.143 171.38 113.65 171.168 113.233 170.73C112.816 170.3 112.611 169.773 112.611 169.145C112.611 168.516 112.816 167.989 113.233 167.552C113.65 167.121 114.143 166.902 114.717 166.902C115.284 166.902 115.776 167.121 116.193 167.552C116.604 167.989 116.815 168.516 116.815 169.145ZM111.217 169.145C111.217 170.088 111.559 170.901 112.256 171.599C112.953 172.296 113.773 172.645 114.717 172.645C115.66 172.645 116.474 172.296 117.171 171.599C117.868 170.901 118.217 170.088 118.217 169.145C118.217 168.201 117.868 167.381 117.171 166.684C116.474 165.986 115.66 165.638 114.717 165.638C113.773 165.638 112.953 165.986 112.256 166.684C111.559 167.381 111.217 168.201 111.217 169.145ZM118.777 171.243V174.183H120.179V172.501H124.868V174.183H126.263V171.243H125.285V165.781H120.384V167.743C120.384 168.194 120.343 168.618 120.261 169.021C120.179 169.432 120.09 169.76 119.994 170.006C119.898 170.252 119.782 170.484 119.652 170.696C119.522 170.915 119.434 171.052 119.379 171.113C119.324 171.175 119.29 171.216 119.263 171.243H118.777ZM121.785 167.039H123.884V171.243H120.664L120.78 171.1C120.849 171.018 120.944 170.881 121.054 170.689C121.163 170.498 121.279 170.272 121.389 170.013C121.498 169.753 121.594 169.418 121.669 169.015C121.744 168.618 121.778 168.194 121.778 167.743L121.785 167.039ZM131.239 172.638C132.128 172.638 132.894 172.303 133.55 171.619C134.206 170.936 134.534 170.108 134.534 169.138C134.534 168.167 134.206 167.347 133.55 166.663C132.894 165.979 132.128 165.638 131.239 165.638C130.843 165.638 130.46 165.727 130.084 165.891C129.701 166.062 129.455 166.198 129.339 166.301C129.223 166.41 129.134 166.492 129.072 166.554V165.781H127.671V175.44H129.072V171.729L129.168 171.831C129.223 171.886 129.318 171.961 129.448 172.057C129.578 172.152 129.729 172.241 129.899 172.33C130.063 172.419 130.269 172.494 130.508 172.549C130.74 172.61 130.986 172.638 131.239 172.638ZM131.103 166.902C131.636 166.902 132.107 167.121 132.518 167.559C132.928 167.996 133.133 168.529 133.133 169.145C133.133 169.76 132.928 170.286 132.518 170.724C132.107 171.161 131.636 171.38 131.103 171.38C130.569 171.38 130.098 171.161 129.688 170.724C129.277 170.286 129.072 169.76 129.072 169.145C129.072 168.529 129.277 167.996 129.688 167.559C130.098 167.121 130.569 166.902 131.103 166.902ZM141.247 169.145C141.247 169.773 141.035 170.3 140.625 170.73C140.208 171.168 139.716 171.38 139.148 171.38C138.574 171.38 138.082 171.168 137.665 170.73C137.248 170.3 137.043 169.773 137.043 169.145C137.043 168.516 137.248 167.989 137.665 167.552C138.082 167.121 138.574 166.902 139.148 166.902C139.716 166.902 140.208 167.121 140.625 167.552C141.035 167.989 141.247 168.516 141.247 169.145ZM135.648 169.145C135.648 170.088 135.99 170.901 136.688 171.599C137.385 172.296 138.205 172.645 139.148 172.645C140.092 172.645 140.905 172.296 141.603 171.599C142.3 170.901 142.648 170.088 142.648 169.145C142.648 168.201 142.3 167.381 141.603 166.684C140.905 165.986 140.092 165.638 139.148 165.638C138.205 165.638 137.385 165.986 136.688 166.684C135.99 167.381 135.648 168.201 135.648 169.145ZM150.906 169.213C150.906 168.283 150.578 167.477 149.929 166.8C149.279 166.123 148.534 165.781 147.687 165.781C147.427 165.781 147.167 165.822 146.914 165.897C146.661 165.973 146.456 166.055 146.292 166.15C146.128 166.246 145.978 166.349 145.834 166.472C145.684 166.595 145.588 166.677 145.54 166.725C145.492 166.772 145.458 166.813 145.444 166.841C145.513 166.116 145.738 165.542 146.135 165.118C146.524 164.688 147.044 164.421 147.687 164.318C148.432 164.195 149.047 164.045 149.532 163.867C150.018 163.689 150.305 163.566 150.387 163.498C150.469 163.43 150.53 163.375 150.558 163.341L149.929 162.288L149.703 162.425C149.553 162.507 149.279 162.616 148.883 162.746C148.486 162.869 148.042 162.979 147.543 163.061C146.422 163.245 145.561 163.744 144.952 164.564C144.351 165.378 144.043 166.602 144.043 168.235C144.043 169.664 144.364 170.758 145.007 171.51C145.649 172.262 146.49 172.638 147.543 172.638C148.459 172.638 149.245 172.303 149.908 171.633C150.571 170.963 150.906 170.156 150.906 169.213ZM145.581 169.213C145.581 168.598 145.779 168.085 146.162 167.668C146.552 167.251 147.01 167.039 147.543 167.039C148.076 167.039 148.534 167.251 148.924 167.668C149.307 168.085 149.505 168.598 149.505 169.213C149.505 169.828 149.307 170.348 148.924 170.758C148.534 171.175 148.076 171.38 147.543 171.38C147.01 171.38 146.552 171.175 146.162 170.758C145.779 170.348 145.581 169.828 145.581 169.213ZM153.982 169.698H157.271V172.501H158.672V165.781H157.271V168.44H153.982V165.781H152.581V172.501H153.982V169.698ZM166.861 169.63L166.937 168.933C166.937 167.989 166.622 167.21 165.993 166.581C165.364 165.952 164.585 165.638 163.642 165.638C162.698 165.638 161.892 165.979 161.222 166.649C160.552 167.319 160.21 168.126 160.21 169.069C160.21 170.054 160.559 170.895 161.249 171.592C161.939 172.289 162.76 172.638 163.71 172.638C164.065 172.638 164.414 172.59 164.749 172.487C165.084 172.385 165.357 172.275 165.562 172.152C165.774 172.029 165.973 171.893 166.157 171.735C166.349 171.578 166.472 171.469 166.526 171.4C166.581 171.332 166.622 171.284 166.649 171.243L165.74 170.334L165.528 170.594C165.392 170.765 165.152 170.936 164.811 171.113C164.469 171.291 164.106 171.38 163.71 171.38C163.17 171.38 162.705 171.209 162.309 170.86C161.912 170.519 161.68 170.108 161.604 169.63H166.861ZM163.635 166.834C164.154 166.834 164.578 166.984 164.92 167.285C165.262 167.586 165.474 167.969 165.556 168.44H161.666C161.789 167.969 162.021 167.586 162.363 167.285C162.705 166.984 163.129 166.834 163.635 166.834ZM174.695 169.63L174.771 168.933C174.771 167.989 174.456 167.21 173.827 166.581C173.198 165.952 172.419 165.638 171.476 165.638C170.532 165.638 169.726 165.979 169.056 166.649C168.386 167.319 168.044 168.126 168.044 169.069C168.044 170.054 168.393 170.895 169.083 171.592C169.773 172.289 170.594 172.638 171.544 172.638C171.899 172.638 172.248 172.59 172.583 172.487C172.918 172.385 173.191 172.275 173.396 172.152C173.608 172.029 173.807 171.893 173.991 171.735C174.183 171.578 174.306 171.469 174.36 171.4C174.415 171.332 174.456 171.284 174.483 171.243L173.574 170.334L173.362 170.594C173.226 170.765 172.986 170.936 172.645 171.113C172.303 171.291 171.94 171.38 171.544 171.38C171.004 171.38 170.539 171.209 170.143 170.86C169.746 170.519 169.514 170.108 169.438 169.63H174.695ZM171.469 166.834C171.988 166.834 172.412 166.984 172.754 167.285C173.096 167.586 173.308 167.969 173.39 168.44H169.5C169.623 167.969 169.855 167.586 170.197 167.285C170.539 166.984 170.963 166.834 171.469 166.834Z" fill="white"/>
<g clip-path="url(#clip1_1652_36178)">
<path opacity="0.7" d="M463.036 194.173C449.614 203.052 431.441 196.054 427.441 180.465L413.397 125.729C408.668 107.299 426.732 91.2238 444.488 98.0617L505.663 121.62C523.419 128.458 526.035 152.497 510.166 162.995L463.036 194.173Z" fill="#00C65E"/>
<path d="M562.068 71.7543C570.896 76.3361 572.576 88.2533 565.359 95.097L540.016 119.126C531.483 127.217 517.374 122.29 515.733 110.646L510.078 70.5293C508.436 58.8853 520.634 50.2501 531.071 55.6669L562.068 71.7543Z" fill="#F89358"/>
<path d="M499.526 32.8454L504.429 32.6953L509.332 32.578L519.138 32.3481C525.677 32.2262 532.216 32.1089 538.75 32.0338L541.204 32.001C541.598 32.001 542.064 32.001 542.497 32.0338C542.93 32.0667 543.377 32.1323 543.81 32.2168C545.554 32.5875 547.172 33.3954 548.508 34.5624C549.172 35.1439 549.764 35.8005 550.272 36.5187C550.766 37.2501 551.169 38.0377 551.471 38.8644C551.623 39.2767 551.749 39.6982 551.847 40.1263C551.937 40.5532 552.008 40.9895 552.056 41.4258C552.122 42.3313 552.108 43.11 552.118 43.9169L552.17 63.2686L552.118 82.6156C552.118 83.4366 552.118 84.1872 552.065 85.102C552.042 85.5383 551.942 85.9699 551.88 86.4062L551.709 87.0442L551.623 87.3632L551.509 87.6728L551.276 88.2921L550.986 88.8832C550.789 89.277 550.567 89.6578 550.32 90.0232C549.82 90.7494 549.229 91.4099 548.56 91.9888C547.226 93.1631 545.603 93.9718 543.852 94.3345C543.417 94.4138 542.977 94.4702 542.535 94.5034C542.088 94.5034 541.646 94.5409 541.246 94.5315H538.797C532.26 94.4784 525.721 94.4017 519.181 94.3017L509.375 94.1093L504.472 94.0155L499.569 93.8325L504.472 93.6777L509.375 93.5604L519.181 93.3306C525.721 93.2023 532.258 93.0976 538.793 93.0162L541.246 92.9834C541.67 92.9834 542.041 92.9553 542.412 92.9318C542.783 92.8958 543.153 92.841 543.52 92.7676C544.983 92.4413 546.336 91.7481 547.448 90.755C548.003 90.2603 548.493 89.6993 548.908 89.0849C549.106 88.7743 549.287 88.4533 549.45 88.1232L549.683 87.6259L549.868 87.1099L549.963 86.8472L550.03 86.5798L550.163 86.0496C550.228 85.6879 550.274 85.323 550.301 84.9566C550.349 84.2622 550.301 83.399 550.301 82.6109L550.249 63.2639L550.301 43.9122C550.301 43.11 550.325 42.275 550.301 41.5666C550.267 41.2014 550.215 40.8381 550.144 40.4782C550.066 40.117 549.965 39.7613 549.84 39.4133C549.364 38.0099 548.523 36.7544 547.4 35.7728C546.287 34.775 544.933 34.0756 543.467 33.7415C543.106 33.6617 542.735 33.6054 542.359 33.5585C541.984 33.5116 541.632 33.4975 541.208 33.5069H538.755C532.216 33.46 525.677 33.3708 519.143 33.277L509.332 33.0894L504.429 32.9908L499.526 32.8454Z" fill="#0FC645"/>
<path d="M541.05 93.7348L498.873 93.8239C497.604 93.8264 496.348 93.582 495.175 93.1047C494.003 92.6274 492.937 91.9265 492.039 91.0423C491.142 90.1581 490.43 89.1079 489.944 87.9519C489.458 86.7958 489.209 85.5566 489.209 84.3053V42.8481C489.206 40.3252 490.217 37.904 492.022 36.1165C493.827 34.3291 496.277 33.3215 498.835 33.3153L540.855 33.2403C542.124 33.2378 543.38 33.4822 544.553 33.9594C545.726 34.4367 546.792 35.1374 547.69 36.0216C548.588 36.9057 549.301 37.9559 549.787 39.112C550.273 40.268 550.523 41.5073 550.523 42.7589V84.3662C550.519 86.8457 549.521 89.223 547.746 90.9784C545.971 92.7339 543.563 93.7249 541.05 93.7348Z" fill="white"/>
<path d="M530.683 105.594C529.872 105.412 529.148 104.964 528.63 104.323C528.112 103.682 527.829 102.886 527.829 102.066V97.5389C527.829 96.5796 528.216 95.6596 528.903 94.9813C529.591 94.303 530.524 93.9219 531.496 93.9219L508.237 93.9782C509.209 93.9782 510.142 94.3592 510.829 95.0376C511.517 95.7159 511.903 96.6359 511.903 97.5952V102.127C511.932 103.333 510.724 105.078 509.112 105.594H499.03V110.721H540.703V105.594H530.683Z" fill="#0FC645"/>
<path d="M536.743 63.6015H485.692C483.547 63.6015 480.884 61.8329 481.812 59.7734L489.554 46.6611H550.891L543.149 59.7968C540.947 63.137 538.888 63.6015 536.743 63.6015Z" fill="#0FC645"/>
<path d="M536.741 64.2244H485.69C484.868 64.2211 484.057 64.0296 483.323 63.6649C482.589 63.3002 481.95 62.7722 481.457 62.1227C481.195 61.7447 481.037 61.3065 480.997 60.8504C480.957 60.3942 481.037 59.9357 481.229 59.519L481.262 59.458L489.185 46.0361H551.959L543.708 60.0866C541.444 63.5254 539.29 64.2244 536.741 64.2244ZM482.399 60.0538C482.299 60.2769 482.26 60.5218 482.285 60.7644C482.31 61.007 482.398 61.239 482.542 61.4377C482.92 61.9101 483.401 62.2927 483.949 62.5574C484.497 62.822 485.099 62.9621 485.709 62.9671H536.741C538.538 62.9671 540.474 62.695 542.614 59.4298L549.785 47.284H489.937L482.399 60.0538Z" fill="#0FC645"/>
<path d="M523.029 42.1061C524.043 42.1061 524.865 41.2953 524.865 40.2952C524.865 39.2951 524.043 38.4844 523.029 38.4844C522.016 38.4844 521.194 39.2951 521.194 40.2952C521.194 41.2953 522.016 42.1061 523.029 42.1061Z" fill="#0FC645"/>
<path d="M530.676 42.1061C531.69 42.1061 532.512 41.2953 532.512 40.2952C532.512 39.2951 531.69 38.4844 530.676 38.4844C529.662 38.4844 528.84 39.2951 528.84 40.2952C528.84 41.2953 529.662 42.1061 530.676 42.1061Z" fill="#0FC645"/>
<path d="M538.321 42.1061C539.334 42.1061 540.156 41.2953 540.156 40.2952C540.156 39.2951 539.334 38.4844 538.321 38.4844C537.307 38.4844 536.485 39.2951 536.485 40.2952C536.485 41.2953 537.307 42.1061 538.321 42.1061Z" fill="#0FC645"/>
<path d="M503.392 89.84L502.817 89.4084L508.947 80.7061L510.274 81.7053L503.392 89.84Z" fill="#0FC645"/>
<path d="M517.13 79.2938L516.559 78.8669L521.857 71.2529L523.174 72.2428L517.13 79.2938Z" fill="#0FC645"/>
<path d="M501.444 81.7719L500.963 81.4107L510.622 68.2656L511.735 69.1054L501.444 81.7719Z" fill="#0FC645"/>
<path d="M496.704 73.229L496.395 72.9992L501.95 65.3945L502.663 65.9293L496.704 73.229Z" fill="#0FC645"/>
<path d="M514.295 89.5902L514.124 89.4636L517.186 85.2695L517.581 85.5651L514.295 89.5902Z" fill="#0FC645"/>
<path d="M493.963 82.2926L493.868 82.2223L495.603 79.8438L495.827 80.0126L493.963 82.2926Z" fill="#0FC645"/>
<path d="M493.041 64.2279H491.415L501.42 46.0303H503.047L493.041 64.2279Z" fill="white"/>
<path d="M502.55 64.2306H500.928L510.929 46.0283L512.541 46.0424L502.55 64.2306Z" fill="white"/>
<path d="M512.035 64.3158L510.451 64.2408L520.447 46.0479H522.069L512.035 64.3158Z" fill="white"/>
<path d="M521.574 64.2636L519.957 64.2495L529.967 46.0425H531.589L521.574 64.2636Z" fill="white"/>
<path d="M531.12 64.2119H529.499L539.49 46.0283H541.112L531.12 64.2119Z" fill="white"/>
<path d="M535.505 64.0234H527.497V93.9822H535.505V64.0234Z" fill="white"/>
<path d="M535.745 94.2224H527.256V63.8086H535.745V94.2224ZM527.737 93.7533H535.26V64.2777H527.737V93.7533Z" fill="#0FC645"/>
<path fill-rule="evenodd" clip-rule="evenodd" d="M543.915 98.9446C542.133 97.1981 539.965 95.2972 538.792 94.5312C539.734 94.5625 543.326 94.415 543.326 94.415C544.191 95.1132 545.116 95.9204 546.015 96.8022C547.925 98.6738 549.858 101.013 550.769 103.464C550.795 103.534 550.822 103.606 550.849 103.68C551.871 106.418 553.772 111.516 550.766 117.639C547.729 123.825 539.871 130.691 522.241 137.478C517.246 139.401 511.128 142.638 506.289 146.691C501.396 150.789 497.047 156.116 497.047 160.883L496.302 154.624C496.793 152.266 499.268 148.658 504.362 144.391C509.51 140.079 515.935 136.691 521.163 134.678C538.578 127.974 545.544 121.467 548.073 116.317C550.506 111.361 549.005 107.325 548.011 104.655C547.993 104.606 547.974 104.557 547.956 104.509C547.277 102.681 545.722 100.715 543.915 98.9446Z" fill="#FFB762"/>
<path d="M491.782 171.111H438.974L445.894 116.36H484.862L491.782 171.111Z" fill="white"/>
<path d="M498.364 171.111H445.565L452.485 116.36H491.444L498.364 171.111Z" fill="white"/>
<path d="M475.094 119.175H455.17V105.495C455.246 102.939 456.329 100.513 458.189 98.7312C460.049 96.9496 462.539 95.9531 465.132 95.9531C467.724 95.9531 470.215 96.9496 472.075 98.7312C473.934 100.513 475.017 102.939 475.094 105.495V119.175ZM460.114 114.297H470.149V105.495C470.178 104.828 470.069 104.162 469.829 103.537C469.589 102.913 469.224 102.342 468.756 101.86C468.287 101.378 467.724 100.995 467.102 100.733C466.479 100.471 465.809 100.336 465.132 100.336C464.455 100.336 463.785 100.471 463.162 100.733C462.539 100.995 461.977 101.378 461.508 101.86C461.039 102.342 460.674 102.913 460.435 103.537C460.195 104.162 460.086 104.828 460.114 105.495V114.297Z" fill="white"/>
<path d="M476.257 120.029H456.333V106.35C456.294 105.035 456.522 103.726 457.005 102.5C457.488 101.273 458.216 100.155 459.145 99.2117C460.074 98.2679 461.185 97.5176 462.413 97.0053C463.641 96.493 464.961 96.229 466.295 96.229C467.628 96.229 468.948 96.493 470.176 97.0053C471.405 97.5176 472.516 98.2679 473.445 99.2117C474.374 100.155 475.101 101.273 475.584 102.5C476.067 103.726 476.296 105.035 476.257 106.35V120.029ZM461.277 115.151H471.312V106.35C471.341 105.683 471.232 105.017 470.992 104.392C470.752 103.767 470.387 103.197 469.919 102.715C469.45 102.233 468.887 101.849 468.265 101.587C467.642 101.325 466.972 101.19 466.295 101.19C465.618 101.19 464.948 101.325 464.325 101.587C463.702 101.849 463.14 102.233 462.671 102.715C462.202 103.197 461.837 103.767 461.598 104.392C461.358 105.017 461.249 105.683 461.277 106.35V115.151Z" fill="#FFB762"/>
<path d="M496.655 171.111H491.184L484.808 116.36H490.278L496.655 171.111Z" fill="#FFB762"/>
</g>
</g>
</g>
</g>
<defs>
<filter id="filter0_d_1652_36178" x="0" y="0.000976562" width="608" height="238" filterUnits="userSpaceOnUse" color-interpolation-filters="sRGB">
<feFlood flood-opacity="0" result="BackgroundImageFix"/>
<feColorMatrix in="SourceAlpha" type="matrix" values="0 0 0 0 0 0 0 0 0 0 0 0 0 0 0 0 0 0 127 0" result="hardAlpha"/>
<feMorphology radius="3" operator="dilate" in="SourceAlpha" result="effect1_dropShadow_1652_36178"/>
<feOffset dx="1" dy="2"/>
<feGaussianBlur stdDeviation="8"/>
<feColorMatrix type="matrix" values="0 0 0 0 0.211765 0 0 0 0 0.227451 0 0 0 0 0.270588 0 0 0 0.08 0"/>
<feBlend mode="normal" in2="BackgroundImageFix" result="effect1_dropShadow_1652_36178"/>
<feBlend mode="normal" in="SourceGraphic" in2="effect1_dropShadow_1652_36178" result="shape"/>
</filter>
<filter id="filter1_d_1652_36178" x="0" y="-49.835" width="673.743" height="287.836" filterUnits="userSpaceOnUse" color-interpolation-filters="sRGB">
<feFlood flood-opacity="0" result="BackgroundImageFix"/>
<feColorMatrix in="SourceAlpha" type="matrix" values="0 0 0 0 0 0 0 0 0 0 0 0 0 0 0 0 0 0 127 0" result="hardAlpha"/>
<feMorphology radius="3" operator="dilate" in="SourceAlpha" result="effect1_dropShadow_1652_36178"/>
<feOffset dx="1" dy="2"/>
<feGaussianBlur stdDeviation="8"/>
<feColorMatrix type="matrix" values="0 0 0 0 0.211765 0 0 0 0 0.227451 0 0 0 0 0.270588 0 0 0 0.08 0"/>
<feBlend mode="normal" in2="BackgroundImageFix" result="effect1_dropShadow_1652_36178"/>
<feBlend mode="normal" in="SourceGraphic" in2="effect1_dropShadow_1652_36178" result="shape"/>
</filter>
<filter id="filter2_f_1652_36178" x="352.395" y="-70.835" width="339.348" height="325.836" filterUnits="userSpaceOnUse" color-interpolation-filters="sRGB">
<feFlood flood-opacity="0" result="BackgroundImageFix"/>
<feBlend mode="normal" in="SourceGraphic" in2="BackgroundImageFix" result="shape"/>
<feGaussianBlur stdDeviation="19" result="effect1_foregroundBlur_1652_36178"/>
</filter>
<linearGradient id="paint0_linear_1652_36178" x1="559.697" y1="5.64066" x2="386.224" y2="165.478" gradientUnits="userSpaceOnUse">
<stop stop-color="#00C65E"/>
<stop offset="1" stop-color="#00C65E" stop-opacity="0"/>
</linearGradient>
<clipPath id="clip0_1652_36178">
<path d="M18 27.001C18 21.4781 22.4772 17.001 28 17.001H578C583.523 17.001 588 21.4781 588 27.001V207.001C588 212.524 583.523 217.001 578 217.001H28C22.4771 217.001 18 212.524 18 207.001V27.001Z" fill="white"/>
</clipPath>
<clipPath id="clip1_1652_36178">
<rect width="181" height="170" fill="white" transform="translate(398 32.001)"/>
</clipPath>
</defs>
</svg>
