<svg width="570" height="201" viewBox="0 0 570 201" fill="none" xmlns="http://www.w3.org/2000/svg">
<g filter="url(#filter0_d_5137_15842)">
<path d="M570 190.494C570 196.016 565.523 200.494 560 200.494H285H10C4.47717 200.494 0 196.016 0 190.494V10.4937C0 4.97081 4.47717 0.493652 10 0.493652H285H560C565.523 0.493652 570 4.97081 570 10.4937V190.494Z" fill="#00C65E"/>
<path d="M46.4609 40.8125H32.1758V57.6172H35.7852V44.0586H42.8633V57.6172H46.4609V40.8125ZM52.707 51.7461C52.707 50.8672 52.9883 50.1289 53.5625 49.5195C54.125 48.9219 54.8047 48.6172 55.5898 48.6172C56.3633 48.6172 57.043 48.9219 57.6172 49.5195C58.1797 50.1289 58.4727 50.8672 58.4727 51.7461C58.4727 52.625 58.1797 53.3633 57.6172 53.9609C57.043 54.5586 56.3633 54.8516 55.5898 54.8516C54.8047 54.8516 54.125 54.5586 53.5625 53.9609C52.9883 53.3633 52.707 52.625 52.707 51.7461ZM61.8242 51.7344C61.8242 50.1055 61.2031 48.6758 59.9609 47.457C58.7188 46.2383 57.2656 45.6289 55.5898 45.6289C53.9023 45.6289 52.4492 46.2383 51.207 47.457C49.9648 48.6758 49.3438 50.1055 49.3438 51.7344C49.3438 53.375 49.9648 54.8047 51.207 56.0234C52.4492 57.2422 53.9023 57.8516 55.5898 57.8516C57.2656 57.8516 58.7188 57.2422 59.9609 56.0234C61.2031 54.8047 61.8242 53.375 61.8242 51.7344ZM70.5898 54.7344L73.707 50.6562V57.6172H76.9414V45.8516H74.1875L70.5898 50.5391L66.9805 45.8516H64.2266V57.6172H67.4609V50.6562L70.5898 54.7344ZM82.707 51.7461C82.707 50.8672 82.9883 50.1289 83.5625 49.5195C84.125 48.9219 84.8047 48.6172 85.5898 48.6172C86.3633 48.6172 87.043 48.9219 87.6172 49.5195C88.1797 50.1289 88.4727 50.8672 88.4727 51.7461C88.4727 52.625 88.1797 53.3633 87.6172 53.9609C87.043 54.5586 86.3633 54.8516 85.5898 54.8516C84.8047 54.8516 84.125 54.5586 83.5625 53.9609C82.9883 53.3633 82.707 52.625 82.707 51.7461ZM91.8242 51.7344C91.8242 50.1055 91.2031 48.6758 89.9609 47.457C88.7188 46.2383 87.2656 45.6289 85.5898 45.6289C83.9023 45.6289 82.4492 46.2383 81.207 47.457C79.9648 48.6758 79.3438 50.1055 79.3438 51.7344C79.3438 53.375 79.9648 54.8047 81.207 56.0234C82.4492 57.2422 83.9023 57.8516 85.5898 57.8516C87.2656 57.8516 88.7188 57.2422 89.9609 56.0234C91.2031 54.8047 91.8242 53.375 91.8242 51.7344ZM102.746 45.8516H94.2266V57.6172H97.4609V48.8516H102.746V45.8516ZM112.871 45.8516L107.773 52.4609V45.8516H104.539V57.6172H107.34L112.461 51.0195V57.6172H115.695V45.8516H112.871ZM122.176 54.7344V60.3828H125.41V57.6172H132.137V60.3828H135.371V54.7344H133.812V45.8516H124.812V49.0977C124.812 49.8359 124.742 50.5391 124.602 51.207C124.461 51.8633 124.309 52.4023 124.145 52.8008C123.98 53.1992 123.781 53.5742 123.559 53.9141C123.336 54.2422 123.184 54.4531 123.09 54.5469C122.996 54.6289 122.938 54.6992 122.891 54.7461L122.176 54.7344ZM127.812 48.7461H130.578V54.7461H126.254L126.664 54.125C126.922 53.7031 127.168 53.0586 127.426 52.1797C127.684 51.3008 127.812 50.3984 127.812 49.4727V48.7461ZM144.254 57.8516C145.777 57.8516 147.09 57.2656 148.215 56.082C149.34 54.8984 149.902 53.4453 149.902 51.7344C149.902 50.0234 149.34 48.582 148.215 47.3984C147.09 46.2148 145.777 45.6172 144.254 45.6172C143.82 45.6172 143.41 45.6875 143.012 45.8047C142.613 45.9219 142.285 46.0625 142.039 46.2148C141.781 46.3672 141.547 46.543 141.336 46.7305C141.125 46.918 140.984 47.0469 140.914 47.1172C140.844 47.1875 140.797 47.2461 140.773 47.293V45.8516H137.539V62.6562H140.773V56.1758L141.137 56.6094C141.371 56.8906 141.781 57.1602 142.367 57.4414C142.953 57.7227 143.574 57.8516 144.254 57.8516ZM143.656 48.5C144.453 48.5 145.133 48.8047 145.695 49.4141C146.258 50.0234 146.539 50.7969 146.539 51.7461C146.539 52.6836 146.258 53.4688 145.695 54.0781C145.133 54.6875 144.453 54.9922 143.656 54.9922C142.859 54.9922 142.18 54.6875 141.617 54.0781C141.055 53.4688 140.773 52.6836 140.773 51.7461C140.773 50.7969 141.055 50.0234 141.617 49.4141C142.18 48.8047 142.859 48.5 143.656 48.5ZM155.059 58.332C154.672 59.2227 153.992 59.6562 153.02 59.6562C152.539 59.6562 152.141 59.5859 151.824 59.4219V62.293L152.059 62.375C152.223 62.4453 152.469 62.5039 152.82 62.5625C153.16 62.6328 153.512 62.6562 153.863 62.6562C155.832 62.6562 157.344 61.2148 158.422 58.332L163.098 45.8516H159.746L156.98 53.6562L154.227 45.8516H150.863L155.422 57.5L155.059 58.332ZM173.293 45.8516H164.773V57.6172H168.008V48.8516H173.293V45.8516ZM183.418 45.8516L178.32 52.4609V45.8516H175.086V57.6172H177.887L183.008 51.0195V57.6172H186.242V45.8516H183.418ZM195.723 54.7344L198.84 50.6562V57.6172H202.074V45.8516H199.32L195.723 50.5391L192.113 45.8516H189.359V57.6172H192.594V50.6562L195.723 54.7344Z" fill="white"/>
<path d="M40.6602 84.4141H31.6211V95.6172H33.3789V86.0156H38.9023V95.6172H40.6602V84.4141ZM50.4102 92.3359L50.4961 91.5391C50.4961 90.4609 50.1367 89.5703 49.418 88.8516C48.6992 88.1328 47.8086 87.7734 46.7305 87.7734C45.6523 87.7734 44.7305 88.1641 43.9648 88.9297C43.1992 89.6953 42.8086 90.6172 42.8086 91.6953C42.8086 92.8203 43.207 93.7812 43.9961 94.5781C44.7852 95.375 45.7227 95.7734 46.8086 95.7734C47.2148 95.7734 47.6133 95.7188 47.9961 95.6016C48.3789 95.4844 48.6914 95.3594 48.9258 95.2188C49.168 95.0781 49.3945 94.9219 49.6055 94.7422C49.8242 94.5625 49.9648 94.4375 50.0273 94.3594C50.0898 94.2812 50.1367 94.2266 50.168 94.1797L49.1289 93.1406L48.8867 93.4375C48.7305 93.6328 48.457 93.8281 48.0664 94.0312C47.6758 94.2344 47.2617 94.3359 46.8086 94.3359C46.1914 94.3359 45.6602 94.1406 45.207 93.7422C44.7539 93.3516 44.4883 92.8828 44.4023 92.3359H50.4102ZM46.7227 89.1406C47.3164 89.1406 47.8008 89.3125 48.1914 89.6562C48.582 90 48.8242 90.4375 48.918 90.9766H44.4727C44.6133 90.4375 44.8789 90 45.2695 89.6562C45.6602 89.3125 46.1445 89.1406 46.7227 89.1406ZM56.3242 95.7734C57.3398 95.7734 58.2148 95.3906 58.9648 94.6094C59.7148 93.8281 60.0898 92.8828 60.0898 91.7734C60.0898 90.6641 59.7148 89.7266 58.9648 88.9453C58.2148 88.1641 57.3398 87.7734 56.3242 87.7734C55.8711 87.7734 55.4336 87.875 55.0039 88.0625C54.5664 88.2578 54.2852 88.4141 54.1523 88.5312C54.0195 88.6562 53.918 88.75 53.8477 88.8203V87.9375H52.2461V98.9766H53.8477V94.7344L53.957 94.8516C54.0195 94.9141 54.1289 95 54.2773 95.1094C54.4258 95.2188 54.5977 95.3203 54.793 95.4219C54.9805 95.5234 55.2148 95.6094 55.4883 95.6719C55.7539 95.7422 56.0352 95.7734 56.3242 95.7734ZM56.168 89.2188C56.7773 89.2188 57.3164 89.4688 57.7852 89.9688C58.2539 90.4688 58.4883 91.0781 58.4883 91.7812C58.4883 92.4844 58.2539 93.0859 57.7852 93.5859C57.3164 94.0859 56.7773 94.3359 56.168 94.3359C55.5586 94.3359 55.0195 94.0859 54.5508 93.5859C54.082 93.0859 53.8477 92.4844 53.8477 91.7812C53.8477 91.0781 54.082 90.4688 54.5508 89.9688C55.0195 89.4688 55.5586 89.2188 56.168 89.2188ZM68.957 92.3359L69.043 91.5391C69.043 90.4609 68.6836 89.5703 67.9648 88.8516C67.2461 88.1328 66.3555 87.7734 65.2773 87.7734C64.1992 87.7734 63.2773 88.1641 62.5117 88.9297C61.7461 89.6953 61.3555 90.6172 61.3555 91.6953C61.3555 92.8203 61.7539 93.7812 62.543 94.5781C63.332 95.375 64.2695 95.7734 65.3555 95.7734C65.7617 95.7734 66.1602 95.7188 66.543 95.6016C66.9258 95.4844 67.2383 95.3594 67.4727 95.2188C67.7148 95.0781 67.9414 94.9219 68.1523 94.7422C68.3711 94.5625 68.5117 94.4375 68.5742 94.3594C68.6367 94.2812 68.6836 94.2266 68.7148 94.1797L67.6758 93.1406L67.4336 93.4375C67.2773 93.6328 67.0039 93.8281 66.6133 94.0312C66.2227 94.2344 65.8086 94.3359 65.3555 94.3359C64.7383 94.3359 64.207 94.1406 63.7539 93.7422C63.3008 93.3516 63.0352 92.8828 62.9492 92.3359H68.957ZM65.2695 89.1406C65.8633 89.1406 66.3477 89.3125 66.7383 89.6562C67.1289 90 67.3711 90.4375 67.4648 90.9766H63.0195C63.1602 90.4375 63.4258 90 63.8164 89.6562C64.207 89.3125 64.6914 89.1406 65.2695 89.1406ZM69.6758 94.1797V97.5391H71.2773V95.6172H76.6367V97.5391H78.2305V94.1797H77.1133V87.9375H71.5117V90.1797C71.5117 90.6953 71.4648 91.1797 71.3711 91.6406C71.2773 92.1094 71.1758 92.4844 71.0664 92.7656C70.957 93.0469 70.8242 93.3125 70.6758 93.5547C70.5273 93.8047 70.4258 93.9609 70.3633 94.0312C70.3008 94.1016 70.2617 94.1484 70.2305 94.1797H69.6758ZM73.1133 89.375H75.5117V94.1797H71.832L71.9648 94.0156C72.043 93.9219 72.1523 93.7656 72.2773 93.5469C72.4023 93.3281 72.5352 93.0703 72.6602 92.7734C72.7852 92.4766 72.8945 92.0938 72.9805 91.6328C73.0664 91.1797 73.1055 90.6953 73.1055 90.1797L73.1133 89.375ZM86.0039 95.6172V90.6562C86.0039 89.8438 85.6992 89.1641 85.1055 88.6094C84.5039 88.0547 83.7383 87.7734 82.8008 87.7734C82.4258 87.7734 82.0586 87.8281 81.707 87.9297C81.3555 88.0312 81.0742 88.1484 80.8633 88.2734C80.6445 88.4062 80.4414 88.5547 80.2539 88.7188C80.0664 88.8828 79.9414 89 79.8867 89.0625C79.832 89.125 79.793 89.1797 79.7617 89.2188L80.8008 90.2578L81.0117 89.9844C81.1367 89.8125 81.3633 89.6484 81.6914 89.4766C82.0195 89.3047 82.3945 89.2188 82.8008 89.2188C83.2695 89.2188 83.6523 89.3594 83.9492 89.6328C84.2461 89.9141 84.4023 90.25 84.4023 90.6562L81.5977 91.1406C80.9023 91.2578 80.3555 91.5312 79.957 91.9531C79.5586 92.3828 79.3633 92.9141 79.3633 93.5469C79.3633 94.125 79.6211 94.6484 80.1367 95.1016C80.6523 95.5547 81.3008 95.7812 82.082 95.7812C82.3477 95.7812 82.6055 95.7422 82.8711 95.6797C83.1289 95.6094 83.3477 95.5312 83.5195 95.4453C83.6914 95.3594 83.8477 95.2656 83.9961 95.1562C84.1445 95.0469 84.2461 94.9766 84.293 94.9297C84.3398 94.8828 84.3789 94.8438 84.4023 94.8281V95.625L86.0039 95.6172ZM82.3242 94.3438C81.9023 94.3438 81.5742 94.2422 81.3242 94.0547C81.0742 93.8594 80.957 93.6328 80.957 93.375C80.957 93.1016 81.043 92.875 81.2227 92.6953C81.3945 92.5078 81.6289 92.3906 81.918 92.3438L84.4023 91.9453V92.1016C84.4023 92.8203 84.2148 93.3672 83.8477 93.7578C83.4805 94.1484 82.9727 94.3438 82.3242 94.3438ZM93.8477 87.9375L89.8477 92.9766V87.9375H88.2461V95.6172H89.6836L93.6836 90.5781V95.6172H95.2852V87.9375H93.8477ZM91.7617 85.5391C91.4414 85.5391 91.1758 85.4375 90.9648 85.2188C90.7461 85 90.6445 84.7344 90.6445 84.4141H89.4492C89.4492 85.0547 89.668 85.5938 90.1055 86.0156C90.543 86.4453 91.0977 86.6562 91.7695 86.6562C92.4414 86.6562 92.9961 86.4453 93.4336 86.0156C93.8711 85.5938 94.0898 85.0547 94.0898 84.4141H92.8867C92.8867 84.7422 92.7773 85.0078 92.5664 85.2188C92.3477 85.4375 92.082 85.5391 91.7617 85.5391ZM96.7305 89.375H99.3711V95.6172H100.965V89.375H103.605V87.9375H96.7305V89.375ZM112.16 92.3359L112.246 91.5391C112.246 90.4609 111.887 89.5703 111.168 88.8516C110.449 88.1328 109.559 87.7734 108.48 87.7734C107.402 87.7734 106.48 88.1641 105.715 88.9297C104.949 89.6953 104.559 90.6172 104.559 91.6953C104.559 92.8203 104.957 93.7812 105.746 94.5781C106.535 95.375 107.473 95.7734 108.559 95.7734C108.965 95.7734 109.363 95.7188 109.746 95.6016C110.129 95.4844 110.441 95.3594 110.676 95.2188C110.918 95.0781 111.145 94.9219 111.355 94.7422C111.574 94.5625 111.715 94.4375 111.777 94.3594C111.84 94.2812 111.887 94.2266 111.918 94.1797L110.879 93.1406L110.637 93.4375C110.48 93.6328 110.207 93.8281 109.816 94.0312C109.426 94.2344 109.012 94.3359 108.559 94.3359C107.941 94.3359 107.41 94.1406 106.957 93.7422C106.504 93.3516 106.238 92.8828 106.152 92.3359H112.16ZM108.473 89.1406C109.066 89.1406 109.551 89.3125 109.941 89.6562C110.332 90 110.574 90.4375 110.668 90.9766H106.223C106.363 90.4375 106.629 90 107.02 89.6562C107.41 89.3125 107.895 89.1406 108.473 89.1406ZM117.199 87.9375V95.6172H121.043C121.855 95.6172 122.504 95.4141 122.973 94.9922C123.441 94.5781 123.684 94.0391 123.684 93.375C123.684 93.125 123.637 92.8828 123.543 92.6641C123.449 92.4453 123.348 92.2734 123.238 92.1484C123.129 92.0234 122.996 91.9062 122.848 91.7969C122.691 91.6875 122.59 91.625 122.535 91.5938C122.473 91.5703 122.434 91.5547 122.402 91.5469L122.621 91.3984C122.77 91.2891 122.918 91.1016 123.059 90.8359C123.199 90.5703 123.277 90.2734 123.277 89.9453C123.277 89.3672 123.059 88.8828 122.629 88.5078C122.191 88.1328 121.613 87.9453 120.879 87.9453L117.199 87.9375ZM121.043 92.1875C121.348 92.1875 121.598 92.2891 121.793 92.4922C121.98 92.6953 122.082 92.9375 122.082 93.2266C122.082 93.5391 121.988 93.7969 121.801 93.9844C121.613 94.1719 121.355 94.2656 121.043 94.2656H118.801V92.1875H121.043ZM121.684 90.1016C121.684 90.3516 121.605 90.5469 121.465 90.6875C121.316 90.8281 121.121 90.9062 120.879 90.9062H118.801V89.3047H120.879C121.121 89.3047 121.316 89.375 121.465 89.5156C121.605 89.6562 121.684 89.8516 121.684 90.1016ZM131.598 95.6172V90.6562C131.598 89.8438 131.293 89.1641 130.699 88.6094C130.098 88.0547 129.332 87.7734 128.395 87.7734C128.02 87.7734 127.652 87.8281 127.301 87.9297C126.949 88.0312 126.668 88.1484 126.457 88.2734C126.238 88.4062 126.035 88.5547 125.848 88.7188C125.66 88.8828 125.535 89 125.48 89.0625C125.426 89.125 125.387 89.1797 125.355 89.2188L126.395 90.2578L126.605 89.9844C126.73 89.8125 126.957 89.6484 127.285 89.4766C127.613 89.3047 127.988 89.2188 128.395 89.2188C128.863 89.2188 129.246 89.3594 129.543 89.6328C129.84 89.9141 129.996 90.25 129.996 90.6562L127.191 91.1406C126.496 91.2578 125.949 91.5312 125.551 91.9531C125.152 92.3828 124.957 92.9141 124.957 93.5469C124.957 94.125 125.215 94.6484 125.73 95.1016C126.246 95.5547 126.895 95.7812 127.676 95.7812C127.941 95.7812 128.199 95.7422 128.465 95.6797C128.723 95.6094 128.941 95.5312 129.113 95.4453C129.285 95.3594 129.441 95.2656 129.59 95.1562C129.738 95.0469 129.84 94.9766 129.887 94.9297C129.934 94.8828 129.973 94.8438 129.996 94.8281V95.625L131.598 95.6172ZM127.918 94.3438C127.496 94.3438 127.168 94.2422 126.918 94.0547C126.668 93.8594 126.551 93.6328 126.551 93.375C126.551 93.1016 126.637 92.875 126.816 92.6953C126.988 92.5078 127.223 92.3906 127.512 92.3438L129.996 91.9453V92.1016C129.996 92.8203 129.809 93.3672 129.441 93.7578C129.074 94.1484 128.566 94.3438 127.918 94.3438ZM133.84 95.6172H144.238V87.9375H142.645V94.1797H139.84V87.9375H138.238V94.1797H135.441V87.9375H133.84V95.6172ZM152.082 87.9375L148.082 92.9766V87.9375H146.48V95.6172H147.918L151.918 90.5781V95.6172H153.52V87.9375H152.082ZM158.965 87.9375V95.6172H162.809C163.621 95.6172 164.27 95.4141 164.738 94.9922C165.207 94.5781 165.449 94.0391 165.449 93.375C165.449 93.125 165.402 92.8828 165.309 92.6641C165.215 92.4453 165.113 92.2734 165.004 92.1484C164.895 92.0234 164.762 91.9062 164.613 91.7969C164.457 91.6875 164.355 91.625 164.301 91.5938C164.238 91.5703 164.199 91.5547 164.168 91.5469L164.387 91.3984C164.535 91.2891 164.684 91.1016 164.824 90.8359C164.965 90.5703 165.043 90.2734 165.043 89.9453C165.043 89.3672 164.824 88.8828 164.395 88.5078C163.957 88.1328 163.379 87.9453 162.645 87.9453L158.965 87.9375ZM162.809 92.1875C163.113 92.1875 163.363 92.2891 163.559 92.4922C163.746 92.6953 163.848 92.9375 163.848 93.2266C163.848 93.5391 163.754 93.7969 163.566 93.9844C163.379 94.1719 163.121 94.2656 162.809 94.2656H160.566V92.1875H162.809ZM163.449 90.1016C163.449 90.3516 163.371 90.5469 163.23 90.6875C163.082 90.8281 162.887 90.9062 162.645 90.9062H160.566V89.3047H162.645C162.887 89.3047 163.082 89.375 163.23 89.5156C163.371 89.6562 163.449 89.8516 163.449 90.1016ZM174.316 92.3359L174.402 91.5391C174.402 90.4609 174.043 89.5703 173.324 88.8516C172.605 88.1328 171.715 87.7734 170.637 87.7734C169.559 87.7734 168.637 88.1641 167.871 88.9297C167.105 89.6953 166.715 90.6172 166.715 91.6953C166.715 92.8203 167.113 93.7812 167.902 94.5781C168.691 95.375 169.629 95.7734 170.715 95.7734C171.121 95.7734 171.52 95.7188 171.902 95.6016C172.285 95.4844 172.598 95.3594 172.832 95.2188C173.074 95.0781 173.301 94.9219 173.512 94.7422C173.73 94.5625 173.871 94.4375 173.934 94.3594C173.996 94.2812 174.043 94.2266 174.074 94.1797L173.035 93.1406L172.793 93.4375C172.637 93.6328 172.363 93.8281 171.973 94.0312C171.582 94.2344 171.168 94.3359 170.715 94.3359C170.098 94.3359 169.566 94.1406 169.113 93.7422C168.66 93.3516 168.395 92.8828 168.309 92.3359H174.316ZM170.629 89.1406C171.223 89.1406 171.707 89.3125 172.098 89.6562C172.488 90 172.73 90.4375 172.824 90.9766H168.379C168.52 90.4375 168.785 90 169.176 89.6562C169.566 89.3125 170.051 89.1406 170.629 89.1406ZM176.152 95.6172H186.074V97.5391H187.676V94.1797H186.551V87.9375H184.957V94.1797H182.152V87.9375H180.551V94.1797H177.754V87.9375H176.152V95.6172ZM194.879 87.9375L190.879 92.9766V87.9375H189.277V95.6172H190.715L194.715 90.5781V95.6172H196.316V87.9375H194.879ZM200.645 94.1797V97.5391H202.246V95.6172H207.605V97.5391H209.199V94.1797H208.082V87.9375H202.48V90.1797C202.48 90.6953 202.434 91.1797 202.34 91.6406C202.246 92.1094 202.145 92.4844 202.035 92.7656C201.926 93.0469 201.793 93.3125 201.645 93.5547C201.496 93.8047 201.395 93.9609 201.332 94.0312C201.27 94.1016 201.23 94.1484 201.199 94.1797H200.645ZM204.082 89.375H206.48V94.1797H202.801L202.934 94.0156C203.012 93.9219 203.121 93.7656 203.246 93.5469C203.371 93.3281 203.504 93.0703 203.629 92.7734C203.754 92.4766 203.863 92.0938 203.949 91.6328C204.035 91.1797 204.074 90.6953 204.074 90.1797L204.082 89.375ZM217.926 92.3359L218.012 91.5391C218.012 90.4609 217.652 89.5703 216.934 88.8516C216.215 88.1328 215.324 87.7734 214.246 87.7734C213.168 87.7734 212.246 88.1641 211.48 88.9297C210.715 89.6953 210.324 90.6172 210.324 91.6953C210.324 92.8203 210.723 93.7812 211.512 94.5781C212.301 95.375 213.238 95.7734 214.324 95.7734C214.73 95.7734 215.129 95.7188 215.512 95.6016C215.895 95.4844 216.207 95.3594 216.441 95.2188C216.684 95.0781 216.91 94.9219 217.121 94.7422C217.34 94.5625 217.48 94.4375 217.543 94.3594C217.605 94.2812 217.652 94.2266 217.684 94.1797L216.645 93.1406L216.402 93.4375C216.246 93.6328 215.973 93.8281 215.582 94.0312C215.191 94.2344 214.777 94.3359 214.324 94.3359C213.707 94.3359 213.176 94.1406 212.723 93.7422C212.27 93.3516 212.004 92.8828 211.918 92.3359H217.926ZM214.238 89.1406C214.832 89.1406 215.316 89.3125 215.707 89.6562C216.098 90 216.34 90.4375 216.434 90.9766H211.988C212.129 90.4375 212.395 90 212.785 89.6562C213.176 89.3125 213.66 89.1406 214.238 89.1406ZM218.965 89.375H221.605V95.6172H223.199V89.375H225.84V87.9375H218.965V89.375ZM226.801 91.7812C226.801 92.8594 227.191 93.7891 227.988 94.5859C228.785 95.3828 229.723 95.7812 230.801 95.7812C231.168 95.7812 231.535 95.7188 231.902 95.6016C232.262 95.4844 232.559 95.3594 232.793 95.2188C233.02 95.0781 233.238 94.9219 233.449 94.7422C233.652 94.5625 233.793 94.4375 233.855 94.3594C233.918 94.2812 233.965 94.2266 233.996 94.1875L232.957 93.1484L232.715 93.4453C232.559 93.6328 232.301 93.8359 231.941 94.0391C231.582 94.2422 231.207 94.3438 230.801 94.3438C230.145 94.3438 229.582 94.0938 229.105 93.6016C228.629 93.1016 228.395 92.5 228.395 91.7812C228.395 91.0625 228.629 90.4609 229.105 89.9688C229.582 89.4688 230.145 89.2266 230.801 89.2266C231.207 89.2266 231.582 89.3281 231.941 89.5391C232.301 89.7422 232.527 89.9062 232.637 90.0312C232.746 90.1562 232.824 90.2578 232.879 90.3438L233.918 89.3047L233.582 88.9375C233.355 88.6797 232.988 88.4219 232.473 88.1641C231.957 87.9062 231.395 87.7812 230.801 87.7812C229.723 87.7812 228.785 88.1797 227.988 88.9766C227.191 89.7734 226.801 90.7031 226.801 91.7812ZM242.395 87.9375H240.473L237.191 91.375V87.9375H235.59V95.6172H237.191V93.4609L238.395 92.1797L240.871 95.6172H242.629L239.434 91.1406L242.395 87.9375ZM249.504 87.9375L245.504 92.9766V87.9375H243.902V95.6172H245.34L249.34 90.5781V95.6172H250.941V87.9375H249.504ZM257.262 91.2969L254.465 87.9375H253.184V95.6172H254.785V90.5781L257.262 93.5391L259.746 90.5781V95.6172H261.348V87.9375H260.066L257.262 91.2969ZM265.676 94.1797V97.5391H267.277V95.6172H272.637V97.5391H274.23V94.1797H273.113V87.9375H267.512V90.1797C267.512 90.6953 267.465 91.1797 267.371 91.6406C267.277 92.1094 267.176 92.4844 267.066 92.7656C266.957 93.0469 266.824 93.3125 266.676 93.5547C266.527 93.8047 266.426 93.9609 266.363 94.0312C266.301 94.1016 266.262 94.1484 266.23 94.1797H265.676ZM269.113 89.375H271.512V94.1797H267.832L267.965 94.0156C268.043 93.9219 268.152 93.7656 268.277 93.5469C268.402 93.3281 268.535 93.0703 268.66 92.7734C268.785 92.4766 268.895 92.0938 268.98 91.6328C269.066 91.1797 269.105 90.6953 269.105 90.1797L269.113 89.375ZM281.762 91.7812C281.762 92.5 281.52 93.1016 281.051 93.5938C280.574 94.0938 280.012 94.3359 279.363 94.3359C278.707 94.3359 278.145 94.0938 277.668 93.5938C277.191 93.1016 276.957 92.5 276.957 91.7812C276.957 91.0625 277.191 90.4609 277.668 89.9609C278.145 89.4688 278.707 89.2188 279.363 89.2188C280.012 89.2188 280.574 89.4688 281.051 89.9609C281.52 90.4609 281.762 91.0625 281.762 91.7812ZM275.363 91.7812C275.363 92.8594 275.754 93.7891 276.551 94.5859C277.348 95.3828 278.285 95.7812 279.363 95.7812C280.441 95.7812 281.371 95.3828 282.168 94.5859C282.965 93.7891 283.363 92.8594 283.363 91.7812C283.363 90.7031 282.965 89.7656 282.168 88.9688C281.371 88.1719 280.441 87.7734 279.363 87.7734C278.285 87.7734 277.348 88.1719 276.551 88.9688C275.754 89.7656 275.363 90.7031 275.363 91.7812ZM289.199 91.2969L286.402 87.9375H285.121V95.6172H286.723V90.5781L289.199 93.5391L291.684 90.5781V95.6172H293.285V87.9375H292.004L289.199 91.2969ZM301.691 95.6172V90.6562C301.691 89.8438 301.387 89.1641 300.793 88.6094C300.191 88.0547 299.426 87.7734 298.488 87.7734C298.113 87.7734 297.746 87.8281 297.395 87.9297C297.043 88.0312 296.762 88.1484 296.551 88.2734C296.332 88.4062 296.129 88.5547 295.941 88.7188C295.754 88.8828 295.629 89 295.574 89.0625C295.52 89.125 295.48 89.1797 295.449 89.2188L296.488 90.2578L296.699 89.9844C296.824 89.8125 297.051 89.6484 297.379 89.4766C297.707 89.3047 298.082 89.2188 298.488 89.2188C298.957 89.2188 299.34 89.3594 299.637 89.6328C299.934 89.9141 300.09 90.25 300.09 90.6562L297.285 91.1406C296.59 91.2578 296.043 91.5312 295.645 91.9531C295.246 92.3828 295.051 92.9141 295.051 93.5469C295.051 94.125 295.309 94.6484 295.824 95.1016C296.34 95.5547 296.988 95.7812 297.77 95.7812C298.035 95.7812 298.293 95.7422 298.559 95.6797C298.816 95.6094 299.035 95.5312 299.207 95.4453C299.379 95.3594 299.535 95.2656 299.684 95.1562C299.832 95.0469 299.934 94.9766 299.98 94.9297C300.027 94.8828 300.066 94.8438 300.09 94.8281V95.625L301.691 95.6172ZM298.012 94.3438C297.59 94.3438 297.262 94.2422 297.012 94.0547C296.762 93.8594 296.645 93.6328 296.645 93.375C296.645 93.1016 296.73 92.875 296.91 92.6953C297.082 92.5078 297.316 92.3906 297.605 92.3438L300.09 91.9453V92.1016C300.09 92.8203 299.902 93.3672 299.535 93.7578C299.168 94.1484 298.66 94.3438 298.012 94.3438ZM308.012 91.2969L305.215 87.9375H303.934V95.6172H305.535V90.5781L308.012 93.5391L310.496 90.5781V95.6172H312.098V87.9375H310.816L308.012 91.2969ZM36.6602 111.938L32.6602 116.977V111.938H31.0586V119.617H32.4961L36.4961 114.578V119.617H38.0977V111.938H36.6602ZM51.2227 115.859C51.2227 114.797 50.8477 113.875 50.1055 113.102C49.3633 112.328 48.5117 111.938 47.543 111.938C47.2461 111.938 46.9492 111.984 46.6602 112.07C46.3711 112.156 46.1367 112.25 45.9492 112.359C45.7617 112.469 45.5898 112.586 45.4258 112.727C45.2539 112.867 45.1445 112.961 45.0898 113.016C45.0352 113.07 44.9961 113.117 44.9805 113.148C45.0586 112.32 45.3164 111.664 45.7695 111.18C46.2148 110.688 46.8086 110.383 47.543 110.266C48.3945 110.125 49.0977 109.953 49.6523 109.75C50.207 109.547 50.5352 109.406 50.6289 109.328C50.7227 109.25 50.793 109.188 50.8242 109.148L50.1055 107.945L49.8477 108.102C49.6758 108.195 49.3633 108.32 48.9102 108.469C48.457 108.609 47.9492 108.734 47.3789 108.828C46.0977 109.039 45.1133 109.609 44.418 110.547C43.7305 111.477 43.3789 112.875 43.3789 114.742C43.3789 116.375 43.7461 117.625 44.4805 118.484C45.2148 119.344 46.1758 119.773 47.3789 119.773C48.4258 119.773 49.3242 119.391 50.082 118.625C50.8398 117.859 51.2227 116.938 51.2227 115.859ZM45.1367 115.859C45.1367 115.156 45.3633 114.57 45.8008 114.094C46.2461 113.617 46.7695 113.375 47.3789 113.375C47.9883 113.375 48.5117 113.617 48.957 114.094C49.3945 114.57 49.6211 115.156 49.6211 115.859C49.6211 116.562 49.3945 117.156 48.957 117.625C48.5117 118.102 47.9883 118.336 47.3789 118.336C46.7695 118.336 46.2461 118.102 45.8008 117.625C45.3633 117.156 45.1367 116.562 45.1367 115.859ZM54.0195 111.938V114.18C54.0195 115.281 53.9492 116.133 53.8242 116.742C53.6992 117.352 53.5352 117.742 53.3477 117.922C53.1602 118.094 52.9023 118.188 52.5742 118.188C52.418 118.18 52.2305 118.148 52.0195 118.102V119.625L52.1602 119.656C52.2461 119.688 52.3711 119.711 52.5273 119.742C52.6836 119.766 52.8398 119.781 52.9805 119.781C53.5508 119.781 54.0195 119.633 54.3789 119.352C54.7383 119.062 55.0352 118.492 55.2695 117.648C55.5039 116.805 55.6133 115.648 55.6133 114.188V113.383H58.332V119.625H59.9336V111.945L54.0195 111.938ZM68.3477 119.617V114.656C68.3477 113.844 68.043 113.164 67.4492 112.609C66.8477 112.055 66.082 111.773 65.1445 111.773C64.7695 111.773 64.4023 111.828 64.0508 111.93C63.6992 112.031 63.418 112.148 63.207 112.273C62.9883 112.406 62.7852 112.555 62.5977 112.719C62.4102 112.883 62.2852 113 62.2305 113.062C62.1758 113.125 62.1367 113.18 62.1055 113.219L63.1445 114.258L63.3555 113.984C63.4805 113.812 63.707 113.648 64.0352 113.477C64.3633 113.305 64.7383 113.219 65.1445 113.219C65.6133 113.219 65.9961 113.359 66.293 113.633C66.5898 113.914 66.7461 114.25 66.7461 114.656L63.9414 115.141C63.2461 115.258 62.6992 115.531 62.3008 115.953C61.9023 116.383 61.707 116.914 61.707 117.547C61.707 118.125 61.9648 118.648 62.4805 119.102C62.9961 119.555 63.6445 119.781 64.4258 119.781C64.6914 119.781 64.9492 119.742 65.2148 119.68C65.4727 119.609 65.6914 119.531 65.8633 119.445C66.0352 119.359 66.1914 119.266 66.3398 119.156C66.4883 119.047 66.5898 118.977 66.6367 118.93C66.6836 118.883 66.7227 118.844 66.7461 118.828V119.625L68.3477 119.617ZM64.668 118.344C64.2461 118.344 63.918 118.242 63.668 118.055C63.418 117.859 63.3008 117.633 63.3008 117.375C63.3008 117.102 63.3867 116.875 63.5664 116.695C63.7383 116.508 63.9727 116.391 64.2617 116.344L66.7461 115.945V116.102C66.7461 116.82 66.5586 117.367 66.1914 117.758C65.8242 118.148 65.3164 118.344 64.668 118.344ZM75.9492 111.938H70.5898V119.617H72.1914V113.375H75.9492V111.938ZM83.1523 115.781C83.1523 116.5 82.9102 117.102 82.4414 117.594C81.9648 118.094 81.4023 118.336 80.7539 118.336C80.0977 118.336 79.5352 118.094 79.0586 117.594C78.582 117.102 78.3477 116.5 78.3477 115.781C78.3477 115.062 78.582 114.461 79.0586 113.961C79.5352 113.469 80.0977 113.219 80.7539 113.219C81.4023 113.219 81.9648 113.469 82.4414 113.961C82.9102 114.461 83.1523 115.062 83.1523 115.781ZM76.7539 115.781C76.7539 116.859 77.1445 117.789 77.9414 118.586C78.7383 119.383 79.6758 119.781 80.7539 119.781C81.832 119.781 82.7617 119.383 83.5586 118.586C84.3555 117.789 84.7539 116.859 84.7539 115.781C84.7539 114.703 84.3555 113.766 83.5586 112.969C82.7617 112.172 81.832 111.773 80.7539 111.773C79.6758 111.773 78.7383 112.172 77.9414 112.969C77.1445 113.766 76.7539 114.703 76.7539 115.781ZM85.7148 113.375H88.3555V119.617H89.9492V113.375H92.5898V111.938H85.7148V113.375ZM94.0273 111.938V119.617H97.8711C98.6836 119.617 99.332 119.414 99.8008 118.992C100.27 118.578 100.512 118.039 100.512 117.375C100.512 117.125 100.465 116.883 100.371 116.664C100.277 116.445 100.176 116.273 100.066 116.148C99.957 116.023 99.8242 115.906 99.6758 115.797C99.5195 115.688 99.418 115.625 99.3633 115.594C99.3008 115.57 99.2617 115.555 99.2305 115.547L99.4492 115.398C99.5977 115.289 99.7461 115.102 99.8867 114.836C100.027 114.57 100.105 114.273 100.105 113.945C100.105 113.367 99.8867 112.883 99.457 112.508C99.0195 112.133 98.4414 111.945 97.707 111.945L94.0273 111.938ZM97.8711 116.188C98.1758 116.188 98.4258 116.289 98.6211 116.492C98.8086 116.695 98.9102 116.938 98.9102 117.227C98.9102 117.539 98.8164 117.797 98.6289 117.984C98.4414 118.172 98.1836 118.266 97.8711 118.266H95.6289V116.188H97.8711ZM98.5117 114.102C98.5117 114.352 98.4336 114.547 98.293 114.688C98.1445 114.828 97.9492 114.906 97.707 114.906H95.6289V113.305H97.707C97.9492 113.305 98.1445 113.375 98.293 113.516C98.4336 113.656 98.5117 113.852 98.5117 114.102ZM108.184 115.781C108.184 116.5 107.941 117.102 107.473 117.594C106.996 118.094 106.434 118.336 105.785 118.336C105.129 118.336 104.566 118.094 104.09 117.594C103.613 117.102 103.379 116.5 103.379 115.781C103.379 115.062 103.613 114.461 104.09 113.961C104.566 113.469 105.129 113.219 105.785 113.219C106.434 113.219 106.996 113.469 107.473 113.961C107.941 114.461 108.184 115.062 108.184 115.781ZM101.785 115.781C101.785 116.859 102.176 117.789 102.973 118.586C103.77 119.383 104.707 119.781 105.785 119.781C106.863 119.781 107.793 119.383 108.59 118.586C109.387 117.789 109.785 116.859 109.785 115.781C109.785 114.703 109.387 113.766 108.59 112.969C107.793 112.172 106.863 111.773 105.785 111.773C104.707 111.773 103.77 112.172 102.973 112.969C102.176 113.766 101.785 114.703 101.785 115.781ZM115.621 119.773C116.637 119.773 117.512 119.391 118.262 118.609C119.012 117.828 119.387 116.883 119.387 115.773C119.387 114.664 119.012 113.727 118.262 112.945C117.512 112.164 116.637 111.773 115.621 111.773C115.168 111.773 114.73 111.875 114.301 112.062C113.863 112.258 113.582 112.414 113.449 112.531C113.316 112.656 113.215 112.75 113.145 112.82V111.938H111.543V122.977H113.145V118.734L113.254 118.852C113.316 118.914 113.426 119 113.574 119.109C113.723 119.219 113.895 119.32 114.09 119.422C114.277 119.523 114.512 119.609 114.785 119.672C115.051 119.742 115.332 119.773 115.621 119.773ZM115.465 113.219C116.074 113.219 116.613 113.469 117.082 113.969C117.551 114.469 117.785 115.078 117.785 115.781C117.785 116.484 117.551 117.086 117.082 117.586C116.613 118.086 116.074 118.336 115.465 118.336C114.855 118.336 114.316 118.086 113.848 117.586C113.379 117.086 113.145 116.484 113.145 115.781C113.145 115.078 113.379 114.469 113.848 113.969C114.316 113.469 114.855 113.219 115.465 113.219ZM126.738 111.938L122.738 116.977V111.938H121.137V119.617H122.574L126.574 114.578V119.617H128.176V111.938H126.738ZM129.621 113.375H132.262V119.617H133.855V113.375H136.496V111.938H129.621V113.375ZM145.051 116.336L145.137 115.539C145.137 114.461 144.777 113.57 144.059 112.852C143.34 112.133 142.449 111.773 141.371 111.773C140.293 111.773 139.371 112.164 138.605 112.93C137.84 113.695 137.449 114.617 137.449 115.695C137.449 116.82 137.848 117.781 138.637 118.578C139.426 119.375 140.363 119.773 141.449 119.773C141.855 119.773 142.254 119.719 142.637 119.602C143.02 119.484 143.332 119.359 143.566 119.219C143.809 119.078 144.035 118.922 144.246 118.742C144.465 118.562 144.605 118.438 144.668 118.359C144.73 118.281 144.777 118.227 144.809 118.18L143.77 117.141L143.527 117.438C143.371 117.633 143.098 117.828 142.707 118.031C142.316 118.234 141.902 118.336 141.449 118.336C140.832 118.336 140.301 118.141 139.848 117.742C139.395 117.352 139.129 116.883 139.043 116.336H145.051ZM141.363 113.141C141.957 113.141 142.441 113.312 142.832 113.656C143.223 114 143.465 114.438 143.559 114.977H139.113C139.254 114.438 139.52 114 139.91 113.656C140.301 113.312 140.785 113.141 141.363 113.141ZM147.77 111.938V114.18C147.77 115.281 147.699 116.133 147.574 116.742C147.449 117.352 147.285 117.742 147.098 117.922C146.91 118.094 146.652 118.188 146.324 118.188C146.168 118.18 145.98 118.148 145.77 118.102V119.625L145.91 119.656C145.996 119.688 146.121 119.711 146.277 119.742C146.434 119.766 146.59 119.781 146.73 119.781C147.301 119.781 147.77 119.633 148.129 119.352C148.488 119.062 148.785 118.492 149.02 117.648C149.254 116.805 149.363 115.648 149.363 114.188V113.383H152.082V119.625H153.684V111.945L147.77 111.938ZM157.535 118.258V115.695H159.293C159.652 115.695 159.957 115.82 160.207 116.062C160.449 116.312 160.574 116.617 160.574 116.977C160.574 117.344 160.449 117.648 160.207 117.891C159.957 118.141 159.652 118.258 159.293 118.258H157.535ZM162.176 116.984C162.176 116.219 161.91 115.586 161.379 115.086C160.848 114.586 160.152 114.336 159.285 114.336H157.527V111.938H155.926V119.617H159.285C160.152 119.617 160.848 119.375 161.379 118.875C161.91 118.383 162.176 117.75 162.176 116.984ZM165.535 116.414H169.293V119.617H170.895V111.938H169.293V114.977H165.535V111.938H163.934V119.617H165.535V116.414ZM174.738 118.258V115.695H176.418C176.777 115.695 177.082 115.82 177.332 116.062C177.574 116.312 177.699 116.617 177.699 116.977C177.699 117.344 177.574 117.648 177.332 117.891C177.082 118.141 176.777 118.258 176.418 118.258H174.738ZM179.301 116.984C179.301 116.219 179.035 115.586 178.504 115.086C177.973 114.586 177.277 114.336 176.41 114.336H174.73V111.938H173.129V119.617H176.41C177.277 119.617 177.973 119.375 178.504 118.875C179.035 118.383 179.301 117.75 179.301 116.984ZM182.02 111.945H180.418V119.625H182.02V111.945ZM188.34 115.297L185.543 111.938H184.262V119.617H185.863V114.578L188.34 117.539L190.824 114.578V119.617H192.426V111.938H191.145L188.34 115.297ZM203.793 115.781C203.793 116.5 203.551 117.102 203.082 117.594C202.605 118.094 202.043 118.336 201.395 118.336C200.738 118.336 200.176 118.094 199.699 117.594C199.223 117.102 198.988 116.5 198.988 115.781C198.988 115.062 199.223 114.461 199.699 113.961C200.176 113.469 200.738 113.219 201.395 113.219C202.043 113.219 202.605 113.469 203.082 113.961C203.551 114.461 203.793 115.062 203.793 115.781ZM197.395 115.781C197.395 116.859 197.785 117.789 198.582 118.586C199.379 119.383 200.316 119.781 201.395 119.781C202.473 119.781 203.402 119.383 204.199 118.586C204.996 117.789 205.395 116.859 205.395 115.781C205.395 114.703 204.996 113.766 204.199 112.969C203.402 112.172 202.473 111.773 201.395 111.773C200.316 111.773 199.379 112.172 198.582 112.969C197.785 113.766 197.395 114.703 197.395 115.781ZM211.23 119.773C212.246 119.773 213.121 119.391 213.871 118.609C214.621 117.828 214.996 116.883 214.996 115.773C214.996 114.664 214.621 113.727 213.871 112.945C213.121 112.164 212.246 111.773 211.23 111.773C210.777 111.773 210.34 111.875 209.91 112.062C209.473 112.258 209.191 112.414 209.059 112.531C208.926 112.656 208.824 112.75 208.754 112.82V111.938H207.152V122.977H208.754V118.734L208.863 118.852C208.926 118.914 209.035 119 209.184 119.109C209.332 119.219 209.504 119.32 209.699 119.422C209.887 119.523 210.121 119.609 210.395 119.672C210.66 119.742 210.941 119.773 211.23 119.773ZM211.074 113.219C211.684 113.219 212.223 113.469 212.691 113.969C213.16 114.469 213.395 115.078 213.395 115.781C213.395 116.484 213.16 117.086 212.691 117.586C212.223 118.086 211.684 118.336 211.074 118.336C210.465 118.336 209.926 118.086 209.457 117.586C208.988 117.086 208.754 116.484 208.754 115.781C208.754 115.078 208.988 114.469 209.457 113.969C209.926 113.469 210.465 113.219 211.074 113.219ZM222.105 111.938H216.746V119.617H218.348V113.375H222.105V111.938ZM229.551 119.617V114.656C229.551 113.844 229.246 113.164 228.652 112.609C228.051 112.055 227.285 111.773 226.348 111.773C225.973 111.773 225.605 111.828 225.254 111.93C224.902 112.031 224.621 112.148 224.41 112.273C224.191 112.406 223.988 112.555 223.801 112.719C223.613 112.883 223.488 113 223.434 113.062C223.379 113.125 223.34 113.18 223.309 113.219L224.348 114.258L224.559 113.984C224.684 113.812 224.91 113.648 225.238 113.477C225.566 113.305 225.941 113.219 226.348 113.219C226.816 113.219 227.199 113.359 227.496 113.633C227.793 113.914 227.949 114.25 227.949 114.656L225.145 115.141C224.449 115.258 223.902 115.531 223.504 115.953C223.105 116.383 222.91 116.914 222.91 117.547C222.91 118.125 223.168 118.648 223.684 119.102C224.199 119.555 224.848 119.781 225.629 119.781C225.895 119.781 226.152 119.742 226.418 119.68C226.676 119.609 226.895 119.531 227.066 119.445C227.238 119.359 227.395 119.266 227.543 119.156C227.691 119.047 227.793 118.977 227.84 118.93C227.887 118.883 227.926 118.844 227.949 118.828V119.625L229.551 119.617ZM225.871 118.344C225.449 118.344 225.121 118.242 224.871 118.055C224.621 117.859 224.504 117.633 224.504 117.375C224.504 117.102 224.59 116.875 224.77 116.695C224.941 116.508 225.176 116.391 225.465 116.344L227.949 115.945V116.102C227.949 116.82 227.762 117.367 227.395 117.758C227.027 118.148 226.52 118.344 225.871 118.344ZM233.395 116.414H237.152V119.617H238.754V111.938H237.152V114.977H233.395V111.938H231.793V119.617H233.395V116.414ZM246.598 111.938L242.598 116.977V111.938H240.996V119.617H242.434L246.434 114.578V119.617H248.035V111.938H246.598ZM255.395 113.938C255.395 113.352 255.137 112.844 254.621 112.414C254.105 111.992 253.402 111.773 252.52 111.773C251.973 111.773 251.457 111.883 250.973 112.086C250.488 112.297 250.176 112.461 250.035 112.586C249.895 112.711 249.785 112.82 249.715 112.898L250.762 113.938L250.965 113.758C251.105 113.633 251.316 113.516 251.613 113.398C251.91 113.281 252.207 113.219 252.52 113.219C252.934 113.219 253.254 113.305 253.473 113.469C253.691 113.633 253.801 113.844 253.801 114.102C253.801 114.359 253.691 114.57 253.473 114.734C253.254 114.898 252.934 114.977 252.52 114.977H251.637V116.258H252.52C253.051 116.258 253.449 116.359 253.715 116.555C253.98 116.758 254.121 117 254.121 117.297C254.121 117.594 253.98 117.844 253.715 118.039C253.449 118.242 253.051 118.336 252.52 118.336C252.16 118.336 251.809 118.25 251.457 118.078C251.105 117.906 250.879 117.758 250.77 117.648C250.66 117.539 250.582 117.453 250.52 117.375L249.48 118.414L249.59 118.562C249.668 118.656 249.801 118.773 249.973 118.906C250.145 119.039 250.34 119.172 250.574 119.297C250.801 119.43 251.09 119.539 251.434 119.633C251.777 119.727 252.137 119.773 252.512 119.773C253.504 119.773 254.285 119.555 254.855 119.102C255.426 118.648 255.707 118.102 255.707 117.461C255.707 117.172 255.652 116.906 255.543 116.672C255.434 116.438 255.309 116.258 255.176 116.125C255.043 115.992 254.895 115.875 254.723 115.781C254.551 115.688 254.434 115.625 254.363 115.602C254.293 115.57 254.238 115.555 254.191 115.547L254.496 115.398C254.699 115.312 254.902 115.141 255.098 114.875C255.293 114.609 255.395 114.297 255.395 113.938ZM263.645 119.617V114.656C263.645 113.844 263.34 113.164 262.746 112.609C262.145 112.055 261.379 111.773 260.441 111.773C260.066 111.773 259.699 111.828 259.348 111.93C258.996 112.031 258.715 112.148 258.504 112.273C258.285 112.406 258.082 112.555 257.895 112.719C257.707 112.883 257.582 113 257.527 113.062C257.473 113.125 257.434 113.18 257.402 113.219L258.441 114.258L258.652 113.984C258.777 113.812 259.004 113.648 259.332 113.477C259.66 113.305 260.035 113.219 260.441 113.219C260.91 113.219 261.293 113.359 261.59 113.633C261.887 113.914 262.043 114.25 262.043 114.656L259.238 115.141C258.543 115.258 257.996 115.531 257.598 115.953C257.199 116.383 257.004 116.914 257.004 117.547C257.004 118.125 257.262 118.648 257.777 119.102C258.293 119.555 258.941 119.781 259.723 119.781C259.988 119.781 260.246 119.742 260.512 119.68C260.77 119.609 260.988 119.531 261.16 119.445C261.332 119.359 261.488 119.266 261.637 119.156C261.785 119.047 261.887 118.977 261.934 118.93C261.98 118.883 262.02 118.844 262.043 118.828V119.625L263.645 119.617ZM259.965 118.344C259.543 118.344 259.215 118.242 258.965 118.055C258.715 117.859 258.598 117.633 258.598 117.375C258.598 117.102 258.684 116.875 258.863 116.695C259.035 116.508 259.27 116.391 259.559 116.344L262.043 115.945V116.102C262.043 116.82 261.855 117.367 261.488 117.758C261.121 118.148 260.613 118.344 259.965 118.344ZM265.887 119.617H272.207V121.539H273.809V118.18H272.691V111.938H271.09V118.18H267.488V111.938H265.887V119.617ZM281.004 111.938L277.004 116.977V111.938H275.402V119.617H276.84L280.84 114.578V119.617H282.441V111.938H281.004ZM287.246 111.938C286.379 111.938 285.684 112.188 285.152 112.688C284.621 113.188 284.355 113.812 284.355 114.578C284.355 114.922 284.418 115.234 284.527 115.531C284.637 115.828 284.762 116.055 284.895 116.219C285.027 116.391 285.176 116.539 285.348 116.664C285.52 116.789 285.645 116.875 285.715 116.906C285.785 116.945 285.84 116.969 285.879 116.977L284.199 119.617H285.957L287.48 117.219H289.16V119.617H290.754V111.938H287.246ZM289.16 113.297V115.859H287.238C286.879 115.859 286.574 115.742 286.324 115.492C286.082 115.25 285.957 114.945 285.957 114.578C285.957 114.219 286.082 113.914 286.324 113.664C286.574 113.422 286.879 113.297 287.238 113.297H289.16ZM297.074 115.297L294.277 111.938H292.996V119.617H294.598V114.578L297.074 117.539L299.559 114.578V119.617H301.16V111.938H299.879L297.074 115.297Z" fill="white"/>
<path opacity="0.7" d="M420.36 61.4523C430.768 39.7603 459.452 34.794 476.546 51.7246L536.566 111.171C556.776 131.187 545.935 165.673 517.907 170.525L421.346 187.243C393.319 192.096 371.516 163.262 383.819 137.617L420.36 61.4523Z" fill="#00C65E"/>
<g opacity="0.2" filter="url(#filter1_f_5137_15842)">
<ellipse cx="518.335" cy="63.2018" rx="131.674" ry="124.918" fill="url(#paint0_linear_5137_15842)"/>
</g>
<circle cx="41.6263" cy="158.607" r="11.1067" transform="rotate(-90 41.6263 158.607)" fill="white" stroke="#00C65E"/>
<path fill-rule="evenodd" clip-rule="evenodd" d="M44.5477 159.191L39.8743 163.865C39.5516 164.188 39.0284 164.188 38.7058 163.865C38.3831 163.542 38.3831 163.019 38.7058 162.696L42.7951 158.607L38.7054 154.517C38.3827 154.195 38.3827 153.672 38.7054 153.349C39.028 153.026 39.5512 153.026 39.8739 153.349L44.5287 158.004C44.5353 158.01 44.5414 158.016 44.5477 158.023C44.8297 158.305 44.8652 158.741 44.6536 159.062C44.6233 159.108 44.5881 159.151 44.5477 159.191Z" fill="#00C65E"/>
</g>
<defs>
<filter id="filter0_d_5137_15842" x="-18" y="-78.7161" width="688.009" height="300.216" filterUnits="userSpaceOnUse" color-interpolation-filters="sRGB">
<feFlood flood-opacity="0" result="BackgroundImageFix"/>
<feColorMatrix in="SourceAlpha" type="matrix" values="0 0 0 0 0 0 0 0 0 0 0 0 0 0 0 0 0 0 127 0" result="hardAlpha"/>
<feMorphology radius="3" operator="dilate" in="SourceAlpha" result="effect1_dropShadow_5137_15842"/>
<feOffset dx="1" dy="2"/>
<feGaussianBlur stdDeviation="8"/>
<feColorMatrix type="matrix" values="0 0 0 0 0.211765 0 0 0 0 0.227451 0 0 0 0 0.270588 0 0 0 0.08 0"/>
<feBlend mode="normal" in2="BackgroundImageFix" result="effect1_dropShadow_5137_15842"/>
<feBlend mode="normal" in="SourceGraphic" in2="effect1_dropShadow_5137_15842" result="shape"/>
</filter>
<filter id="filter1_f_5137_15842" x="348.661" y="-99.7161" width="339.348" height="325.836" filterUnits="userSpaceOnUse" color-interpolation-filters="sRGB">
<feFlood flood-opacity="0" result="BackgroundImageFix"/>
<feBlend mode="normal" in="SourceGraphic" in2="BackgroundImageFix" result="shape"/>
<feGaussianBlur stdDeviation="19" result="effect1_foregroundBlur_5137_15842"/>
</filter>
<linearGradient id="paint0_linear_5137_15842" x1="555.963" y1="-23.2404" x2="382.49" y2="136.597" gradientUnits="userSpaceOnUse">
<stop stop-color="#00C65E"/>
<stop offset="1" stop-color="#00C65E" stop-opacity="0"/>
</linearGradient>
</defs>
</svg>
